<?xml version="1.0" encoding="utf-8"?>
<!-- Generator: Adobe Illustrator 21.0.0, SVG Export Plug-In . SVG Version: 6.00 Build 0)  -->
<svg version="1.1" id="Слой_1" xmlns="http://www.w3.org/2000/svg" xmlns:xlink="http://www.w3.org/1999/xlink" x="0px" y="0px"
	 viewBox="0 0 1024 775.3" style="enable-background:new 0 0 1024 775.3;" xml:space="preserve">
<style type="text/css">
	.st0{fill:#262626;}
</style>
<g>
	<g>
		<path class="st0" d="M10.1,108.2c0-0.2,0-0.4,0-0.6c0,0.4,0.1,0.9,0.1,1.3c-0.2-3.2,0-6.5,0.5-9.7c0.2-1.4,0.4-2.8,0.7-4.2
			c-0.1,0.4-0.2,0.8-0.3,1.3c0.9-4.5,2.4-8.9,4.4-13c-0.2,0.4-0.4,0.8-0.6,1.2c1.8-3.6,4-7,6.7-10.1c-0.3,0.3-0.6,0.7-0.9,1
			c2.7-3.1,5.8-5.8,9.2-8c-0.4,0.3-0.8,0.5-1.1,0.8c4-2.7,8.4-4.7,13-6.2c-0.4,0.1-0.9,0.3-1.3,0.4c3.7-1.2,7.5-2.1,11.3-2.7
			c2.6-0.4,4.6-3.3,4-5.9c-0.6-2.7-3.1-4.5-5.9-4c-8.7,1.4-17.4,4.1-24.9,8.9c-6.2,4-11.6,9-15.7,15.1c-3.2,4.9-5.6,10.3-7.2,15.9
			c-1.2,4.4-2,8.9-2.3,13.4c-0.1,2.3-0.2,4.7,0.1,7.1c0,0,0,0.1,0,0.1c0.1,1.2,1.2,2.6,2.2,3.3c1,0.7,2.5,1,3.7,0.8
			c1.3-0.3,2.6-1,3.3-2.2C10,110.8,10.2,109.6,10.1,108.2L10.1,108.2z"/>
		<path class="st0" d="M195.3,124.2c0.2,0,0.4,0,0.6,0c-0.4,0-0.9,0-1.3,0c3.2,0,6.5,0.3,9.6,0.9c1.4,0.3,2.8,0.6,4.2,0.9
			c-0.4-0.1-0.8-0.2-1.3-0.3c4.4,1.2,8.8,2.8,12.8,5c-0.4-0.2-0.8-0.4-1.1-0.6c3.5,2,6.8,4.4,9.7,7.2c-0.3-0.3-0.6-0.6-0.9-0.9
			c2.9,2.8,5.5,6.1,7.6,9.6c-0.2-0.4-0.5-0.8-0.7-1.2c2.5,4.1,4.3,8.6,5.6,13.3c-0.1-0.4-0.2-0.9-0.4-1.3c1,3.8,1.7,7.6,2.2,11.5
			c0.3,2.6,3.1,4.8,5.7,4.3c2.7-0.5,4.6-2.9,4.3-5.7c-1-8.7-3.3-17.6-7.7-25.3c-3.6-6.4-8.4-12-14.4-16.3c-4.7-3.4-10-6.1-15.5-7.9
			c-4.3-1.4-8.8-2.4-13.3-2.9c-2.3-0.3-4.7-0.4-7.1-0.3c0,0-0.1,0-0.1,0c-1.2,0.1-2.7,1-3.4,2c-0.7,1-1.2,2.5-0.9,3.7
			c0.2,1.3,0.9,2.6,2,3.4C192.7,124.1,193.9,124.3,195.3,124.2L195.3,124.2z"/>
		<path class="st0" d="M150.2,0L150.2,0c3.3,0.3,5.7,3.2,5.5,6.4l-3.7,45.8c-0.3,3.3-3.1,5.7-6.4,5.5l0,0c-3.3-0.3-5.7-3.2-5.5-6.4
			l3.7-45.8C144.1,2.2,146.9-0.3,150.2,0z"/>
		<path class="st0" d="M104.8,176L104.8,176c0.8,3.2-1.2,6.4-4.4,7.2l-44.7,10.5c-3.2,0.8-6.4-1.2-7.2-4.4l0,0
			c-0.8-3.2,1.2-6.4,4.4-7.2l44.7-10.5C100.8,170.8,104,172.8,104.8,176z"/>
		<path class="st0" d="M132.4,129.5c-1.5-0.5-2.9-1-4.4-1.5c-3.5-1.2-7-2.3-10.5-3.5c-1.2-0.4-2.5-0.8-3.7-1.3
			c0.2-0.6,0.4-1.3,0.7-1.9c1.1-3.3,2.2-6.7,3.4-10c0.5-1.6,1.1-3.2,1.6-4.8c0,0,0,0,0-0.1c0.6-1.7-0.4-3.7-2.1-4.2
			c-1.7-0.5-3.6,0.3-4.2,2.1c-0.4,1.3-0.9,2.7-1.3,4c-1.1,3.2-2.2,6.4-3.2,9.6c-0.4,1.1-0.7,2.2-1.1,3.3c-0.9-0.3-1.7-0.6-2.6-0.9
			c-3.6-1.2-7.3-2.4-10.9-3.7c-1.8-0.6-3.5-1.2-5.3-1.8c0,0-0.1,0-0.1,0c-1.7-0.6-3.7,0.4-4.2,2.1c-0.5,1.7,0.3,3.6,2.1,4.2
			c1.5,0.5,2.9,1,4.4,1.5c3.5,1.2,7,2.3,10.5,3.5c1.3,0.4,2.7,0.9,4.1,1.4c-0.2,0.6-0.4,1.3-0.7,1.9c-1.1,3.3-2.2,6.7-3.4,10
			c-0.5,1.6-1.1,3.2-1.6,4.9c0,0,0,0,0,0.1c-0.6,1.6,0.4,3.7,2.1,4.2c1.7,0.5,3.6-0.3,4.2-2.1c0.4-1.3,0.9-2.7,1.3-4
			c1.1-3.2,2.2-6.4,3.2-9.6c0.4-1.1,0.7-2.2,1.1-3.3c0.8,0.3,1.5,0.5,2.3,0.8c3.6,1.2,7.3,2.4,10.9,3.7c1.8,0.6,3.5,1.2,5.3,1.8
			c0,0,0.1,0,0.1,0c1.7,0.6,3.7-0.4,4.2-2.1C135,131.9,134.2,130.1,132.4,129.5z"/>
		<path class="st0" d="M226.8,71.8c0.7-1.4,1.3-2.8,2-4.2c1.6-3.3,3.2-6.7,4.8-10c0.6-1.2,1.1-2.4,1.7-3.5c0.6,0.3,1.2,0.6,1.8,0.9
			c3.2,1.5,6.4,3,9.5,4.5c1.5,0.7,3.1,1.5,4.6,2.2c0,0,0,0,0.1,0c1.6,0.8,3.8,0.1,4.4-1.6c0.7-1.7,0.1-3.6-1.6-4.5
			c-1.3-0.6-2.5-1.2-3.8-1.8c-3-1.5-6.1-2.9-9.1-4.3c-1-0.5-2.1-1-3.1-1.5c0.4-0.8,0.8-1.7,1.2-2.5c1.7-3.5,3.3-6.9,5-10.4
			c0.8-1.7,1.6-3.4,2.4-5c0,0,0,0,0-0.1c0.8-1.6,0.1-3.8-1.6-4.5c-1.7-0.7-3.6-0.1-4.4,1.6c-0.7,1.4-1.3,2.8-2,4.2
			c-1.6,3.3-3.2,6.7-4.8,10c-0.6,1.3-1.2,2.6-1.8,3.8c-0.6-0.3-1.2-0.6-1.8-0.9c-3.2-1.5-6.4-3-9.5-4.5c-1.5-0.7-3.1-1.5-4.6-2.2
			c0,0,0,0-0.1,0c-1.6-0.8-3.8-0.1-4.4,1.6c-0.7,1.7-0.1,3.6,1.6,4.5c1.3,0.6,2.5,1.2,3.8,1.8c3,1.5,6.1,2.9,9.1,4.3
			c1,0.5,2.1,1,3.1,1.5c-0.3,0.7-0.7,1.4-1,2.2c-1.7,3.5-3.3,6.9-5,10.4c-0.8,1.7-1.6,3.4-2.4,5.1c0,0,0,0.1,0,0.1
			c-0.8,1.6-0.1,3.8,1.6,4.4C224,74.1,226,73.5,226.8,71.8z"/>
	</g>
</g>
<g>
	<g>
		<path class="st0" d="M266.1,108.2c0-0.2,0-0.4,0-0.6c0,0.4,0,0.9,0.1,1.3c-0.2-3.2,0-6.5,0.5-9.7c0.2-1.4,0.4-2.8,0.7-4.2
			c-0.1,0.4-0.2,0.8-0.3,1.3c0.9-4.5,2.4-8.9,4.4-13c-0.2,0.4-0.4,0.8-0.6,1.2c1.8-3.6,4-7,6.7-10.1c-0.3,0.3-0.6,0.7-0.9,1
			c2.7-3.1,5.8-5.8,9.2-8c-0.4,0.3-0.8,0.5-1.1,0.8c4-2.7,8.4-4.7,13-6.2c-0.4,0.1-0.9,0.3-1.3,0.4c3.7-1.2,7.5-2.1,11.4-2.7
			c2.6-0.4,4.6-3.3,4-5.9c-0.6-2.7-3.1-4.5-5.9-4c-8.7,1.4-17.4,4.1-24.9,8.9c-6.2,4-11.6,9-15.7,15.1c-3.2,4.8-5.6,10.3-7.2,15.9
			c-1.2,4.4-2,8.9-2.3,13.4c-0.1,2.3-0.2,4.7,0.1,7.1c0,0,0,0.1,0,0.1c0.1,1.2,1.2,2.6,2.1,3.3c1,0.7,2.5,1,3.7,0.8
			c1.3-0.3,2.6-1,3.3-2.2C266,110.8,266.2,109.6,266.1,108.2L266.1,108.2z"/>
		<path class="st0" d="M451.3,124.2c0.2,0,0.4,0,0.6,0c-0.4,0-0.9,0-1.3,0c3.2,0,6.5,0.3,9.6,0.9c1.4,0.3,2.8,0.6,4.2,0.9
			c-0.4-0.1-0.8-0.2-1.3-0.3c4.5,1.2,8.8,2.8,12.8,5c-0.4-0.2-0.8-0.4-1.1-0.6c3.5,2,6.8,4.4,9.7,7.2c-0.3-0.3-0.6-0.6-0.9-0.9
			c2.9,2.8,5.5,6.1,7.6,9.6c-0.2-0.4-0.5-0.8-0.7-1.2c2.5,4.1,4.3,8.6,5.6,13.3c-0.1-0.4-0.2-0.9-0.4-1.3c1,3.8,1.7,7.6,2.2,11.5
			c0.3,2.6,3,4.8,5.7,4.3c2.7-0.5,4.6-2.9,4.3-5.7c-1-8.7-3.3-17.6-7.7-25.3c-3.6-6.4-8.4-12-14.4-16.3c-4.7-3.4-10-6.1-15.5-7.9
			c-4.3-1.4-8.8-2.4-13.3-2.9c-2.3-0.3-4.7-0.4-7.1-0.3c0,0,0,0-0.1,0c-1.2,0.1-2.7,1-3.4,2c-0.7,1-1.2,2.5-0.9,3.7
			c0.2,1.3,0.9,2.6,2,3.4C448.7,124.1,449.9,124.3,451.3,124.2L451.3,124.2z"/>
		<path class="st0" d="M406.2,0L406.2,0c3.3,0.3,5.7,3.2,5.5,6.4L408,52.2c-0.3,3.3-3.1,5.7-6.4,5.5l0,0c-3.3-0.3-5.7-3.2-5.5-6.4
			l3.7-45.8C400.1,2.2,403-0.3,406.2,0z"/>
		<path class="st0" d="M360.8,176L360.8,176c0.8,3.2-1.2,6.4-4.4,7.2l-44.7,10.5c-3.2,0.8-6.4-1.2-7.2-4.4l0,0
			c-0.8-3.2,1.2-6.4,4.4-7.2l44.7-10.5C356.8,170.8,360,172.8,360.8,176z"/>
		<path class="st0" d="M388.4,129.5c-1.5-0.5-2.9-1-4.4-1.5c-3.5-1.2-7-2.3-10.5-3.5c-1.2-0.4-2.5-0.8-3.7-1.3
			c0.2-0.6,0.4-1.3,0.6-1.9c1.1-3.3,2.2-6.7,3.4-10c0.5-1.6,1.1-3.2,1.6-4.8c0,0,0,0,0-0.1c0.6-1.7-0.4-3.7-2.1-4.2
			c-1.7-0.5-3.6,0.3-4.2,2.1c-0.5,1.3-0.9,2.7-1.3,4c-1.1,3.2-2.1,6.4-3.2,9.6c-0.4,1.1-0.7,2.2-1.1,3.3c-0.9-0.3-1.7-0.6-2.6-0.9
			c-3.6-1.2-7.3-2.4-10.9-3.7c-1.8-0.6-3.5-1.2-5.3-1.8c0,0,0,0-0.1,0c-1.6-0.6-3.7,0.4-4.2,2.1c-0.5,1.7,0.3,3.6,2.1,4.2
			c1.5,0.5,2.9,1,4.4,1.5c3.5,1.2,7,2.3,10.5,3.5c1.4,0.4,2.7,0.9,4,1.4c-0.2,0.6-0.4,1.3-0.6,1.9c-1.1,3.3-2.2,6.7-3.4,10
			c-0.5,1.6-1.1,3.2-1.6,4.9c0,0,0,0,0,0.1c-0.6,1.6,0.4,3.7,2.1,4.2c1.7,0.5,3.6-0.3,4.2-2.1c0.5-1.3,0.9-2.7,1.3-4
			c1.1-3.2,2.1-6.4,3.2-9.6c0.4-1.1,0.7-2.2,1.1-3.3c0.8,0.3,1.5,0.5,2.3,0.8c3.6,1.2,7.3,2.4,10.9,3.7c1.8,0.6,3.5,1.2,5.3,1.8
			c0,0,0,0,0.1,0c1.7,0.6,3.7-0.4,4.2-2.1C391,131.9,390.2,130.1,388.4,129.5z"/>
		<path class="st0" d="M482.8,71.8c0.7-1.4,1.3-2.8,2-4.2c1.6-3.3,3.2-6.7,4.8-10c0.6-1.2,1.1-2.4,1.7-3.5c0.6,0.3,1.2,0.6,1.8,0.9
			c3.2,1.5,6.4,3,9.5,4.5c1.5,0.7,3.1,1.5,4.6,2.2c0,0,0,0,0.1,0c1.6,0.8,3.8,0.1,4.5-1.6c0.7-1.7,0.1-3.6-1.6-4.5
			c-1.3-0.6-2.5-1.2-3.8-1.8c-3-1.5-6.1-2.9-9.1-4.3c-1-0.5-2.1-1-3.1-1.5c0.4-0.8,0.8-1.7,1.2-2.5c1.7-3.5,3.3-6.9,5-10.4
			c0.8-1.7,1.6-3.4,2.4-5c0,0,0,0,0-0.1c0.8-1.6,0.1-3.8-1.6-4.5c-1.7-0.7-3.6-0.1-4.5,1.6c-0.7,1.4-1.3,2.8-2,4.2
			c-1.6,3.3-3.2,6.7-4.8,10c-0.6,1.3-1.2,2.6-1.8,3.8c-0.6-0.3-1.2-0.6-1.8-0.9c-3.2-1.5-6.4-3-9.5-4.5c-1.5-0.7-3.1-1.5-4.6-2.2
			c0,0,0,0-0.1,0c-1.6-0.8-3.8-0.1-4.5,1.6c-0.7,1.7-0.1,3.6,1.6,4.5c1.3,0.6,2.5,1.2,3.8,1.8c3,1.5,6.1,2.9,9.1,4.3
			c1,0.5,2.1,1,3.1,1.5c-0.3,0.7-0.7,1.4-1,2.2c-1.7,3.5-3.3,6.9-5,10.4c-0.8,1.7-1.6,3.4-2.4,5.1c0,0,0,0.1,0,0.1
			c-0.8,1.6-0.1,3.8,1.6,4.4C480,74.1,482,73.5,482.8,71.8z"/>
	</g>
</g>
<g>
	<g>
		<path class="st0" d="M10.1,302c0-0.2,0-0.4,0-0.6c0,0.4,0.1,0.9,0.1,1.3c-0.2-3.2,0-6.5,0.5-9.7c0.2-1.4,0.4-2.8,0.7-4.2
			c-0.1,0.4-0.2,0.8-0.3,1.3c0.9-4.5,2.4-8.9,4.4-13c-0.2,0.4-0.4,0.8-0.6,1.1c1.8-3.6,4-7,6.7-10.1c-0.3,0.3-0.6,0.7-0.9,1
			c2.7-3.1,5.8-5.8,9.2-8c-0.4,0.3-0.8,0.5-1.1,0.8c4-2.7,8.4-4.7,13-6.2c-0.4,0.1-0.9,0.3-1.3,0.4c3.7-1.2,7.5-2.1,11.3-2.7
			c2.6-0.4,4.6-3.3,4-5.9c-0.6-2.7-3.1-4.5-5.9-4c-8.7,1.4-17.4,4.1-24.9,8.9c-6.2,4-11.6,9-15.7,15.1c-3.2,4.8-5.6,10.3-7.2,15.9
			c-1.2,4.4-2,8.9-2.3,13.4c-0.1,2.3-0.2,4.7,0.1,7.1c0,0,0,0,0,0.1c0.1,1.2,1.2,2.6,2.2,3.3c1,0.7,2.5,1,3.7,0.8
			c1.3-0.3,2.6-1,3.3-2.1C10,304.6,10.2,303.4,10.1,302L10.1,302z"/>
		<path class="st0" d="M195.3,318c0.2,0,0.4,0,0.6,0c-0.4,0-0.9,0-1.3,0c3.2,0,6.5,0.4,9.6,0.9c1.4,0.3,2.8,0.6,4.2,0.9
			c-0.4-0.1-0.8-0.2-1.3-0.3c4.4,1.1,8.8,2.8,12.8,5c-0.4-0.2-0.8-0.4-1.1-0.6c3.5,2,6.8,4.4,9.7,7.2c-0.3-0.3-0.6-0.6-0.9-0.9
			c2.9,2.8,5.5,6,7.6,9.5c-0.2-0.4-0.5-0.8-0.7-1.2c2.5,4.1,4.3,8.6,5.6,13.3c-0.1-0.4-0.2-0.9-0.4-1.3c1,3.8,1.7,7.6,2.2,11.5
			c0.3,2.6,3.1,4.8,5.7,4.3c2.7-0.5,4.6-2.9,4.3-5.7c-1-8.7-3.3-17.6-7.7-25.3c-3.6-6.4-8.4-12-14.4-16.4c-4.7-3.4-10-6.1-15.5-7.9
			c-4.3-1.4-8.8-2.4-13.3-2.9c-2.3-0.3-4.7-0.4-7.1-0.3c0,0-0.1,0-0.1,0c-1.2,0-2.7,1-3.4,2c-0.7,1-1.2,2.5-0.9,3.7
			c0.2,1.3,0.9,2.6,2,3.4C192.7,317.9,193.9,318.1,195.3,318L195.3,318z"/>
		<path class="st0" d="M150.2,193.8L150.2,193.8c3.3,0.3,5.7,3.1,5.5,6.4l-3.7,45.8c-0.3,3.3-3.1,5.7-6.4,5.5l0,0
			c-3.3-0.3-5.7-3.1-5.5-6.4l3.7-45.8C144.1,196,146.9,193.6,150.2,193.8z"/>
		<path class="st0" d="M104.8,369.8L104.8,369.8c0.8,3.2-1.2,6.4-4.4,7.2l-44.7,10.5c-3.2,0.8-6.4-1.2-7.2-4.4l0,0
			c-0.8-3.2,1.2-6.4,4.4-7.2l44.7-10.5C100.8,364.6,104,366.6,104.8,369.8z"/>
		<path class="st0" d="M132.4,323.3c-1.5-0.5-2.9-1-4.4-1.5c-3.5-1.2-7-2.4-10.5-3.5c-1.2-0.4-2.5-0.8-3.7-1.3
			c0.2-0.6,0.4-1.3,0.7-1.9c1.1-3.3,2.2-6.7,3.4-10c0.5-1.6,1.1-3.2,1.6-4.9c0,0,0,0,0-0.1c0.6-1.6-0.4-3.7-2.1-4.2
			c-1.7-0.5-3.6,0.3-4.2,2.1c-0.4,1.3-0.9,2.7-1.3,4c-1.1,3.2-2.2,6.4-3.2,9.6c-0.4,1.1-0.7,2.2-1.1,3.3c-0.9-0.3-1.7-0.6-2.6-0.9
			c-3.6-1.2-7.3-2.5-10.9-3.7c-1.8-0.6-3.5-1.2-5.3-1.8c0,0-0.1,0-0.1,0c-1.7-0.6-3.7,0.4-4.2,2.1c-0.5,1.7,0.3,3.6,2.1,4.2
			c1.5,0.5,2.9,1,4.4,1.5c3.5,1.2,7,2.4,10.5,3.5c1.3,0.5,2.7,0.9,4.1,1.4c-0.2,0.6-0.4,1.3-0.7,1.9c-1.1,3.3-2.2,6.7-3.4,10
			c-0.5,1.6-1.1,3.2-1.6,4.9c0,0,0,0,0,0.1c-0.6,1.6,0.4,3.7,2.1,4.2c1.7,0.5,3.6-0.3,4.2-2.1c0.4-1.3,0.9-2.7,1.3-4
			c1.1-3.2,2.2-6.4,3.2-9.6c0.4-1.1,0.7-2.2,1.1-3.3c0.8,0.3,1.5,0.5,2.3,0.8c3.6,1.2,7.3,2.5,10.9,3.7c1.8,0.6,3.5,1.2,5.3,1.8
			c0,0,0.1,0,0.1,0c1.7,0.6,3.7-0.4,4.2-2.1C135,325.8,134.2,323.9,132.4,323.3z"/>
		<path class="st0" d="M226.8,265.6c0.7-1.4,1.3-2.8,2-4.2c1.6-3.3,3.2-6.7,4.8-10c0.6-1.2,1.1-2.4,1.7-3.5c0.6,0.3,1.2,0.6,1.8,0.9
			c3.2,1.5,6.4,3,9.5,4.6c1.5,0.7,3.1,1.5,4.6,2.2c0,0,0,0,0.1,0c1.6,0.8,3.8,0.1,4.4-1.6c0.7-1.7,0.1-3.6-1.6-4.4
			c-1.3-0.6-2.5-1.2-3.8-1.8c-3-1.4-6.1-2.9-9.1-4.4c-1-0.5-2.1-1-3.1-1.5c0.4-0.8,0.8-1.6,1.2-2.5c1.7-3.5,3.3-6.9,5-10.4
			c0.8-1.7,1.6-3.4,2.4-5.1c0,0,0-0.1,0-0.1c0.8-1.6,0.1-3.8-1.6-4.4c-1.7-0.7-3.6-0.1-4.4,1.6c-0.7,1.4-1.3,2.8-2,4.2
			c-1.6,3.3-3.2,6.7-4.8,10c-0.6,1.3-1.2,2.6-1.8,3.9c-0.6-0.3-1.2-0.6-1.8-0.9c-3.2-1.5-6.4-3-9.5-4.6c-1.5-0.7-3.1-1.5-4.6-2.2
			c0,0,0,0-0.1,0c-1.6-0.8-3.8-0.1-4.4,1.6c-0.7,1.7-0.1,3.6,1.6,4.4c1.3,0.6,2.5,1.2,3.8,1.8c3,1.4,6.1,2.9,9.1,4.4
			c1,0.5,2.1,1,3.1,1.5c-0.3,0.7-0.7,1.4-1,2.2c-1.7,3.5-3.3,6.9-5,10.4c-0.8,1.7-1.6,3.4-2.4,5c0,0,0,0,0,0.1
			c-0.8,1.6-0.1,3.8,1.6,4.5C224,267.9,226,267.3,226.8,265.6z"/>
	</g>
</g>
<g>
	<g>
		<path class="st0" d="M266.1,302c0-0.2,0-0.4,0-0.6c0,0.4,0,0.9,0.1,1.3c-0.2-3.2,0-6.5,0.5-9.7c0.2-1.4,0.4-2.8,0.7-4.2
			c-0.1,0.4-0.2,0.8-0.3,1.3c0.9-4.5,2.4-8.9,4.4-13c-0.2,0.4-0.4,0.8-0.6,1.1c1.8-3.6,4-7,6.7-10.1c-0.3,0.3-0.6,0.7-0.9,1
			c2.7-3.1,5.8-5.8,9.2-8c-0.4,0.3-0.8,0.5-1.1,0.8c4-2.7,8.4-4.7,13-6.2c-0.4,0.1-0.9,0.3-1.3,0.4c3.7-1.2,7.5-2.1,11.4-2.7
			c2.6-0.4,4.6-3.3,4-5.9c-0.6-2.7-3.1-4.5-5.9-4c-8.7,1.4-17.4,4.1-24.9,8.9c-6.2,4-11.6,9-15.7,15.1c-3.2,4.8-5.6,10.3-7.2,15.9
			c-1.2,4.4-2,8.9-2.3,13.4c-0.1,2.3-0.2,4.7,0.1,7.1c0,0,0,0,0,0.1c0.1,1.2,1.2,2.6,2.1,3.3c1,0.7,2.5,1,3.7,0.8
			c1.3-0.3,2.6-1,3.3-2.1C266,304.6,266.2,303.4,266.1,302L266.1,302z"/>
		<path class="st0" d="M451.3,318c0.2,0,0.4,0,0.6,0c-0.4,0-0.9,0-1.3,0c3.2,0,6.5,0.4,9.6,0.9c1.4,0.3,2.8,0.6,4.2,0.9
			c-0.4-0.1-0.8-0.2-1.3-0.3c4.5,1.1,8.8,2.8,12.8,5c-0.4-0.2-0.8-0.4-1.1-0.6c3.5,2,6.8,4.4,9.7,7.2c-0.3-0.3-0.6-0.6-0.9-0.9
			c2.9,2.8,5.5,6,7.6,9.5c-0.2-0.4-0.5-0.8-0.7-1.2c2.5,4.1,4.3,8.6,5.6,13.3c-0.1-0.4-0.2-0.9-0.4-1.3c1,3.8,1.7,7.6,2.2,11.5
			c0.3,2.6,3,4.8,5.7,4.3c2.7-0.5,4.6-2.9,4.3-5.7c-1-8.7-3.3-17.6-7.7-25.3c-3.6-6.4-8.4-12-14.4-16.4c-4.7-3.4-10-6.1-15.5-7.9
			c-4.3-1.4-8.8-2.4-13.3-2.9c-2.3-0.3-4.7-0.4-7.1-0.3c0,0,0,0-0.1,0c-1.2,0-2.7,1-3.4,2c-0.7,1-1.2,2.5-0.9,3.7
			c0.2,1.3,0.9,2.6,2,3.4C448.7,317.9,449.9,318.1,451.3,318L451.3,318z"/>
		<path class="st0" d="M406.2,193.8L406.2,193.8c3.3,0.3,5.7,3.1,5.5,6.4L408,246c-0.3,3.3-3.1,5.7-6.4,5.5l0,0
			c-3.3-0.3-5.7-3.1-5.5-6.4l3.7-45.8C400.1,196,403,193.6,406.2,193.8z"/>
		<path class="st0" d="M360.8,369.8L360.8,369.8c0.8,3.2-1.2,6.4-4.4,7.2l-44.7,10.5c-3.2,0.8-6.4-1.2-7.2-4.4l0,0
			c-0.8-3.2,1.2-6.4,4.4-7.2l44.7-10.5C356.8,364.6,360,366.6,360.8,369.8z"/>
		<path class="st0" d="M388.4,323.3c-1.5-0.5-2.9-1-4.4-1.5c-3.5-1.2-7-2.4-10.5-3.5c-1.2-0.4-2.5-0.8-3.7-1.3
			c0.2-0.6,0.4-1.3,0.6-1.9c1.1-3.3,2.2-6.7,3.4-10c0.5-1.6,1.1-3.2,1.6-4.9c0,0,0,0,0-0.1c0.6-1.6-0.4-3.7-2.1-4.2
			c-1.7-0.5-3.6,0.3-4.2,2.1c-0.5,1.3-0.9,2.7-1.3,4c-1.1,3.2-2.1,6.4-3.2,9.6c-0.4,1.1-0.7,2.2-1.1,3.3c-0.9-0.3-1.7-0.6-2.6-0.9
			c-3.6-1.2-7.3-2.5-10.9-3.7c-1.8-0.6-3.5-1.2-5.3-1.8c0,0,0,0-0.1,0c-1.6-0.6-3.7,0.4-4.2,2.1c-0.5,1.7,0.3,3.6,2.1,4.2
			c1.5,0.5,2.9,1,4.4,1.5c3.5,1.2,7,2.4,10.5,3.5c1.4,0.5,2.7,0.9,4,1.4c-0.2,0.6-0.4,1.3-0.6,1.9c-1.1,3.3-2.2,6.7-3.4,10
			c-0.5,1.6-1.1,3.2-1.6,4.9c0,0,0,0,0,0.1c-0.6,1.6,0.4,3.7,2.1,4.2c1.7,0.5,3.6-0.3,4.2-2.1c0.5-1.3,0.9-2.7,1.3-4
			c1.1-3.2,2.1-6.4,3.2-9.6c0.4-1.1,0.7-2.2,1.1-3.3c0.8,0.3,1.5,0.5,2.3,0.8c3.6,1.2,7.3,2.5,10.9,3.7c1.8,0.6,3.5,1.2,5.3,1.8
			c0,0,0,0,0.1,0c1.7,0.6,3.7-0.4,4.2-2.1C391,325.8,390.2,323.9,388.4,323.3z"/>
		<path class="st0" d="M482.8,265.6c0.7-1.4,1.3-2.8,2-4.2c1.6-3.3,3.2-6.7,4.8-10c0.6-1.2,1.1-2.4,1.7-3.5c0.6,0.3,1.2,0.6,1.8,0.9
			c3.2,1.5,6.4,3,9.5,4.6c1.5,0.7,3.1,1.5,4.6,2.2c0,0,0,0,0.1,0c1.6,0.8,3.8,0.1,4.5-1.6c0.7-1.7,0.1-3.6-1.6-4.4
			c-1.3-0.6-2.5-1.2-3.8-1.8c-3-1.4-6.1-2.9-9.1-4.4c-1-0.5-2.1-1-3.1-1.5c0.4-0.8,0.8-1.6,1.2-2.5c1.7-3.5,3.3-6.9,5-10.4
			c0.8-1.7,1.6-3.4,2.4-5.1c0,0,0-0.1,0-0.1c0.8-1.6,0.1-3.8-1.6-4.4c-1.7-0.7-3.6-0.1-4.5,1.6c-0.7,1.4-1.3,2.8-2,4.2
			c-1.6,3.3-3.2,6.7-4.8,10c-0.6,1.3-1.2,2.6-1.8,3.9c-0.6-0.3-1.2-0.6-1.8-0.9c-3.2-1.5-6.4-3-9.5-4.6c-1.5-0.7-3.1-1.5-4.6-2.2
			c0,0,0,0-0.1,0c-1.6-0.8-3.8-0.1-4.5,1.6c-0.7,1.7-0.1,3.6,1.6,4.4c1.3,0.6,2.5,1.2,3.8,1.8c3,1.4,6.1,2.9,9.1,4.4
			c1,0.5,2.1,1,3.1,1.5c-0.3,0.7-0.7,1.4-1,2.2c-1.7,3.5-3.3,6.9-5,10.4c-0.8,1.7-1.6,3.4-2.4,5c0,0,0,0,0,0.1
			c-0.8,1.6-0.1,3.8,1.6,4.5C480,267.9,482,267.3,482.8,265.6z"/>
	</g>
</g>
<g>
	<g>
		<path class="st0" d="M10.1,495.9c0-0.2,0-0.4,0-0.6c0,0.4,0.1,0.9,0.1,1.3c-0.2-3.2,0-6.5,0.5-9.7c0.2-1.4,0.4-2.8,0.7-4.2
			c-0.1,0.4-0.2,0.8-0.3,1.3c0.9-4.5,2.4-8.9,4.4-13c-0.2,0.4-0.4,0.8-0.6,1.1c1.8-3.6,4-7,6.7-10.1c-0.3,0.3-0.6,0.7-0.9,1
			c2.7-3.1,5.8-5.8,9.2-8c-0.4,0.3-0.8,0.5-1.1,0.8c4-2.7,8.4-4.7,13-6.2c-0.4,0.1-0.9,0.3-1.3,0.4c3.7-1.2,7.5-2.1,11.3-2.7
			c2.6-0.4,4.6-3.3,4-5.9c-0.6-2.7-3.1-4.5-5.9-4c-8.7,1.4-17.4,4.1-24.9,8.9c-6.2,4-11.6,9-15.7,15.1c-3.2,4.8-5.6,10.3-7.2,15.9
			c-1.2,4.4-2,8.9-2.3,13.4c-0.1,2.3-0.2,4.7,0.1,7.1c0,0,0,0,0,0.1c0.1,1.2,1.2,2.6,2.2,3.3c1,0.7,2.5,1,3.7,0.8
			c1.3-0.3,2.6-1,3.3-2.1C10,498.4,10.2,497.2,10.1,495.9L10.1,495.9z"/>
		<path class="st0" d="M195.3,511.9c0.2,0,0.4,0,0.6,0c-0.4,0-0.9,0-1.3,0c3.2,0,6.5,0.3,9.6,0.9c1.4,0.3,2.8,0.6,4.2,0.9
			c-0.4-0.1-0.8-0.2-1.3-0.3c4.4,1.2,8.8,2.8,12.8,5c-0.4-0.2-0.8-0.4-1.1-0.6c3.5,2,6.8,4.4,9.7,7.2c-0.3-0.3-0.6-0.6-0.9-0.9
			c2.9,2.8,5.5,6,7.6,9.5c-0.2-0.4-0.5-0.8-0.7-1.2c2.5,4.2,4.3,8.7,5.6,13.3c-0.1-0.4-0.2-0.9-0.4-1.3c1,3.8,1.7,7.6,2.2,11.5
			c0.3,2.6,3.1,4.8,5.7,4.3c2.7-0.5,4.6-2.9,4.3-5.7c-1-8.7-3.3-17.6-7.7-25.3c-3.6-6.4-8.4-12-14.4-16.3c-4.7-3.4-10-6.1-15.5-7.9
			c-4.3-1.4-8.8-2.4-13.3-2.9c-2.3-0.3-4.7-0.4-7.1-0.3c0,0-0.1,0-0.1,0c-1.2,0-2.7,1-3.4,2c-0.7,1-1.2,2.5-0.9,3.7
			c0.2,1.3,0.9,2.6,2,3.4C192.7,511.7,193.9,511.9,195.3,511.9L195.3,511.9z"/>
		<path class="st0" d="M150.2,387.7L150.2,387.7c3.3,0.3,5.7,3.1,5.5,6.4l-3.7,45.8c-0.3,3.3-3.1,5.7-6.4,5.5l0,0
			c-3.3-0.3-5.7-3.1-5.5-6.4l3.7-45.8C144.1,389.8,146.9,387.4,150.2,387.7z"/>
		<path class="st0" d="M104.8,563.6L104.8,563.6c0.8,3.2-1.2,6.4-4.4,7.2l-44.7,10.5c-3.2,0.8-6.4-1.2-7.2-4.4l0,0
			c-0.8-3.2,1.2-6.4,4.4-7.2l44.7-10.5C100.8,558.4,104,560.4,104.8,563.6z"/>
		<path class="st0" d="M132.4,517.1c-1.5-0.5-2.9-1-4.4-1.5c-3.5-1.2-7-2.3-10.5-3.5c-1.2-0.4-2.5-0.8-3.7-1.3
			c0.2-0.6,0.4-1.3,0.7-1.9c1.1-3.3,2.2-6.7,3.4-10c0.5-1.6,1.1-3.2,1.6-4.9c0,0,0,0,0-0.1c0.6-1.6-0.4-3.7-2.1-4.2
			c-1.7-0.5-3.6,0.3-4.2,2.1c-0.4,1.3-0.9,2.7-1.3,4c-1.1,3.2-2.2,6.4-3.2,9.6c-0.4,1.1-0.7,2.2-1.1,3.3c-0.9-0.3-1.7-0.6-2.6-0.9
			c-3.6-1.2-7.3-2.5-10.9-3.7c-1.8-0.6-3.5-1.2-5.3-1.8c0,0-0.1,0-0.1,0c-1.7-0.6-3.7,0.4-4.2,2.1c-0.5,1.7,0.3,3.6,2.1,4.2
			c1.5,0.5,2.9,1,4.4,1.5c3.5,1.2,7,2.4,10.5,3.5c1.3,0.5,2.7,0.9,4.1,1.4c-0.2,0.6-0.4,1.3-0.7,1.9c-1.1,3.3-2.2,6.7-3.4,10
			c-0.5,1.6-1.1,3.2-1.6,4.8c0,0,0,0,0,0.1c-0.6,1.7,0.4,3.7,2.1,4.2c1.7,0.5,3.6-0.3,4.2-2.1c0.4-1.3,0.9-2.7,1.3-4
			c1.1-3.2,2.2-6.4,3.2-9.6c0.4-1.1,0.7-2.2,1.1-3.3c0.8,0.3,1.5,0.5,2.3,0.8c3.6,1.2,7.3,2.5,10.9,3.7c1.8,0.6,3.5,1.2,5.3,1.8
			c0,0,0.1,0,0.1,0c1.7,0.6,3.7-0.4,4.2-2.1C135,519.6,134.2,517.7,132.4,517.1z"/>
		<path class="st0" d="M226.8,459.5c0.7-1.4,1.3-2.8,2-4.2c1.6-3.3,3.2-6.7,4.8-10c0.6-1.2,1.1-2.4,1.7-3.5c0.6,0.3,1.2,0.6,1.8,0.9
			c3.2,1.5,6.4,3,9.5,4.5c1.5,0.7,3.1,1.5,4.6,2.2c0,0,0,0,0.1,0c1.6,0.8,3.8,0.1,4.4-1.6c0.7-1.7,0.1-3.6-1.6-4.5
			c-1.3-0.6-2.5-1.2-3.8-1.8c-3-1.5-6.1-2.9-9.1-4.4c-1-0.5-2.1-1-3.1-1.5c0.4-0.8,0.8-1.6,1.2-2.5c1.7-3.5,3.3-6.9,5-10.4
			c0.8-1.7,1.6-3.4,2.4-5c0,0,0,0,0-0.1c0.8-1.6,0.1-3.8-1.6-4.5c-1.7-0.7-3.6-0.1-4.4,1.6c-0.7,1.4-1.3,2.8-2,4.2
			c-1.6,3.3-3.2,6.7-4.8,10c-0.6,1.3-1.2,2.6-1.8,3.9c-0.6-0.3-1.2-0.6-1.8-0.9c-3.2-1.5-6.4-3-9.5-4.5c-1.5-0.7-3.1-1.5-4.6-2.2
			c0,0,0,0-0.1,0c-1.6-0.8-3.8-0.1-4.4,1.6c-0.7,1.7-0.1,3.6,1.6,4.5c1.3,0.6,2.5,1.2,3.8,1.8c3,1.5,6.1,2.9,9.1,4.4
			c1,0.5,2.1,1,3.1,1.5c-0.3,0.7-0.7,1.4-1,2.2c-1.7,3.5-3.3,6.9-5,10.4c-0.8,1.7-1.6,3.4-2.4,5c0,0,0,0,0,0.1
			c-0.8,1.6-0.1,3.8,1.6,4.5C224,461.7,226,461.1,226.8,459.5z"/>
	</g>
</g>
<g>
	<g>
		<path class="st0" d="M266.1,495.9c0-0.2,0-0.4,0-0.6c0,0.4,0,0.9,0.1,1.3c-0.2-3.2,0-6.5,0.5-9.7c0.2-1.4,0.4-2.8,0.7-4.2
			c-0.1,0.4-0.2,0.8-0.3,1.3c0.9-4.5,2.4-8.9,4.4-13c-0.2,0.4-0.4,0.8-0.6,1.1c1.8-3.6,4-7,6.7-10.1c-0.3,0.3-0.6,0.7-0.9,1
			c2.7-3.1,5.8-5.8,9.2-8c-0.4,0.3-0.8,0.5-1.1,0.8c4-2.7,8.4-4.7,13-6.2c-0.4,0.1-0.9,0.3-1.3,0.4c3.7-1.2,7.5-2.1,11.4-2.7
			c2.6-0.4,4.6-3.3,4-5.9c-0.6-2.7-3.1-4.5-5.9-4c-8.7,1.4-17.4,4.1-24.9,8.9c-6.2,4-11.6,9-15.7,15.1c-3.2,4.8-5.6,10.3-7.2,15.9
			c-1.2,4.4-2,8.9-2.3,13.4c-0.1,2.3-0.2,4.7,0.1,7.1c0,0,0,0,0,0.1c0.1,1.2,1.2,2.6,2.1,3.3c1,0.7,2.5,1,3.7,0.8
			c1.3-0.3,2.6-1,3.3-2.1C266,498.4,266.2,497.2,266.1,495.9L266.1,495.9z"/>
		<path class="st0" d="M451.3,511.9c0.2,0,0.4,0,0.6,0c-0.4,0-0.9,0-1.3,0c3.2,0,6.5,0.3,9.6,0.9c1.4,0.3,2.8,0.6,4.2,0.9
			c-0.4-0.1-0.8-0.2-1.3-0.3c4.5,1.2,8.8,2.8,12.8,5c-0.4-0.2-0.8-0.4-1.1-0.6c3.5,2,6.8,4.4,9.7,7.2c-0.3-0.3-0.6-0.6-0.9-0.9
			c2.9,2.8,5.5,6,7.6,9.5c-0.2-0.4-0.5-0.8-0.7-1.2c2.5,4.2,4.3,8.7,5.6,13.3c-0.1-0.4-0.2-0.9-0.4-1.3c1,3.8,1.7,7.6,2.2,11.5
			c0.3,2.6,3,4.8,5.7,4.3c2.7-0.5,4.6-2.9,4.3-5.7c-1-8.7-3.3-17.6-7.7-25.3c-3.6-6.4-8.4-12-14.4-16.3c-4.7-3.4-10-6.1-15.5-7.9
			c-4.3-1.4-8.8-2.4-13.3-2.9c-2.3-0.3-4.7-0.4-7.1-0.3c0,0,0,0-0.1,0c-1.2,0-2.7,1-3.4,2c-0.7,1-1.2,2.5-0.9,3.7
			c0.2,1.3,0.9,2.6,2,3.4C448.7,511.7,449.9,511.9,451.3,511.9L451.3,511.9z"/>
		<path class="st0" d="M406.2,387.7L406.2,387.7c3.3,0.3,5.7,3.1,5.5,6.4l-3.7,45.8c-0.3,3.3-3.1,5.7-6.4,5.5l0,0
			c-3.3-0.3-5.7-3.1-5.5-6.4l3.7-45.8C400.1,389.8,403,387.4,406.2,387.7z"/>
		<path class="st0" d="M360.8,563.6L360.8,563.6c0.8,3.2-1.2,6.4-4.4,7.2l-44.7,10.5c-3.2,0.8-6.4-1.2-7.2-4.4l0,0
			c-0.8-3.2,1.2-6.4,4.4-7.2l44.7-10.5C356.8,558.4,360,560.4,360.8,563.6z"/>
		<path class="st0" d="M388.4,517.1c-1.5-0.5-2.9-1-4.4-1.5c-3.5-1.2-7-2.3-10.5-3.5c-1.2-0.4-2.5-0.8-3.7-1.3
			c0.2-0.6,0.4-1.3,0.6-1.9c1.1-3.3,2.2-6.7,3.4-10c0.5-1.6,1.1-3.2,1.6-4.9c0,0,0,0,0-0.1c0.6-1.6-0.4-3.7-2.1-4.2
			c-1.7-0.5-3.6,0.3-4.2,2.1c-0.5,1.3-0.9,2.7-1.3,4c-1.1,3.2-2.1,6.4-3.2,9.6c-0.4,1.1-0.7,2.2-1.1,3.3c-0.9-0.3-1.7-0.6-2.6-0.9
			c-3.6-1.2-7.3-2.5-10.9-3.7c-1.8-0.6-3.5-1.2-5.3-1.8c0,0,0,0-0.1,0c-1.6-0.6-3.7,0.4-4.2,2.1c-0.5,1.7,0.3,3.6,2.1,4.2
			c1.5,0.5,2.9,1,4.4,1.5c3.5,1.2,7,2.4,10.5,3.5c1.4,0.5,2.7,0.9,4,1.4c-0.2,0.6-0.4,1.3-0.6,1.9c-1.1,3.3-2.2,6.7-3.4,10
			c-0.5,1.6-1.1,3.2-1.6,4.8c0,0,0,0,0,0.1c-0.6,1.7,0.4,3.7,2.1,4.2c1.7,0.5,3.6-0.3,4.2-2.1c0.5-1.3,0.9-2.7,1.3-4
			c1.1-3.2,2.1-6.4,3.2-9.6c0.4-1.1,0.7-2.2,1.1-3.3c0.8,0.3,1.5,0.5,2.3,0.8c3.6,1.2,7.3,2.5,10.9,3.7c1.8,0.6,3.5,1.2,5.3,1.8
			c0,0,0,0,0.1,0c1.7,0.6,3.7-0.4,4.2-2.1C391,519.6,390.2,517.7,388.4,517.1z"/>
		<path class="st0" d="M482.8,459.5c0.7-1.4,1.3-2.8,2-4.2c1.6-3.3,3.2-6.7,4.8-10c0.6-1.2,1.1-2.4,1.7-3.5c0.6,0.3,1.2,0.6,1.8,0.9
			c3.2,1.5,6.4,3,9.5,4.5c1.5,0.7,3.1,1.5,4.6,2.2c0,0,0,0,0.1,0c1.6,0.8,3.8,0.1,4.5-1.6c0.7-1.7,0.1-3.6-1.6-4.5
			c-1.3-0.6-2.5-1.2-3.8-1.8c-3-1.5-6.1-2.9-9.1-4.4c-1-0.5-2.1-1-3.1-1.5c0.4-0.8,0.8-1.6,1.2-2.5c1.7-3.5,3.3-6.9,5-10.4
			c0.8-1.7,1.6-3.4,2.4-5c0,0,0,0,0-0.1c0.8-1.6,0.1-3.8-1.6-4.5c-1.7-0.7-3.6-0.1-4.5,1.6c-0.7,1.4-1.3,2.8-2,4.2
			c-1.6,3.3-3.2,6.7-4.8,10c-0.6,1.3-1.2,2.6-1.8,3.9c-0.6-0.3-1.2-0.6-1.8-0.9c-3.2-1.5-6.4-3-9.5-4.5c-1.5-0.7-3.1-1.5-4.6-2.2
			c0,0,0,0-0.1,0c-1.6-0.8-3.8-0.1-4.5,1.6c-0.7,1.7-0.1,3.6,1.6,4.5c1.3,0.6,2.5,1.2,3.8,1.8c3,1.5,6.1,2.9,9.1,4.4
			c1,0.5,2.1,1,3.1,1.5c-0.3,0.7-0.7,1.4-1,2.2c-1.7,3.5-3.3,6.9-5,10.4c-0.8,1.7-1.6,3.4-2.4,5c0,0,0,0,0,0.1
			c-0.8,1.6-0.1,3.8,1.6,4.5C480,461.7,482,461.1,482.8,459.5z"/>
	</g>
</g>
<g>
	<g>
		<path class="st0" d="M10.1,689.7c0-0.2,0-0.4,0-0.6c0,0.4,0.1,0.9,0.1,1.3c-0.2-3.2,0-6.5,0.5-9.7c0.2-1.4,0.4-2.8,0.7-4.2
			c-0.1,0.4-0.2,0.8-0.3,1.3c0.9-4.5,2.4-8.9,4.4-13c-0.2,0.4-0.4,0.8-0.6,1.2c1.8-3.6,4-7,6.7-10.1c-0.3,0.3-0.6,0.7-0.9,1
			c2.7-3.1,5.8-5.8,9.2-8c-0.4,0.3-0.8,0.5-1.1,0.8c4-2.7,8.4-4.7,13-6.2c-0.4,0.1-0.9,0.3-1.3,0.4c3.7-1.2,7.5-2.1,11.3-2.7
			c2.6-0.4,4.6-3.3,4-5.9c-0.6-2.7-3.1-4.5-5.9-4c-8.7,1.4-17.4,4.1-24.9,8.9c-6.2,4-11.6,9-15.7,15.1c-3.2,4.8-5.6,10.3-7.2,15.9
			c-1.2,4.4-2,8.9-2.3,13.4c-0.1,2.3-0.2,4.7,0.1,7.1c0,0,0,0,0,0.1c0.1,1.2,1.2,2.6,2.2,3.3c1,0.7,2.5,1,3.7,0.8
			c1.3-0.3,2.6-1,3.3-2.2C10,692.2,10.2,691,10.1,689.7L10.1,689.7z"/>
		<path class="st0" d="M195.3,705.7c0.2,0,0.4,0,0.6,0c-0.4,0-0.9,0-1.3,0c3.2,0,6.5,0.3,9.6,0.9c1.4,0.3,2.8,0.6,4.2,0.9
			c-0.4-0.1-0.8-0.2-1.3-0.3c4.4,1.2,8.8,2.8,12.8,5c-0.4-0.2-0.8-0.4-1.1-0.6c3.5,2,6.8,4.4,9.7,7.2c-0.3-0.3-0.6-0.6-0.9-0.9
			c2.9,2.8,5.5,6,7.6,9.5c-0.2-0.4-0.5-0.8-0.7-1.2c2.5,4.2,4.3,8.7,5.6,13.3c-0.1-0.4-0.2-0.9-0.4-1.3c1,3.8,1.7,7.6,2.2,11.5
			c0.3,2.6,3.1,4.8,5.7,4.3c2.7-0.5,4.6-2.9,4.3-5.7c-1-8.7-3.3-17.6-7.7-25.3c-3.6-6.4-8.4-12-14.4-16.3c-4.7-3.4-10-6.1-15.5-7.9
			c-4.3-1.4-8.8-2.4-13.3-2.9c-2.3-0.3-4.7-0.4-7.1-0.3c0,0-0.1,0-0.1,0c-1.2,0-2.7,1-3.4,2c-0.7,1-1.2,2.5-0.9,3.7
			c0.2,1.3,0.9,2.6,2,3.4C192.7,705.5,193.9,705.8,195.3,705.7L195.3,705.7z"/>
		<path class="st0" d="M150.2,581.5L150.2,581.5c3.3,0.3,5.7,3.2,5.5,6.4l-3.7,45.8c-0.3,3.3-3.1,5.7-6.4,5.5l0,0
			c-3.3-0.3-5.7-3.2-5.5-6.4l3.7-45.8C144.1,583.7,146.9,581.2,150.2,581.5z"/>
		<path class="st0" d="M104.8,757.4L104.8,757.4c0.8,3.2-1.2,6.4-4.4,7.2l-44.7,10.5c-3.2,0.8-6.4-1.2-7.2-4.4l0,0
			c-0.8-3.2,1.2-6.4,4.4-7.2L97.6,753C100.8,752.2,104,754.2,104.8,757.4z"/>
		<path class="st0" d="M132.4,710.9c-1.5-0.5-2.9-1-4.4-1.5c-3.5-1.2-7-2.3-10.5-3.5c-1.2-0.4-2.5-0.8-3.7-1.3
			c0.2-0.6,0.4-1.3,0.7-1.9c1.1-3.3,2.2-6.7,3.4-10c0.5-1.6,1.1-3.2,1.6-4.8c0,0,0,0,0-0.1c0.6-1.7-0.4-3.7-2.1-4.2
			c-1.7-0.5-3.6,0.3-4.2,2.1c-0.4,1.3-0.9,2.7-1.3,4c-1.1,3.2-2.2,6.4-3.2,9.6c-0.4,1.1-0.7,2.2-1.1,3.3c-0.9-0.3-1.7-0.6-2.6-0.9
			c-3.6-1.2-7.3-2.5-10.9-3.7c-1.8-0.6-3.5-1.2-5.3-1.8c0,0-0.1,0-0.1,0c-1.7-0.6-3.7,0.4-4.2,2.1c-0.5,1.7,0.3,3.6,2.1,4.2
			c1.5,0.5,2.9,1,4.4,1.5c3.5,1.2,7,2.3,10.5,3.5c1.3,0.5,2.7,0.9,4.1,1.4c-0.2,0.6-0.4,1.3-0.7,1.9c-1.1,3.3-2.2,6.7-3.4,10
			c-0.5,1.6-1.1,3.2-1.6,4.8c0,0,0,0,0,0.1c-0.6,1.7,0.4,3.7,2.1,4.2c1.7,0.5,3.6-0.3,4.2-2.1c0.4-1.3,0.9-2.7,1.3-4
			c1.1-3.2,2.2-6.4,3.2-9.6c0.4-1.1,0.7-2.2,1.1-3.3c0.8,0.3,1.5,0.5,2.3,0.8c3.6,1.2,7.3,2.5,10.9,3.7c1.8,0.6,3.5,1.2,5.3,1.8
			c0,0,0.1,0,0.1,0c1.7,0.6,3.7-0.4,4.2-2.1C135,713.4,134.2,711.5,132.4,710.9z"/>
		<path class="st0" d="M226.8,653.3c0.7-1.4,1.3-2.8,2-4.2c1.6-3.3,3.2-6.7,4.8-10c0.6-1.2,1.1-2.4,1.7-3.5c0.6,0.3,1.2,0.6,1.8,0.9
			c3.2,1.5,6.4,3,9.5,4.5c1.5,0.7,3.1,1.5,4.6,2.2c0,0,0,0,0.1,0c1.6,0.8,3.8,0.1,4.4-1.6c0.7-1.7,0.1-3.6-1.6-4.5
			c-1.3-0.6-2.5-1.2-3.8-1.8c-3-1.5-6.1-2.9-9.1-4.3c-1-0.5-2.1-1-3.1-1.5c0.4-0.8,0.8-1.7,1.2-2.5c1.7-3.5,3.3-6.9,5-10.4
			c0.8-1.7,1.6-3.4,2.4-5c0,0,0,0,0-0.1c0.8-1.6,0.1-3.8-1.6-4.5c-1.7-0.7-3.6-0.1-4.4,1.6c-0.7,1.4-1.3,2.8-2,4.2
			c-1.6,3.3-3.2,6.7-4.8,10c-0.6,1.3-1.2,2.6-1.8,3.8c-0.6-0.3-1.2-0.6-1.8-0.9c-3.2-1.5-6.4-3-9.5-4.5c-1.5-0.7-3.1-1.5-4.6-2.2
			c0,0,0,0-0.1,0c-1.6-0.8-3.8-0.1-4.4,1.6c-0.7,1.7-0.1,3.6,1.6,4.5c1.3,0.6,2.5,1.2,3.8,1.8c3,1.5,6.1,2.9,9.1,4.3
			c1,0.5,2.1,1,3.1,1.5c-0.3,0.7-0.7,1.4-1,2.2c-1.7,3.5-3.3,6.9-5,10.4c-0.8,1.7-1.6,3.4-2.4,5c0,0,0,0,0,0.1
			c-0.8,1.6-0.1,3.8,1.6,4.5C224,655.6,226,655,226.8,653.3z"/>
	</g>
</g>
<g>
	<g>
		<path class="st0" d="M266.1,689.7c0-0.2,0-0.4,0-0.6c0,0.4,0,0.9,0.1,1.3c-0.2-3.2,0-6.5,0.5-9.7c0.2-1.4,0.4-2.8,0.7-4.2
			c-0.1,0.4-0.2,0.8-0.3,1.3c0.9-4.5,2.4-8.9,4.4-13c-0.2,0.4-0.4,0.8-0.6,1.2c1.8-3.6,4-7,6.7-10.1c-0.3,0.3-0.6,0.7-0.9,1
			c2.7-3.1,5.8-5.8,9.2-8c-0.4,0.3-0.8,0.5-1.1,0.8c4-2.7,8.4-4.7,13-6.2c-0.4,0.1-0.9,0.3-1.3,0.4c3.7-1.2,7.5-2.1,11.4-2.7
			c2.6-0.4,4.6-3.3,4-5.9c-0.6-2.7-3.1-4.5-5.9-4c-8.7,1.4-17.4,4.1-24.9,8.9c-6.2,4-11.6,9-15.7,15.1c-3.2,4.8-5.6,10.3-7.2,15.9
			c-1.2,4.4-2,8.9-2.3,13.4c-0.1,2.3-0.2,4.7,0.1,7.1c0,0,0,0,0,0.1c0.1,1.2,1.2,2.6,2.1,3.3c1,0.7,2.5,1,3.7,0.8
			c1.3-0.3,2.6-1,3.3-2.2C266,692.2,266.2,691,266.1,689.7L266.1,689.7z"/>
		<path class="st0" d="M451.3,705.7c0.2,0,0.4,0,0.6,0c-0.4,0-0.9,0-1.3,0c3.2,0,6.5,0.3,9.6,0.9c1.4,0.3,2.8,0.6,4.2,0.9
			c-0.4-0.1-0.8-0.2-1.3-0.3c4.5,1.2,8.8,2.8,12.8,5c-0.4-0.2-0.8-0.4-1.1-0.6c3.5,2,6.8,4.4,9.7,7.2c-0.3-0.3-0.6-0.6-0.9-0.9
			c2.9,2.8,5.5,6,7.6,9.5c-0.2-0.4-0.5-0.8-0.7-1.2c2.5,4.2,4.3,8.7,5.6,13.3c-0.1-0.4-0.2-0.9-0.4-1.3c1,3.8,1.7,7.6,2.2,11.5
			c0.3,2.6,3,4.8,5.7,4.3c2.7-0.5,4.6-2.9,4.3-5.7c-1-8.7-3.3-17.6-7.7-25.3c-3.6-6.4-8.4-12-14.4-16.3c-4.7-3.4-10-6.1-15.5-7.9
			c-4.3-1.4-8.8-2.4-13.3-2.9c-2.3-0.3-4.7-0.4-7.1-0.3c0,0,0,0-0.1,0c-1.2,0-2.7,1-3.4,2c-0.7,1-1.2,2.5-0.9,3.7
			c0.2,1.3,0.9,2.6,2,3.4C448.7,705.5,449.9,705.8,451.3,705.7L451.3,705.7z"/>
		<path class="st0" d="M406.2,581.5L406.2,581.5c3.3,0.3,5.7,3.2,5.5,6.4l-3.7,45.8c-0.3,3.3-3.1,5.7-6.4,5.5l0,0
			c-3.3-0.3-5.7-3.2-5.5-6.4l3.7-45.8C400.1,583.7,403,581.2,406.2,581.5z"/>
		<path class="st0" d="M360.8,757.4L360.8,757.4c0.8,3.2-1.2,6.4-4.4,7.2l-44.7,10.5c-3.2,0.8-6.4-1.2-7.2-4.4l0,0
			c-0.8-3.2,1.2-6.4,4.4-7.2l44.7-10.5C356.8,752.2,360,754.2,360.8,757.4z"/>
		<path class="st0" d="M388.4,710.9c-1.5-0.5-2.9-1-4.4-1.5c-3.5-1.2-7-2.3-10.5-3.5c-1.2-0.4-2.5-0.8-3.7-1.3
			c0.2-0.6,0.4-1.3,0.6-1.9c1.1-3.3,2.2-6.7,3.4-10c0.5-1.6,1.1-3.2,1.6-4.8c0,0,0,0,0-0.1c0.6-1.7-0.4-3.7-2.1-4.2
			c-1.7-0.5-3.6,0.3-4.2,2.1c-0.5,1.3-0.9,2.7-1.3,4c-1.1,3.2-2.1,6.4-3.2,9.6c-0.4,1.1-0.7,2.2-1.1,3.3c-0.9-0.3-1.7-0.6-2.6-0.9
			c-3.6-1.2-7.3-2.5-10.9-3.7c-1.8-0.6-3.5-1.2-5.3-1.8c0,0,0,0-0.1,0c-1.6-0.6-3.7,0.4-4.2,2.1c-0.5,1.7,0.3,3.6,2.1,4.2
			c1.5,0.5,2.9,1,4.4,1.5c3.5,1.2,7,2.3,10.5,3.5c1.4,0.5,2.7,0.9,4,1.4c-0.2,0.6-0.4,1.3-0.6,1.9c-1.1,3.3-2.2,6.7-3.4,10
			c-0.5,1.6-1.1,3.2-1.6,4.8c0,0,0,0,0,0.1c-0.6,1.7,0.4,3.7,2.1,4.2c1.7,0.5,3.6-0.3,4.2-2.1c0.5-1.3,0.9-2.7,1.3-4
			c1.1-3.2,2.1-6.4,3.2-9.6c0.4-1.1,0.7-2.2,1.1-3.3c0.8,0.3,1.5,0.5,2.3,0.8c3.6,1.2,7.3,2.5,10.9,3.7c1.8,0.6,3.5,1.2,5.3,1.8
			c0,0,0,0,0.1,0c1.7,0.6,3.7-0.4,4.2-2.1C391,713.4,390.2,711.5,388.4,710.9z"/>
		<path class="st0" d="M482.8,653.3c0.7-1.4,1.3-2.8,2-4.2c1.6-3.3,3.2-6.7,4.8-10c0.6-1.2,1.1-2.4,1.7-3.5c0.6,0.3,1.2,0.6,1.8,0.9
			c3.2,1.5,6.4,3,9.5,4.5c1.5,0.7,3.1,1.5,4.6,2.2c0,0,0,0,0.1,0c1.6,0.8,3.8,0.1,4.5-1.6c0.7-1.7,0.1-3.6-1.6-4.5
			c-1.3-0.6-2.5-1.2-3.8-1.8c-3-1.5-6.1-2.9-9.1-4.3c-1-0.5-2.1-1-3.1-1.5c0.4-0.8,0.8-1.7,1.2-2.5c1.7-3.5,3.3-6.9,5-10.4
			c0.8-1.7,1.6-3.4,2.4-5c0,0,0,0,0-0.1c0.8-1.6,0.1-3.8-1.6-4.5c-1.7-0.7-3.6-0.1-4.5,1.6c-0.7,1.4-1.3,2.8-2,4.2
			c-1.6,3.3-3.2,6.7-4.8,10c-0.6,1.3-1.2,2.6-1.8,3.8c-0.6-0.3-1.2-0.6-1.8-0.9c-3.2-1.5-6.4-3-9.5-4.5c-1.5-0.7-3.1-1.5-4.6-2.2
			c0,0,0,0-0.1,0c-1.6-0.8-3.8-0.1-4.5,1.6c-0.7,1.7-0.1,3.6,1.6,4.5c1.3,0.6,2.5,1.2,3.8,1.8c3,1.5,6.1,2.9,9.1,4.3
			c1,0.5,2.1,1,3.1,1.5c-0.3,0.7-0.7,1.4-1,2.2c-1.7,3.5-3.3,6.9-5,10.4c-0.8,1.7-1.6,3.4-2.4,5c0,0,0,0,0,0.1
			c-0.8,1.6-0.1,3.8,1.6,4.5C480,655.6,482,655,482.8,653.3z"/>
	</g>
</g>
<g>
	<g>
		<path class="st0" d="M522.1,108.2c0-0.2,0-0.4,0-0.6c0,0.4,0,0.9,0.1,1.3c-0.2-3.2,0-6.5,0.5-9.7c0.2-1.4,0.4-2.8,0.7-4.2
			c-0.1,0.4-0.2,0.8-0.3,1.3c0.9-4.5,2.4-8.9,4.4-13c-0.2,0.4-0.4,0.8-0.6,1.2c1.8-3.6,4-7,6.7-10.1c-0.3,0.3-0.6,0.7-0.9,1
			c2.7-3.1,5.8-5.8,9.2-8c-0.4,0.3-0.8,0.5-1.1,0.8c4-2.7,8.4-4.7,13-6.2c-0.4,0.1-0.9,0.3-1.3,0.4c3.7-1.2,7.5-2.1,11.3-2.7
			c2.6-0.4,4.6-3.3,4-5.9c-0.6-2.7-3.1-4.5-5.9-4c-8.7,1.4-17.4,4.1-24.9,8.9c-6.2,4-11.6,9-15.7,15.1c-3.2,4.8-5.6,10.3-7.2,15.9
			c-1.2,4.4-2,8.9-2.3,13.4c-0.1,2.3-0.2,4.7,0.1,7.1c0,0,0,0.1,0,0.1c0.1,1.2,1.2,2.6,2.2,3.3c1,0.7,2.5,1,3.7,0.8
			c1.3-0.3,2.6-1,3.3-2.2C522,110.8,522.2,109.6,522.1,108.2L522.1,108.2z"/>
		<path class="st0" d="M707.3,124.2c0.2,0,0.4,0,0.6,0c-0.4,0-0.9,0-1.3,0c3.2,0,6.5,0.3,9.6,0.9c1.4,0.3,2.8,0.6,4.2,0.9
			c-0.4-0.1-0.8-0.2-1.3-0.3c4.5,1.2,8.8,2.8,12.8,5c-0.4-0.2-0.8-0.4-1.1-0.6c3.5,2,6.8,4.4,9.7,7.2c-0.3-0.3-0.6-0.6-0.9-0.9
			c2.9,2.8,5.5,6.1,7.6,9.6c-0.2-0.4-0.5-0.8-0.7-1.2c2.5,4.1,4.3,8.6,5.6,13.3c-0.1-0.4-0.2-0.9-0.4-1.3c1,3.8,1.7,7.6,2.2,11.5
			c0.3,2.6,3,4.8,5.7,4.3c2.7-0.5,4.6-2.9,4.3-5.7c-1-8.7-3.3-17.6-7.7-25.3c-3.7-6.4-8.4-12-14.4-16.3c-4.7-3.4-10-6.1-15.5-7.9
			c-4.3-1.4-8.8-2.4-13.3-2.9c-2.3-0.3-4.7-0.4-7.1-0.3c0,0,0,0-0.1,0c-1.2,0.1-2.7,1-3.4,2c-0.7,1-1.2,2.5-0.9,3.7
			c0.2,1.3,0.9,2.6,2,3.4C704.7,124.1,705.9,124.3,707.3,124.2L707.3,124.2z"/>
		<path class="st0" d="M662.2,0L662.2,0c3.3,0.3,5.7,3.2,5.5,6.4L664,52.2c-0.3,3.3-3.2,5.7-6.4,5.5l0,0c-3.3-0.3-5.7-3.2-5.5-6.4
			l3.7-45.8C656.1,2.2,659-0.3,662.2,0z"/>
		<path class="st0" d="M616.8,176L616.8,176c0.8,3.2-1.2,6.4-4.4,7.2l-44.7,10.5c-3.2,0.8-6.4-1.2-7.2-4.4l0,0
			c-0.8-3.2,1.2-6.4,4.4-7.2l44.7-10.5C612.8,170.8,616,172.8,616.8,176z"/>
		<path class="st0" d="M644.4,129.5c-1.5-0.5-2.9-1-4.4-1.5c-3.5-1.2-7-2.3-10.5-3.5c-1.2-0.4-2.5-0.8-3.7-1.3
			c0.2-0.6,0.4-1.3,0.7-1.9c1.1-3.3,2.2-6.7,3.4-10c0.5-1.6,1.1-3.2,1.6-4.8c0,0,0,0,0-0.1c0.6-1.7-0.4-3.7-2.1-4.2
			c-1.7-0.5-3.6,0.3-4.2,2.1c-0.5,1.3-0.9,2.7-1.3,4c-1.1,3.2-2.2,6.4-3.2,9.6c-0.4,1.1-0.7,2.2-1.1,3.3c-0.9-0.3-1.7-0.6-2.6-0.9
			c-3.6-1.2-7.3-2.4-10.9-3.7c-1.8-0.6-3.5-1.2-5.3-1.8c0,0,0,0-0.1,0c-1.7-0.6-3.7,0.4-4.2,2.1c-0.5,1.7,0.3,3.6,2.1,4.2
			c1.5,0.5,2.9,1,4.4,1.5c3.5,1.2,7,2.3,10.5,3.5c1.3,0.4,2.7,0.9,4,1.4c-0.2,0.6-0.4,1.3-0.7,1.9c-1.1,3.3-2.2,6.7-3.4,10
			c-0.5,1.6-1.1,3.2-1.6,4.9c0,0,0,0,0,0.1c-0.6,1.6,0.4,3.7,2.1,4.2c1.7,0.5,3.6-0.3,4.2-2.1c0.5-1.3,0.9-2.7,1.3-4
			c1.1-3.2,2.2-6.4,3.2-9.6c0.4-1.1,0.7-2.2,1.1-3.3c0.8,0.3,1.5,0.5,2.3,0.8c3.6,1.2,7.3,2.4,10.9,3.7c1.8,0.6,3.5,1.2,5.3,1.8
			c0,0,0,0,0.1,0c1.7,0.6,3.7-0.4,4.2-2.1C647,131.9,646.2,130.1,644.4,129.5z"/>
		<path class="st0" d="M738.8,71.8c0.7-1.4,1.3-2.8,2-4.2c1.6-3.3,3.2-6.7,4.8-10c0.6-1.2,1.1-2.4,1.7-3.5c0.6,0.3,1.2,0.6,1.8,0.9
			c3.2,1.5,6.3,3,9.5,4.5c1.5,0.7,3.1,1.5,4.6,2.2c0,0,0,0,0.1,0c1.6,0.8,3.8,0.1,4.5-1.6c0.7-1.7,0.1-3.6-1.6-4.5
			c-1.3-0.6-2.5-1.2-3.8-1.8c-3-1.5-6.1-2.9-9.1-4.3c-1-0.5-2.1-1-3.1-1.5c0.4-0.8,0.8-1.7,1.2-2.5c1.7-3.5,3.3-6.9,5-10.4
			c0.8-1.7,1.6-3.4,2.4-5c0,0,0,0,0-0.1c0.8-1.6,0.1-3.8-1.6-4.5c-1.7-0.7-3.6-0.1-4.5,1.6c-0.7,1.4-1.3,2.8-2,4.2
			c-1.6,3.3-3.2,6.7-4.8,10c-0.6,1.3-1.2,2.6-1.8,3.8c-0.6-0.3-1.2-0.6-1.8-0.9c-3.2-1.5-6.3-3-9.5-4.5c-1.5-0.7-3.1-1.5-4.6-2.2
			c0,0,0,0-0.1,0c-1.6-0.8-3.8-0.1-4.5,1.6c-0.7,1.7-0.1,3.6,1.6,4.5c1.3,0.6,2.5,1.2,3.8,1.8c3,1.5,6.1,2.9,9.1,4.3
			c1,0.5,2.1,1,3.1,1.5c-0.3,0.7-0.7,1.4-1,2.2c-1.7,3.5-3.3,6.9-5,10.4c-0.8,1.7-1.6,3.4-2.4,5.1c0,0,0,0.1,0,0.1
			c-0.8,1.6-0.1,3.8,1.6,4.4C736,74.1,738,73.5,738.8,71.8z"/>
	</g>
</g>
<g>
	<g>
		<path class="st0" d="M778.1,108.2c0-0.2,0-0.4,0-0.6c0,0.4,0,0.9,0.1,1.3c-0.2-3.2,0-6.5,0.5-9.7c0.2-1.4,0.4-2.8,0.7-4.2
			c-0.1,0.4-0.2,0.8-0.3,1.3c0.9-4.5,2.4-8.9,4.4-13c-0.2,0.4-0.4,0.8-0.6,1.2c1.8-3.6,4-7,6.7-10.1c-0.3,0.3-0.6,0.7-0.9,1
			c2.7-3.1,5.8-5.8,9.2-8c-0.4,0.3-0.8,0.5-1.1,0.8c4-2.7,8.4-4.7,13-6.2c-0.4,0.1-0.9,0.3-1.3,0.4c3.7-1.2,7.5-2.1,11.3-2.7
			c2.6-0.4,4.6-3.3,4-5.9c-0.6-2.7-3.1-4.5-5.9-4c-8.7,1.4-17.4,4.1-24.9,8.9c-6.2,4-11.6,9-15.7,15.1c-3.2,4.8-5.6,10.3-7.2,15.9
			c-1.2,4.4-2,8.9-2.3,13.4c-0.1,2.3-0.2,4.7,0.1,7.1c0,0,0,0.1,0,0.1c0.1,1.2,1.2,2.6,2.2,3.3c1,0.7,2.5,1,3.7,0.8
			c1.3-0.3,2.6-1,3.3-2.2C778,110.8,778.2,109.6,778.1,108.2L778.1,108.2z"/>
		<path class="st0" d="M963.3,124.2c0.2,0,0.4,0,0.6,0c-0.4,0-0.9,0-1.3,0c3.2,0,6.5,0.3,9.6,0.9c1.4,0.3,2.8,0.6,4.2,0.9
			c-0.4-0.1-0.8-0.2-1.3-0.3c4.5,1.2,8.8,2.8,12.8,5c-0.4-0.2-0.8-0.4-1.1-0.6c3.5,2,6.8,4.4,9.7,7.2c-0.3-0.3-0.6-0.6-0.9-0.9
			c2.9,2.8,5.5,6.1,7.6,9.6c-0.2-0.4-0.5-0.8-0.7-1.2c2.5,4.1,4.3,8.6,5.6,13.3c-0.1-0.4-0.2-0.9-0.4-1.3c1,3.8,1.7,7.6,2.2,11.5
			c0.3,2.6,3,4.8,5.7,4.3c2.7-0.5,4.6-2.9,4.3-5.7c-1-8.7-3.3-17.6-7.7-25.3c-3.7-6.4-8.4-12-14.4-16.3c-4.7-3.4-10-6.1-15.5-7.9
			c-4.3-1.4-8.8-2.4-13.3-2.9c-2.3-0.3-4.7-0.4-7.1-0.3c0,0,0,0-0.1,0c-1.2,0.1-2.7,1-3.4,2c-0.7,1-1.2,2.5-0.9,3.7
			c0.2,1.3,0.9,2.6,2,3.4C960.7,124.1,961.9,124.3,963.3,124.2L963.3,124.2z"/>
		<path class="st0" d="M918.2,0L918.2,0c3.3,0.3,5.7,3.2,5.5,6.4L920,52.2c-0.3,3.3-3.2,5.7-6.4,5.5l0,0c-3.3-0.3-5.7-3.2-5.5-6.4
			l3.7-45.8C912.1,2.2,915-0.3,918.2,0z"/>
		<path class="st0" d="M872.8,176L872.8,176c0.8,3.2-1.2,6.4-4.4,7.2l-44.7,10.5c-3.2,0.8-6.4-1.2-7.2-4.4l0,0
			c-0.8-3.2,1.2-6.4,4.4-7.2l44.7-10.5C868.8,170.8,872,172.8,872.8,176z"/>
		<path class="st0" d="M900.4,129.5c-1.5-0.5-2.9-1-4.4-1.5c-3.5-1.2-7-2.3-10.5-3.5c-1.2-0.4-2.5-0.8-3.7-1.3
			c0.2-0.6,0.4-1.3,0.7-1.9c1.1-3.3,2.2-6.7,3.4-10c0.5-1.6,1.1-3.2,1.6-4.8c0,0,0,0,0-0.1c0.6-1.7-0.4-3.7-2.1-4.2
			c-1.7-0.5-3.6,0.3-4.2,2.1c-0.5,1.3-0.9,2.7-1.3,4c-1.1,3.2-2.2,6.4-3.2,9.6c-0.4,1.1-0.7,2.2-1.1,3.3c-0.9-0.3-1.7-0.6-2.6-0.9
			c-3.6-1.2-7.3-2.4-10.9-3.7c-1.8-0.6-3.5-1.2-5.3-1.8c0,0,0,0-0.1,0c-1.7-0.6-3.7,0.4-4.2,2.1c-0.5,1.7,0.3,3.6,2.1,4.2
			c1.5,0.5,2.9,1,4.4,1.5c3.5,1.2,7,2.3,10.5,3.5c1.3,0.4,2.7,0.9,4,1.4c-0.2,0.6-0.4,1.3-0.7,1.9c-1.1,3.3-2.2,6.7-3.4,10
			c-0.5,1.6-1.1,3.2-1.6,4.9c0,0,0,0,0,0.1c-0.6,1.6,0.4,3.7,2.1,4.2c1.7,0.5,3.6-0.3,4.2-2.1c0.5-1.3,0.9-2.7,1.3-4
			c1.1-3.2,2.2-6.4,3.2-9.6c0.4-1.1,0.7-2.2,1.1-3.3c0.8,0.3,1.5,0.5,2.3,0.8c3.6,1.2,7.3,2.4,10.9,3.7c1.8,0.6,3.5,1.2,5.3,1.8
			c0,0,0,0,0.1,0c1.7,0.6,3.7-0.4,4.2-2.1C903,131.9,902.2,130.1,900.4,129.5z"/>
		<path class="st0" d="M994.8,71.8c0.7-1.4,1.3-2.8,2-4.2c1.6-3.3,3.2-6.7,4.8-10c0.6-1.2,1.1-2.4,1.7-3.5c0.6,0.3,1.2,0.6,1.8,0.9
			c3.2,1.5,6.3,3,9.5,4.5c1.5,0.7,3.1,1.5,4.6,2.2c0,0,0,0,0.1,0c1.6,0.8,3.8,0.1,4.5-1.6c0.7-1.7,0.1-3.6-1.6-4.5
			c-1.3-0.6-2.5-1.2-3.8-1.8c-3-1.5-6.1-2.9-9.1-4.3c-1-0.5-2.1-1-3.1-1.5c0.4-0.8,0.8-1.7,1.2-2.5c1.7-3.5,3.3-6.9,5-10.4
			c0.8-1.7,1.6-3.4,2.4-5c0,0,0,0,0-0.1c0.8-1.6,0.1-3.8-1.6-4.5c-1.7-0.7-3.6-0.1-4.5,1.6c-0.7,1.4-1.3,2.8-2,4.2
			c-1.6,3.3-3.2,6.7-4.8,10c-0.6,1.3-1.2,2.6-1.8,3.8c-0.6-0.3-1.2-0.6-1.8-0.9c-3.2-1.5-6.3-3-9.5-4.5c-1.5-0.7-3.1-1.5-4.6-2.2
			c0,0,0,0-0.1,0c-1.6-0.8-3.8-0.1-4.5,1.6c-0.7,1.7-0.1,3.6,1.6,4.5c1.3,0.6,2.5,1.2,3.8,1.8c3,1.5,6.1,2.9,9.1,4.3
			c1,0.5,2.1,1,3.1,1.5c-0.3,0.7-0.7,1.4-1,2.2c-1.7,3.5-3.3,6.9-5,10.4c-0.8,1.7-1.6,3.4-2.4,5.1c0,0,0,0.1,0,0.1
			c-0.8,1.6-0.1,3.8,1.6,4.4C992,74.1,994,73.5,994.8,71.8z"/>
	</g>
</g>
<g>
	<g>
		<path class="st0" d="M522.1,302c0-0.2,0-0.4,0-0.6c0,0.4,0,0.9,0.1,1.3c-0.2-3.2,0-6.5,0.5-9.7c0.2-1.4,0.4-2.8,0.7-4.2
			c-0.1,0.4-0.2,0.8-0.3,1.3c0.9-4.5,2.4-8.9,4.4-13c-0.2,0.4-0.4,0.8-0.6,1.1c1.8-3.6,4-7,6.7-10.1c-0.3,0.3-0.6,0.7-0.9,1
			c2.7-3.1,5.8-5.8,9.2-8c-0.4,0.3-0.8,0.5-1.1,0.8c4-2.7,8.4-4.7,13-6.2c-0.4,0.1-0.9,0.3-1.3,0.4c3.7-1.2,7.5-2.1,11.3-2.7
			c2.6-0.4,4.6-3.3,4-5.9c-0.6-2.7-3.1-4.5-5.9-4c-8.7,1.4-17.4,4.1-24.9,8.9c-6.2,4-11.6,9-15.7,15.1c-3.2,4.8-5.6,10.3-7.2,15.9
			c-1.2,4.4-2,8.9-2.3,13.4c-0.1,2.3-0.2,4.7,0.1,7.1c0,0,0,0,0,0.1c0.1,1.2,1.2,2.6,2.2,3.3c1,0.7,2.5,1,3.7,0.8
			c1.3-0.3,2.6-1,3.3-2.1C522,304.6,522.2,303.4,522.1,302L522.1,302z"/>
		<path class="st0" d="M707.3,318c0.2,0,0.4,0,0.6,0c-0.4,0-0.9,0-1.3,0c3.2,0,6.5,0.4,9.6,0.9c1.4,0.3,2.8,0.6,4.2,0.9
			c-0.4-0.1-0.8-0.2-1.3-0.3c4.5,1.1,8.8,2.8,12.8,5c-0.4-0.2-0.8-0.4-1.1-0.6c3.5,2,6.8,4.4,9.7,7.2c-0.3-0.3-0.6-0.6-0.9-0.9
			c2.9,2.8,5.5,6,7.6,9.5c-0.2-0.4-0.5-0.8-0.7-1.2c2.5,4.1,4.3,8.6,5.6,13.3c-0.1-0.4-0.2-0.9-0.4-1.3c1,3.8,1.7,7.6,2.2,11.5
			c0.3,2.6,3,4.8,5.7,4.3c2.7-0.5,4.6-2.9,4.3-5.7c-1-8.7-3.3-17.6-7.7-25.3c-3.7-6.4-8.4-12-14.4-16.4c-4.7-3.4-10-6.1-15.5-7.9
			c-4.3-1.4-8.8-2.4-13.3-2.9c-2.3-0.3-4.7-0.4-7.1-0.3c0,0,0,0-0.1,0c-1.2,0-2.7,1-3.4,2c-0.7,1-1.2,2.5-0.9,3.7
			c0.2,1.3,0.9,2.6,2,3.4C704.7,317.9,705.9,318.1,707.3,318L707.3,318z"/>
		<path class="st0" d="M662.2,193.8L662.2,193.8c3.3,0.3,5.7,3.1,5.5,6.4L664,246c-0.3,3.3-3.2,5.7-6.4,5.5l0,0
			c-3.3-0.3-5.7-3.1-5.5-6.4l3.7-45.8C656.1,196,659,193.6,662.2,193.8z"/>
		<path class="st0" d="M616.8,369.8L616.8,369.8c0.8,3.2-1.2,6.4-4.4,7.2l-44.7,10.5c-3.2,0.8-6.4-1.2-7.2-4.4l0,0
			c-0.8-3.2,1.2-6.4,4.4-7.2l44.7-10.5C612.8,364.6,616,366.6,616.8,369.8z"/>
		<path class="st0" d="M644.4,323.3c-1.5-0.5-2.9-1-4.4-1.5c-3.5-1.2-7-2.4-10.5-3.5c-1.2-0.4-2.5-0.8-3.7-1.3
			c0.2-0.6,0.4-1.3,0.7-1.9c1.1-3.3,2.2-6.7,3.4-10c0.5-1.6,1.1-3.2,1.6-4.9c0,0,0,0,0-0.1c0.6-1.6-0.4-3.7-2.1-4.2
			c-1.7-0.5-3.6,0.3-4.2,2.1c-0.5,1.3-0.9,2.7-1.3,4c-1.1,3.2-2.2,6.4-3.2,9.6c-0.4,1.1-0.7,2.2-1.1,3.3c-0.9-0.3-1.7-0.6-2.6-0.9
			c-3.6-1.2-7.3-2.5-10.9-3.7c-1.8-0.6-3.5-1.2-5.3-1.8c0,0,0,0-0.1,0c-1.7-0.6-3.7,0.4-4.2,2.1c-0.5,1.7,0.3,3.6,2.1,4.2
			c1.5,0.5,2.9,1,4.4,1.5c3.5,1.2,7,2.4,10.5,3.5c1.3,0.5,2.7,0.9,4,1.4c-0.2,0.6-0.4,1.3-0.7,1.9c-1.1,3.3-2.2,6.7-3.4,10
			c-0.5,1.6-1.1,3.2-1.6,4.9c0,0,0,0,0,0.1c-0.6,1.6,0.4,3.7,2.1,4.2c1.7,0.5,3.6-0.3,4.2-2.1c0.5-1.3,0.9-2.7,1.3-4
			c1.1-3.2,2.2-6.4,3.2-9.6c0.4-1.1,0.7-2.2,1.1-3.3c0.8,0.3,1.5,0.5,2.3,0.8c3.6,1.2,7.3,2.5,10.9,3.7c1.8,0.6,3.5,1.2,5.3,1.8
			c0,0,0,0,0.1,0c1.7,0.6,3.7-0.4,4.2-2.1C647,325.8,646.2,323.9,644.4,323.3z"/>
		<path class="st0" d="M738.8,265.6c0.7-1.4,1.3-2.8,2-4.2c1.6-3.3,3.2-6.7,4.8-10c0.6-1.2,1.1-2.4,1.7-3.5c0.6,0.3,1.2,0.6,1.8,0.9
			c3.2,1.5,6.3,3,9.5,4.6c1.5,0.7,3.1,1.5,4.6,2.2c0,0,0,0,0.1,0c1.6,0.8,3.8,0.1,4.5-1.6c0.7-1.7,0.1-3.6-1.6-4.4
			c-1.3-0.6-2.5-1.2-3.8-1.8c-3-1.4-6.1-2.9-9.1-4.4c-1-0.5-2.1-1-3.1-1.5c0.4-0.8,0.8-1.6,1.2-2.5c1.7-3.5,3.3-6.9,5-10.4
			c0.8-1.7,1.6-3.4,2.4-5.1c0,0,0-0.1,0-0.1c0.8-1.6,0.1-3.8-1.6-4.4c-1.7-0.7-3.6-0.1-4.5,1.6c-0.7,1.4-1.3,2.8-2,4.2
			c-1.6,3.3-3.2,6.7-4.8,10c-0.6,1.3-1.2,2.6-1.8,3.9c-0.6-0.3-1.2-0.6-1.8-0.9c-3.2-1.5-6.3-3-9.5-4.6c-1.5-0.7-3.1-1.5-4.6-2.2
			c0,0,0,0-0.1,0c-1.6-0.8-3.8-0.1-4.5,1.6c-0.7,1.7-0.1,3.6,1.6,4.4c1.3,0.6,2.5,1.2,3.8,1.8c3,1.4,6.1,2.9,9.1,4.4
			c1,0.5,2.1,1,3.1,1.5c-0.3,0.7-0.7,1.4-1,2.2c-1.7,3.5-3.3,6.9-5,10.4c-0.8,1.7-1.6,3.4-2.4,5c0,0,0,0,0,0.1
			c-0.8,1.6-0.1,3.8,1.6,4.5C736,267.9,738,267.3,738.8,265.6z"/>
	</g>
</g>
<g>
	<g>
		<path class="st0" d="M778.1,302c0-0.2,0-0.4,0-0.6c0,0.4,0,0.9,0.1,1.3c-0.2-3.2,0-6.5,0.5-9.7c0.2-1.4,0.4-2.8,0.7-4.2
			c-0.1,0.4-0.2,0.8-0.3,1.3c0.9-4.5,2.4-8.9,4.4-13c-0.2,0.4-0.4,0.8-0.6,1.1c1.8-3.6,4-7,6.7-10.1c-0.3,0.3-0.6,0.7-0.9,1
			c2.7-3.1,5.8-5.8,9.2-8c-0.4,0.3-0.8,0.5-1.1,0.8c4-2.7,8.4-4.7,13-6.2c-0.4,0.1-0.9,0.3-1.3,0.4c3.7-1.2,7.5-2.1,11.3-2.7
			c2.6-0.4,4.6-3.3,4-5.9c-0.6-2.7-3.1-4.5-5.9-4c-8.7,1.4-17.4,4.1-24.9,8.9c-6.2,4-11.6,9-15.7,15.1c-3.2,4.8-5.6,10.3-7.2,15.9
			c-1.2,4.4-2,8.9-2.3,13.4c-0.1,2.3-0.2,4.7,0.1,7.1c0,0,0,0,0,0.1c0.1,1.2,1.2,2.6,2.2,3.3c1,0.7,2.5,1,3.7,0.8
			c1.3-0.3,2.6-1,3.3-2.1C778,304.6,778.2,303.4,778.1,302L778.1,302z"/>
		<path class="st0" d="M963.3,318c0.2,0,0.4,0,0.6,0c-0.4,0-0.9,0-1.3,0c3.2,0,6.5,0.4,9.6,0.9c1.4,0.3,2.8,0.6,4.2,0.9
			c-0.4-0.1-0.8-0.2-1.3-0.3c4.5,1.1,8.8,2.8,12.8,5c-0.4-0.2-0.8-0.4-1.1-0.6c3.5,2,6.8,4.4,9.7,7.2c-0.3-0.3-0.6-0.6-0.9-0.9
			c2.9,2.8,5.5,6,7.6,9.5c-0.2-0.4-0.5-0.8-0.7-1.2c2.5,4.1,4.3,8.6,5.6,13.3c-0.1-0.4-0.2-0.9-0.4-1.3c1,3.8,1.7,7.6,2.2,11.5
			c0.3,2.6,3,4.8,5.7,4.3c2.7-0.5,4.6-2.9,4.3-5.7c-1-8.7-3.3-17.6-7.7-25.3c-3.7-6.4-8.4-12-14.4-16.4c-4.7-3.4-10-6.1-15.5-7.9
			c-4.3-1.4-8.8-2.4-13.3-2.9c-2.3-0.3-4.7-0.4-7.1-0.3c0,0,0,0-0.1,0c-1.2,0-2.7,1-3.4,2c-0.7,1-1.2,2.5-0.9,3.7
			c0.2,1.3,0.9,2.6,2,3.4C960.7,317.9,961.9,318.1,963.3,318L963.3,318z"/>
		<path class="st0" d="M918.2,193.8L918.2,193.8c3.3,0.3,5.7,3.1,5.5,6.4L920,246c-0.3,3.3-3.2,5.7-6.4,5.5l0,0
			c-3.3-0.3-5.7-3.1-5.5-6.4l3.7-45.8C912.1,196,915,193.6,918.2,193.8z"/>
		<path class="st0" d="M872.8,369.8L872.8,369.8c0.8,3.2-1.2,6.4-4.4,7.2l-44.7,10.5c-3.2,0.8-6.4-1.2-7.2-4.4l0,0
			c-0.8-3.2,1.2-6.4,4.4-7.2l44.7-10.5C868.8,364.6,872,366.6,872.8,369.8z"/>
		<path class="st0" d="M900.4,323.3c-1.5-0.5-2.9-1-4.4-1.5c-3.5-1.2-7-2.4-10.5-3.5c-1.2-0.4-2.5-0.8-3.7-1.3
			c0.2-0.6,0.4-1.3,0.7-1.9c1.1-3.3,2.2-6.7,3.4-10c0.5-1.6,1.1-3.2,1.6-4.9c0,0,0,0,0-0.1c0.6-1.6-0.4-3.7-2.1-4.2
			c-1.7-0.5-3.6,0.3-4.2,2.1c-0.5,1.3-0.9,2.7-1.3,4c-1.1,3.2-2.2,6.4-3.2,9.6c-0.4,1.1-0.7,2.2-1.1,3.3c-0.9-0.3-1.7-0.6-2.6-0.9
			c-3.6-1.2-7.3-2.5-10.9-3.7c-1.8-0.6-3.5-1.2-5.3-1.8c0,0,0,0-0.1,0c-1.7-0.6-3.7,0.4-4.2,2.1c-0.5,1.7,0.3,3.6,2.1,4.2
			c1.5,0.5,2.9,1,4.4,1.5c3.5,1.2,7,2.4,10.5,3.5c1.3,0.5,2.7,0.9,4,1.4c-0.2,0.6-0.4,1.3-0.7,1.9c-1.1,3.3-2.2,6.7-3.4,10
			c-0.5,1.6-1.1,3.2-1.6,4.9c0,0,0,0,0,0.1c-0.6,1.6,0.4,3.7,2.1,4.2c1.7,0.5,3.6-0.3,4.2-2.1c0.5-1.3,0.9-2.7,1.3-4
			c1.1-3.2,2.2-6.4,3.2-9.6c0.4-1.1,0.7-2.2,1.1-3.3c0.8,0.3,1.5,0.5,2.3,0.8c3.6,1.2,7.3,2.5,10.9,3.7c1.8,0.6,3.5,1.2,5.3,1.8
			c0,0,0,0,0.1,0c1.7,0.6,3.7-0.4,4.2-2.1C903,325.8,902.2,323.9,900.4,323.3z"/>
		<path class="st0" d="M994.8,265.6c0.7-1.4,1.3-2.8,2-4.2c1.6-3.3,3.2-6.7,4.8-10c0.6-1.2,1.1-2.4,1.7-3.5c0.6,0.3,1.2,0.6,1.8,0.9
			c3.2,1.5,6.3,3,9.5,4.6c1.5,0.7,3.1,1.5,4.6,2.2c0,0,0,0,0.1,0c1.6,0.8,3.8,0.1,4.5-1.6c0.7-1.7,0.1-3.6-1.6-4.4
			c-1.3-0.6-2.5-1.2-3.8-1.8c-3-1.4-6.1-2.9-9.1-4.4c-1-0.5-2.1-1-3.1-1.5c0.4-0.8,0.8-1.6,1.2-2.5c1.7-3.5,3.3-6.9,5-10.4
			c0.8-1.7,1.6-3.4,2.4-5.1c0,0,0-0.1,0-0.1c0.8-1.6,0.1-3.8-1.6-4.4c-1.7-0.7-3.6-0.1-4.5,1.6c-0.7,1.4-1.3,2.8-2,4.2
			c-1.6,3.3-3.2,6.7-4.8,10c-0.6,1.3-1.2,2.6-1.8,3.9c-0.6-0.3-1.2-0.6-1.8-0.9c-3.2-1.5-6.3-3-9.5-4.6c-1.5-0.7-3.1-1.5-4.6-2.2
			c0,0,0,0-0.1,0c-1.6-0.8-3.8-0.1-4.5,1.6c-0.7,1.7-0.1,3.6,1.6,4.4c1.3,0.6,2.5,1.2,3.8,1.8c3,1.4,6.1,2.9,9.1,4.4
			c1,0.5,2.1,1,3.1,1.5c-0.3,0.7-0.7,1.4-1,2.2c-1.7,3.5-3.3,6.9-5,10.4c-0.8,1.7-1.6,3.4-2.4,5c0,0,0,0,0,0.1
			c-0.8,1.6-0.1,3.8,1.6,4.5C992,267.9,994,267.3,994.8,265.6z"/>
	</g>
</g>
<g>
	<g>
		<path class="st0" d="M522.1,495.9c0-0.2,0-0.4,0-0.6c0,0.4,0,0.9,0.1,1.3c-0.2-3.2,0-6.5,0.5-9.7c0.2-1.4,0.4-2.8,0.7-4.2
			c-0.1,0.4-0.2,0.8-0.3,1.3c0.9-4.5,2.4-8.9,4.4-13c-0.2,0.4-0.4,0.8-0.6,1.1c1.8-3.6,4-7,6.7-10.1c-0.3,0.3-0.6,0.7-0.9,1
			c2.7-3.1,5.8-5.8,9.2-8c-0.4,0.3-0.8,0.5-1.1,0.8c4-2.7,8.4-4.7,13-6.2c-0.4,0.1-0.9,0.3-1.3,0.4c3.7-1.2,7.5-2.1,11.3-2.7
			c2.6-0.4,4.6-3.3,4-5.9c-0.6-2.7-3.1-4.5-5.9-4c-8.7,1.4-17.4,4.1-24.9,8.9c-6.2,4-11.6,9-15.7,15.1c-3.2,4.8-5.6,10.3-7.2,15.9
			c-1.2,4.4-2,8.9-2.3,13.4c-0.1,2.3-0.2,4.7,0.1,7.1c0,0,0,0,0,0.1c0.1,1.2,1.2,2.6,2.2,3.3c1,0.7,2.5,1,3.7,0.8
			c1.3-0.3,2.6-1,3.3-2.1C522,498.4,522.2,497.2,522.1,495.9L522.1,495.9z"/>
		<path class="st0" d="M707.3,511.9c0.2,0,0.4,0,0.6,0c-0.4,0-0.9,0-1.3,0c3.2,0,6.5,0.3,9.6,0.9c1.4,0.3,2.8,0.6,4.2,0.9
			c-0.4-0.1-0.8-0.2-1.3-0.3c4.5,1.2,8.8,2.8,12.8,5c-0.4-0.2-0.8-0.4-1.1-0.6c3.5,2,6.8,4.4,9.7,7.2c-0.3-0.3-0.6-0.6-0.9-0.9
			c2.9,2.8,5.5,6,7.6,9.5c-0.2-0.4-0.5-0.8-0.7-1.2c2.5,4.2,4.3,8.7,5.6,13.3c-0.1-0.4-0.2-0.9-0.4-1.3c1,3.8,1.7,7.6,2.2,11.5
			c0.3,2.6,3,4.8,5.7,4.3c2.7-0.5,4.6-2.9,4.3-5.7c-1-8.7-3.3-17.6-7.7-25.3c-3.7-6.4-8.4-12-14.4-16.3c-4.7-3.4-10-6.1-15.5-7.9
			c-4.3-1.4-8.8-2.4-13.3-2.9c-2.3-0.3-4.7-0.4-7.1-0.3c0,0,0,0-0.1,0c-1.2,0-2.7,1-3.4,2c-0.7,1-1.2,2.5-0.9,3.7
			c0.2,1.3,0.9,2.6,2,3.4C704.7,511.7,705.9,511.9,707.3,511.9L707.3,511.9z"/>
		<path class="st0" d="M662.2,387.7L662.2,387.7c3.3,0.3,5.7,3.1,5.5,6.4l-3.7,45.8c-0.3,3.3-3.2,5.7-6.4,5.5l0,0
			c-3.3-0.3-5.7-3.1-5.5-6.4l3.7-45.8C656.1,389.8,659,387.4,662.2,387.7z"/>
		<path class="st0" d="M616.8,563.6L616.8,563.6c0.8,3.2-1.2,6.4-4.4,7.2l-44.7,10.5c-3.2,0.8-6.4-1.2-7.2-4.4l0,0
			c-0.8-3.2,1.2-6.4,4.4-7.2l44.7-10.5C612.8,558.4,616,560.4,616.8,563.6z"/>
		<path class="st0" d="M644.4,517.1c-1.5-0.5-2.9-1-4.4-1.5c-3.5-1.2-7-2.3-10.5-3.5c-1.2-0.4-2.5-0.8-3.7-1.3
			c0.2-0.6,0.4-1.3,0.7-1.9c1.1-3.3,2.2-6.7,3.4-10c0.5-1.6,1.1-3.2,1.6-4.9c0,0,0,0,0-0.1c0.6-1.6-0.4-3.7-2.1-4.2
			c-1.7-0.5-3.6,0.3-4.2,2.1c-0.5,1.3-0.9,2.7-1.3,4c-1.1,3.2-2.2,6.4-3.2,9.6c-0.4,1.1-0.7,2.2-1.1,3.3c-0.9-0.3-1.7-0.6-2.6-0.9
			c-3.6-1.2-7.3-2.5-10.9-3.7c-1.8-0.6-3.5-1.2-5.3-1.8c0,0,0,0-0.1,0c-1.7-0.6-3.7,0.4-4.2,2.1c-0.5,1.7,0.3,3.6,2.1,4.2
			c1.5,0.5,2.9,1,4.4,1.5c3.5,1.2,7,2.4,10.5,3.5c1.3,0.5,2.7,0.9,4,1.4c-0.2,0.6-0.4,1.3-0.7,1.9c-1.1,3.3-2.2,6.7-3.4,10
			c-0.5,1.6-1.1,3.2-1.6,4.8c0,0,0,0,0,0.1c-0.6,1.7,0.4,3.7,2.1,4.2c1.7,0.5,3.6-0.3,4.2-2.1c0.5-1.3,0.9-2.7,1.3-4
			c1.1-3.2,2.2-6.4,3.2-9.6c0.4-1.1,0.7-2.2,1.1-3.3c0.8,0.3,1.5,0.5,2.3,0.8c3.6,1.2,7.3,2.5,10.9,3.7c1.8,0.6,3.5,1.2,5.3,1.8
			c0,0,0,0,0.1,0c1.7,0.6,3.7-0.4,4.2-2.1C647,519.6,646.2,517.7,644.4,517.1z"/>
		<path class="st0" d="M738.8,459.5c0.7-1.4,1.3-2.8,2-4.2c1.6-3.3,3.2-6.7,4.8-10c0.6-1.2,1.1-2.4,1.7-3.5c0.6,0.3,1.2,0.6,1.8,0.9
			c3.2,1.5,6.3,3,9.5,4.5c1.5,0.7,3.1,1.5,4.6,2.2c0,0,0,0,0.1,0c1.6,0.8,3.8,0.1,4.5-1.6c0.7-1.7,0.1-3.6-1.6-4.5
			c-1.3-0.6-2.5-1.2-3.8-1.8c-3-1.5-6.1-2.9-9.1-4.4c-1-0.5-2.1-1-3.1-1.5c0.4-0.8,0.8-1.6,1.2-2.5c1.7-3.5,3.3-6.9,5-10.4
			c0.8-1.7,1.6-3.4,2.4-5c0,0,0,0,0-0.1c0.8-1.6,0.1-3.8-1.6-4.5c-1.7-0.7-3.6-0.1-4.5,1.6c-0.7,1.4-1.3,2.8-2,4.2
			c-1.6,3.3-3.2,6.7-4.8,10c-0.6,1.3-1.2,2.6-1.8,3.9c-0.6-0.3-1.2-0.6-1.8-0.9c-3.2-1.5-6.3-3-9.5-4.5c-1.5-0.7-3.1-1.5-4.6-2.2
			c0,0,0,0-0.1,0c-1.6-0.8-3.8-0.1-4.5,1.6c-0.7,1.7-0.1,3.6,1.6,4.5c1.3,0.6,2.5,1.2,3.8,1.8c3,1.5,6.1,2.9,9.1,4.4
			c1,0.5,2.1,1,3.1,1.5c-0.3,0.7-0.7,1.4-1,2.2c-1.7,3.5-3.3,6.9-5,10.4c-0.8,1.7-1.6,3.4-2.4,5c0,0,0,0,0,0.1
			c-0.8,1.6-0.1,3.8,1.6,4.5C736,461.7,738,461.1,738.8,459.5z"/>
	</g>
</g>
<g>
	<g>
		<path class="st0" d="M778.1,495.9c0-0.2,0-0.4,0-0.6c0,0.4,0,0.9,0.1,1.3c-0.2-3.2,0-6.5,0.5-9.7c0.2-1.4,0.4-2.8,0.7-4.2
			c-0.1,0.4-0.2,0.8-0.3,1.3c0.9-4.5,2.4-8.9,4.4-13c-0.2,0.4-0.4,0.8-0.6,1.1c1.8-3.6,4-7,6.7-10.1c-0.3,0.3-0.6,0.7-0.9,1
			c2.7-3.1,5.8-5.8,9.2-8c-0.4,0.3-0.8,0.5-1.1,0.8c4-2.7,8.4-4.7,13-6.2c-0.4,0.1-0.9,0.3-1.3,0.4c3.7-1.2,7.5-2.1,11.3-2.7
			c2.6-0.4,4.6-3.3,4-5.9c-0.6-2.7-3.1-4.5-5.9-4c-8.7,1.4-17.4,4.1-24.9,8.9c-6.2,4-11.6,9-15.7,15.1c-3.2,4.8-5.6,10.3-7.2,15.9
			c-1.2,4.4-2,8.9-2.3,13.4c-0.1,2.3-0.2,4.7,0.1,7.1c0,0,0,0,0,0.1c0.1,1.2,1.2,2.6,2.2,3.3c1,0.7,2.5,1,3.7,0.8
			c1.3-0.3,2.6-1,3.3-2.1C778,498.4,778.2,497.2,778.1,495.9L778.1,495.9z"/>
		<path class="st0" d="M963.3,511.9c0.2,0,0.4,0,0.6,0c-0.4,0-0.9,0-1.3,0c3.2,0,6.5,0.3,9.6,0.9c1.4,0.3,2.8,0.6,4.2,0.9
			c-0.4-0.1-0.8-0.2-1.3-0.3c4.5,1.2,8.8,2.8,12.8,5c-0.4-0.2-0.8-0.4-1.1-0.6c3.5,2,6.8,4.4,9.7,7.2c-0.3-0.3-0.6-0.6-0.9-0.9
			c2.9,2.8,5.5,6,7.6,9.5c-0.2-0.4-0.5-0.8-0.7-1.2c2.5,4.2,4.3,8.7,5.6,13.3c-0.1-0.4-0.2-0.9-0.4-1.3c1,3.8,1.7,7.6,2.2,11.5
			c0.3,2.6,3,4.8,5.7,4.3c2.7-0.5,4.6-2.9,4.3-5.7c-1-8.7-3.3-17.6-7.7-25.3c-3.7-6.4-8.4-12-14.4-16.3c-4.7-3.4-10-6.1-15.5-7.9
			c-4.3-1.4-8.8-2.4-13.3-2.9c-2.3-0.3-4.7-0.4-7.1-0.3c0,0,0,0-0.1,0c-1.2,0-2.7,1-3.4,2c-0.7,1-1.2,2.5-0.9,3.7
			c0.2,1.3,0.9,2.6,2,3.4C960.7,511.7,961.9,511.9,963.3,511.9L963.3,511.9z"/>
		<path class="st0" d="M918.2,387.7L918.2,387.7c3.3,0.3,5.7,3.1,5.5,6.4l-3.7,45.8c-0.3,3.3-3.2,5.7-6.4,5.5l0,0
			c-3.3-0.3-5.7-3.1-5.5-6.4l3.7-45.8C912.1,389.8,915,387.4,918.2,387.7z"/>
		<path class="st0" d="M872.8,563.6L872.8,563.6c0.8,3.2-1.2,6.4-4.4,7.2l-44.7,10.5c-3.2,0.8-6.4-1.2-7.2-4.4l0,0
			c-0.8-3.2,1.2-6.4,4.4-7.2l44.7-10.5C868.8,558.4,872,560.4,872.8,563.6z"/>
		<path class="st0" d="M900.4,517.1c-1.5-0.5-2.9-1-4.4-1.5c-3.5-1.2-7-2.3-10.5-3.5c-1.2-0.4-2.5-0.8-3.7-1.3
			c0.2-0.6,0.4-1.3,0.7-1.9c1.1-3.3,2.2-6.7,3.4-10c0.5-1.6,1.1-3.2,1.6-4.9c0,0,0,0,0-0.1c0.6-1.6-0.4-3.7-2.1-4.2
			c-1.7-0.5-3.6,0.3-4.2,2.1c-0.5,1.3-0.9,2.7-1.3,4c-1.1,3.2-2.2,6.4-3.2,9.6c-0.4,1.1-0.7,2.2-1.1,3.3c-0.9-0.3-1.7-0.6-2.6-0.9
			c-3.6-1.2-7.3-2.5-10.9-3.7c-1.8-0.6-3.5-1.2-5.3-1.8c0,0,0,0-0.1,0c-1.7-0.6-3.7,0.4-4.2,2.1c-0.5,1.7,0.3,3.6,2.1,4.2
			c1.5,0.5,2.9,1,4.4,1.5c3.5,1.2,7,2.4,10.5,3.5c1.3,0.5,2.7,0.9,4,1.4c-0.2,0.6-0.4,1.3-0.7,1.9c-1.1,3.3-2.2,6.7-3.4,10
			c-0.5,1.6-1.1,3.2-1.6,4.8c0,0,0,0,0,0.1c-0.6,1.7,0.4,3.7,2.1,4.2c1.7,0.5,3.6-0.3,4.2-2.1c0.5-1.3,0.9-2.7,1.3-4
			c1.1-3.2,2.2-6.4,3.2-9.6c0.4-1.1,0.7-2.2,1.1-3.3c0.8,0.3,1.5,0.5,2.3,0.8c3.6,1.2,7.3,2.5,10.9,3.7c1.8,0.6,3.5,1.2,5.3,1.8
			c0,0,0,0,0.1,0c1.7,0.6,3.7-0.4,4.2-2.1C903,519.6,902.2,517.7,900.4,517.1z"/>
		<path class="st0" d="M994.8,459.5c0.7-1.4,1.3-2.8,2-4.2c1.6-3.3,3.2-6.7,4.8-10c0.6-1.2,1.1-2.4,1.7-3.5c0.6,0.3,1.2,0.6,1.8,0.9
			c3.2,1.5,6.3,3,9.5,4.5c1.5,0.7,3.1,1.5,4.6,2.2c0,0,0,0,0.1,0c1.6,0.8,3.8,0.1,4.5-1.6c0.7-1.7,0.1-3.6-1.6-4.5
			c-1.3-0.6-2.5-1.2-3.8-1.8c-3-1.5-6.1-2.9-9.1-4.4c-1-0.5-2.1-1-3.1-1.5c0.4-0.8,0.8-1.6,1.2-2.5c1.7-3.5,3.3-6.9,5-10.4
			c0.8-1.7,1.6-3.4,2.4-5c0,0,0,0,0-0.1c0.8-1.6,0.1-3.8-1.6-4.5c-1.7-0.7-3.6-0.1-4.5,1.6c-0.7,1.4-1.3,2.8-2,4.2
			c-1.6,3.3-3.2,6.7-4.8,10c-0.6,1.3-1.2,2.6-1.8,3.9c-0.6-0.3-1.2-0.6-1.8-0.9c-3.2-1.5-6.3-3-9.5-4.5c-1.5-0.7-3.1-1.5-4.6-2.2
			c0,0,0,0-0.1,0c-1.6-0.8-3.8-0.1-4.5,1.6c-0.7,1.7-0.1,3.6,1.6,4.5c1.3,0.6,2.5,1.2,3.8,1.8c3,1.5,6.1,2.9,9.1,4.4
			c1,0.5,2.1,1,3.1,1.5c-0.3,0.7-0.7,1.4-1,2.2c-1.7,3.5-3.3,6.9-5,10.4c-0.8,1.7-1.6,3.4-2.4,5c0,0,0,0,0,0.1
			c-0.8,1.6-0.1,3.8,1.6,4.5C992,461.7,994,461.1,994.8,459.5z"/>
	</g>
</g>
<g>
	<g>
		<path class="st0" d="M522.1,689.7c0-0.2,0-0.4,0-0.6c0,0.4,0,0.9,0.1,1.3c-0.2-3.2,0-6.5,0.5-9.7c0.2-1.4,0.4-2.8,0.7-4.2
			c-0.1,0.4-0.2,0.8-0.3,1.3c0.9-4.5,2.4-8.9,4.4-13c-0.2,0.4-0.4,0.8-0.6,1.2c1.8-3.6,4-7,6.7-10.1c-0.3,0.3-0.6,0.7-0.9,1
			c2.7-3.1,5.8-5.8,9.2-8c-0.4,0.3-0.8,0.5-1.1,0.8c4-2.7,8.4-4.7,13-6.2c-0.4,0.1-0.9,0.3-1.3,0.4c3.7-1.2,7.5-2.1,11.3-2.7
			c2.6-0.4,4.6-3.3,4-5.9c-0.6-2.7-3.1-4.5-5.9-4c-8.7,1.4-17.4,4.1-24.9,8.9c-6.2,4-11.6,9-15.7,15.1c-3.2,4.8-5.6,10.3-7.2,15.9
			c-1.2,4.4-2,8.9-2.3,13.4c-0.1,2.3-0.2,4.7,0.1,7.1c0,0,0,0,0,0.1c0.1,1.2,1.2,2.6,2.2,3.3c1,0.7,2.5,1,3.7,0.8
			c1.3-0.3,2.6-1,3.3-2.2C522,692.2,522.2,691,522.1,689.7L522.1,689.7z"/>
		<path class="st0" d="M707.3,705.7c0.2,0,0.4,0,0.6,0c-0.4,0-0.9,0-1.3,0c3.2,0,6.5,0.3,9.6,0.9c1.4,0.3,2.8,0.6,4.2,0.9
			c-0.4-0.1-0.8-0.2-1.3-0.3c4.5,1.2,8.8,2.8,12.8,5c-0.4-0.2-0.8-0.4-1.1-0.6c3.5,2,6.8,4.4,9.7,7.2c-0.3-0.3-0.6-0.6-0.9-0.9
			c2.9,2.8,5.5,6,7.6,9.5c-0.2-0.4-0.5-0.8-0.7-1.2c2.5,4.2,4.3,8.7,5.6,13.3c-0.1-0.4-0.2-0.9-0.4-1.3c1,3.8,1.7,7.6,2.2,11.5
			c0.3,2.6,3,4.8,5.7,4.3c2.7-0.5,4.6-2.9,4.3-5.7c-1-8.7-3.3-17.6-7.7-25.3c-3.7-6.4-8.4-12-14.4-16.3c-4.7-3.4-10-6.1-15.5-7.9
			c-4.3-1.4-8.8-2.4-13.3-2.9c-2.3-0.3-4.7-0.4-7.1-0.3c0,0,0,0-0.1,0c-1.2,0-2.7,1-3.4,2c-0.7,1-1.2,2.5-0.9,3.7
			c0.2,1.3,0.9,2.6,2,3.4C704.7,705.5,705.9,705.8,707.3,705.7L707.3,705.7z"/>
		<path class="st0" d="M662.2,581.5L662.2,581.5c3.3,0.3,5.7,3.2,5.5,6.4l-3.7,45.8c-0.3,3.3-3.2,5.7-6.4,5.5l0,0
			c-3.3-0.3-5.7-3.2-5.5-6.4l3.7-45.8C656.1,583.7,659,581.2,662.2,581.5z"/>
		<path class="st0" d="M616.8,757.4L616.8,757.4c0.8,3.2-1.2,6.4-4.4,7.2l-44.7,10.5c-3.2,0.8-6.4-1.2-7.2-4.4l0,0
			c-0.8-3.2,1.2-6.4,4.4-7.2l44.7-10.5C612.8,752.2,616,754.2,616.8,757.4z"/>
		<path class="st0" d="M644.4,710.9c-1.5-0.5-2.9-1-4.4-1.5c-3.5-1.2-7-2.3-10.5-3.5c-1.2-0.4-2.5-0.8-3.7-1.3
			c0.2-0.6,0.4-1.3,0.7-1.9c1.1-3.3,2.2-6.7,3.4-10c0.5-1.6,1.1-3.2,1.6-4.8c0,0,0,0,0-0.1c0.6-1.7-0.4-3.7-2.1-4.2
			c-1.7-0.5-3.6,0.3-4.2,2.1c-0.5,1.3-0.9,2.7-1.3,4c-1.1,3.2-2.2,6.4-3.2,9.6c-0.4,1.1-0.7,2.2-1.1,3.3c-0.9-0.3-1.7-0.6-2.6-0.9
			c-3.6-1.2-7.3-2.5-10.9-3.7c-1.8-0.6-3.5-1.2-5.3-1.8c0,0,0,0-0.1,0c-1.7-0.6-3.7,0.4-4.2,2.1c-0.5,1.7,0.3,3.6,2.1,4.2
			c1.5,0.5,2.9,1,4.4,1.5c3.5,1.2,7,2.3,10.5,3.5c1.3,0.5,2.7,0.9,4,1.4c-0.2,0.6-0.4,1.3-0.7,1.9c-1.1,3.3-2.2,6.7-3.4,10
			c-0.5,1.6-1.1,3.2-1.6,4.8c0,0,0,0,0,0.1c-0.6,1.7,0.4,3.7,2.1,4.2c1.7,0.5,3.6-0.3,4.2-2.1c0.5-1.3,0.9-2.7,1.3-4
			c1.1-3.2,2.2-6.4,3.2-9.6c0.4-1.1,0.7-2.2,1.1-3.3c0.8,0.3,1.5,0.5,2.3,0.8c3.6,1.2,7.3,2.5,10.9,3.7c1.8,0.6,3.5,1.2,5.3,1.8
			c0,0,0,0,0.1,0c1.7,0.6,3.7-0.4,4.2-2.1C647,713.4,646.2,711.5,644.4,710.9z"/>
		<path class="st0" d="M738.8,653.3c0.7-1.4,1.3-2.8,2-4.2c1.6-3.3,3.2-6.7,4.8-10c0.6-1.2,1.1-2.4,1.7-3.5c0.6,0.3,1.2,0.6,1.8,0.9
			c3.2,1.5,6.3,3,9.5,4.5c1.5,0.7,3.1,1.5,4.6,2.2c0,0,0,0,0.1,0c1.6,0.8,3.8,0.1,4.5-1.6c0.7-1.7,0.1-3.6-1.6-4.5
			c-1.3-0.6-2.5-1.2-3.8-1.8c-3-1.5-6.1-2.9-9.1-4.3c-1-0.5-2.1-1-3.1-1.5c0.4-0.8,0.8-1.7,1.2-2.5c1.7-3.5,3.3-6.9,5-10.4
			c0.8-1.7,1.6-3.4,2.4-5c0,0,0,0,0-0.1c0.8-1.6,0.1-3.8-1.6-4.5c-1.7-0.7-3.6-0.1-4.5,1.6c-0.7,1.4-1.3,2.8-2,4.2
			c-1.6,3.3-3.2,6.7-4.8,10c-0.6,1.3-1.2,2.6-1.8,3.8c-0.6-0.3-1.2-0.6-1.8-0.9c-3.2-1.5-6.3-3-9.5-4.5c-1.5-0.7-3.1-1.5-4.6-2.2
			c0,0,0,0-0.1,0c-1.6-0.8-3.8-0.1-4.5,1.6c-0.7,1.7-0.1,3.6,1.6,4.5c1.3,0.6,2.5,1.2,3.8,1.8c3,1.5,6.1,2.9,9.1,4.3
			c1,0.5,2.1,1,3.1,1.5c-0.3,0.7-0.7,1.4-1,2.2c-1.7,3.5-3.3,6.9-5,10.4c-0.8,1.7-1.6,3.4-2.4,5c0,0,0,0,0,0.1
			c-0.8,1.6-0.1,3.8,1.6,4.5C736,655.6,738,655,738.8,653.3z"/>
	</g>
</g>
<g>
	<g>
		<path class="st0" d="M778.1,689.7c0-0.2,0-0.4,0-0.6c0,0.4,0,0.9,0.1,1.3c-0.2-3.2,0-6.5,0.5-9.7c0.2-1.4,0.4-2.8,0.7-4.2
			c-0.1,0.4-0.2,0.8-0.3,1.3c0.9-4.5,2.4-8.9,4.4-13c-0.2,0.4-0.4,0.8-0.6,1.2c1.8-3.6,4-7,6.7-10.1c-0.3,0.3-0.6,0.7-0.9,1
			c2.7-3.1,5.8-5.8,9.2-8c-0.4,0.3-0.8,0.5-1.1,0.8c4-2.7,8.4-4.7,13-6.2c-0.4,0.1-0.9,0.3-1.3,0.4c3.7-1.2,7.5-2.1,11.3-2.7
			c2.6-0.4,4.6-3.3,4-5.9c-0.6-2.7-3.1-4.5-5.9-4c-8.7,1.4-17.4,4.1-24.9,8.9c-6.2,4-11.6,9-15.7,15.1c-3.2,4.8-5.6,10.3-7.2,15.9
			c-1.2,4.4-2,8.9-2.3,13.4c-0.1,2.3-0.2,4.7,0.1,7.1c0,0,0,0,0,0.1c0.1,1.2,1.2,2.6,2.2,3.3c1,0.7,2.5,1,3.7,0.8
			c1.3-0.3,2.6-1,3.3-2.2C778,692.2,778.2,691,778.1,689.7L778.1,689.7z"/>
		<path class="st0" d="M963.3,705.7c0.2,0,0.4,0,0.6,0c-0.4,0-0.9,0-1.3,0c3.2,0,6.5,0.3,9.6,0.9c1.4,0.3,2.8,0.6,4.2,0.9
			c-0.4-0.1-0.8-0.2-1.3-0.3c4.5,1.2,8.8,2.8,12.8,5c-0.4-0.2-0.8-0.4-1.1-0.6c3.5,2,6.8,4.4,9.7,7.2c-0.3-0.3-0.6-0.6-0.9-0.9
			c2.9,2.8,5.5,6,7.6,9.5c-0.2-0.4-0.5-0.8-0.7-1.2c2.5,4.2,4.3,8.7,5.6,13.3c-0.1-0.4-0.2-0.9-0.4-1.3c1,3.8,1.7,7.6,2.2,11.5
			c0.3,2.6,3,4.8,5.7,4.3c2.7-0.5,4.6-2.9,4.3-5.7c-1-8.7-3.3-17.6-7.7-25.3c-3.7-6.4-8.4-12-14.4-16.3c-4.7-3.4-10-6.1-15.5-7.9
			c-4.3-1.4-8.8-2.4-13.3-2.9c-2.3-0.3-4.7-0.4-7.1-0.3c0,0,0,0-0.1,0c-1.2,0-2.7,1-3.4,2c-0.7,1-1.2,2.5-0.9,3.7
			c0.2,1.3,0.9,2.6,2,3.4C960.7,705.5,961.9,705.8,963.3,705.7L963.3,705.7z"/>
		<path class="st0" d="M918.2,581.5L918.2,581.5c3.3,0.3,5.7,3.2,5.5,6.4l-3.7,45.8c-0.3,3.3-3.2,5.7-6.4,5.5l0,0
			c-3.3-0.3-5.7-3.2-5.5-6.4l3.7-45.8C912.1,583.7,915,581.2,918.2,581.5z"/>
		<path class="st0" d="M872.8,757.4L872.8,757.4c0.8,3.2-1.2,6.4-4.4,7.2l-44.7,10.5c-3.2,0.8-6.4-1.2-7.2-4.4l0,0
			c-0.8-3.2,1.2-6.4,4.4-7.2l44.7-10.5C868.8,752.2,872,754.2,872.8,757.4z"/>
		<path class="st0" d="M900.4,710.9c-1.5-0.5-2.9-1-4.4-1.5c-3.5-1.2-7-2.3-10.5-3.5c-1.2-0.4-2.5-0.8-3.7-1.3
			c0.2-0.6,0.4-1.3,0.7-1.9c1.1-3.3,2.2-6.7,3.4-10c0.5-1.6,1.1-3.2,1.6-4.8c0,0,0,0,0-0.1c0.6-1.7-0.4-3.7-2.1-4.2
			c-1.7-0.5-3.6,0.3-4.2,2.1c-0.5,1.3-0.9,2.7-1.3,4c-1.1,3.2-2.2,6.4-3.2,9.6c-0.4,1.1-0.7,2.2-1.1,3.3c-0.9-0.3-1.7-0.6-2.6-0.9
			c-3.6-1.2-7.3-2.5-10.9-3.7c-1.8-0.6-3.5-1.2-5.3-1.8c0,0,0,0-0.1,0c-1.7-0.6-3.7,0.4-4.2,2.1c-0.5,1.7,0.3,3.6,2.1,4.2
			c1.5,0.5,2.9,1,4.4,1.5c3.5,1.2,7,2.3,10.5,3.5c1.3,0.5,2.7,0.9,4,1.4c-0.2,0.6-0.4,1.3-0.7,1.9c-1.1,3.3-2.2,6.7-3.4,10
			c-0.5,1.6-1.1,3.2-1.6,4.8c0,0,0,0,0,0.1c-0.6,1.7,0.4,3.7,2.1,4.2c1.7,0.5,3.6-0.3,4.2-2.1c0.5-1.3,0.9-2.7,1.3-4
			c1.1-3.2,2.2-6.4,3.2-9.6c0.4-1.1,0.7-2.2,1.1-3.3c0.8,0.3,1.5,0.5,2.3,0.8c3.6,1.2,7.3,2.5,10.9,3.7c1.8,0.6,3.5,1.2,5.3,1.8
			c0,0,0,0,0.1,0c1.7,0.6,3.7-0.4,4.2-2.1C903,713.4,902.2,711.5,900.4,710.9z"/>
		<path class="st0" d="M994.8,653.3c0.7-1.4,1.3-2.8,2-4.2c1.6-3.3,3.2-6.7,4.8-10c0.6-1.2,1.1-2.4,1.7-3.5c0.6,0.3,1.2,0.6,1.8,0.9
			c3.2,1.5,6.3,3,9.5,4.5c1.5,0.7,3.1,1.5,4.6,2.2c0,0,0,0,0.1,0c1.6,0.8,3.8,0.1,4.5-1.6c0.7-1.7,0.1-3.6-1.6-4.5
			c-1.3-0.6-2.5-1.2-3.8-1.8c-3-1.5-6.1-2.9-9.1-4.3c-1-0.5-2.1-1-3.1-1.5c0.4-0.8,0.8-1.7,1.2-2.5c1.7-3.5,3.3-6.9,5-10.4
			c0.8-1.7,1.6-3.4,2.4-5c0,0,0,0,0-0.1c0.8-1.6,0.1-3.8-1.6-4.5c-1.7-0.7-3.6-0.1-4.5,1.6c-0.7,1.4-1.3,2.8-2,4.2
			c-1.6,3.3-3.2,6.7-4.8,10c-0.6,1.3-1.2,2.6-1.8,3.8c-0.6-0.3-1.2-0.6-1.8-0.9c-3.2-1.5-6.3-3-9.5-4.5c-1.5-0.7-3.1-1.5-4.6-2.2
			c0,0,0,0-0.1,0c-1.6-0.8-3.8-0.1-4.5,1.6c-0.7,1.7-0.1,3.6,1.6,4.5c1.3,0.6,2.5,1.2,3.8,1.8c3,1.5,6.1,2.9,9.1,4.3
			c1,0.5,2.1,1,3.1,1.5c-0.3,0.7-0.7,1.4-1,2.2c-1.7,3.5-3.3,6.9-5,10.4c-0.8,1.7-1.6,3.4-2.4,5c0,0,0,0,0,0.1
			c-0.8,1.6-0.1,3.8,1.6,4.5C992,655.6,994,655,994.8,653.3z"/>
	</g>
</g>
</svg>
