<svg width="411" height="214" viewBox="0 0 411 214" fill="none" xmlns="http://www.w3.org/2000/svg">
<g opacity="0.03">
<path d="M190.955 121.087C194.582 120.452 199.347 119.97 205.437 119.97C211.527 119.97 216.302 120.452 219.92 121.087C223.172 121.664 225.521 118.011 223.708 115.238L208.614 92.0239C207.11 89.7242 203.764 89.7242 202.27 92.0239L187.167 115.238C185.363 118.011 187.703 121.654 190.955 121.087V121.087Z" fill="white"/>
<path d="M223.755 138.32C219.619 138.812 213.623 139.257 205.437 139.257C197.251 139.257 191.265 138.812 187.12 138.32C185.09 138.083 184.009 140.648 185.588 141.954L204.14 157.285C204.892 157.909 205.982 157.909 206.734 157.285L225.296 141.954C226.875 140.648 225.785 138.083 223.755 138.32Z" fill="white"/>
<path d="M391.392 29.9901C379.625 18.1417 363.376 10.8169 345.415 10.8169C321.835 10.8169 301.178 23.4602 289.787 42.3874C279.928 29.2993 267.146 18.5675 252.419 11.186C238.172 4.02202 222.1 0 205.09 0C188.079 0 172.017 4.02202 157.76 11.186C143.108 18.5297 130.373 29.1857 120.533 42.1887C117.826 37.7502 114.622 33.6525 110.984 29.9901C99.2178 18.1417 82.9681 10.8169 65.0174 10.8169C29.1065 10.8169 0 40.1256 0 76.2765V108.67C0 144.821 29.1065 174.13 65.0174 174.13C76.4927 174.13 87.2725 171.139 96.6238 165.878C94.3307 156.897 93.1183 147.48 93.1183 137.78C93.1183 129.206 94.0675 120.859 95.872 112.844C96.7178 109.077 97.7422 105.396 98.9546 101.781C98.8606 103.503 98.8231 105.245 98.8231 106.995C98.8231 124.474 102.986 140.979 110.374 155.553C112.723 160.209 115.42 164.676 118.409 168.906C137.666 196.199 169.31 214 205.09 214C240.869 214 272.504 196.199 291.761 168.906C294.787 164.619 297.503 160.105 299.881 155.383C307.211 140.856 311.347 124.408 311.347 106.995C311.347 105.32 311.309 103.645 311.234 101.98C312.399 105.509 313.405 109.125 314.232 112.806C316.055 120.831 317.004 129.187 317.004 137.78C317.004 147.424 315.792 156.793 313.527 165.726C322.944 171.073 333.827 174.13 345.415 174.13C381.326 174.13 410.433 144.821 410.433 108.67V76.2765C410.433 58.201 403.159 41.8385 391.392 29.9901V29.9901ZM75.4965 49.0308C53.2131 49.0308 33.3545 59.4408 20.4225 75.6803C21.6349 65.0337 26.428 55.485 33.5707 48.2927C41.8882 39.9174 53.3823 34.7313 66.0794 34.7313C81.9625 34.7313 95.9472 42.8511 104.208 55.1727C95.4303 51.2358 85.7218 49.0308 75.4965 49.0308ZM205.09 182.846C165.203 182.846 132.563 151.635 129.931 112.143V112.115C129.997 110.97 130.025 109.825 130.025 108.67V100.626C133.24 61.7215 165.617 31.1541 205.09 31.1541C246.686 31.1541 280.407 65.1094 280.407 106.995C280.407 148.881 246.686 182.846 205.09 182.846V182.846ZM335.998 49.0308C325.773 49.0308 316.065 51.2358 307.296 55.1727C315.548 42.8511 329.542 34.7313 345.415 34.7313C358.113 34.7313 369.607 39.9174 377.924 48.2927C385.076 55.485 389.86 65.0337 391.082 75.6803C378.14 59.4408 358.282 49.0308 335.998 49.0308Z" fill="white"/>
</g>
</svg>
