<svg width="202" height="158" viewBox="0 0 202 158" fill="none" xmlns="http://www.w3.org/2000/svg">
<path fill-rule="evenodd" clip-rule="evenodd" d="M89.0755 33.2577C96.9724 32.8502 102.798 32.5909 109.326 32.3501C110.288 32.3131 115.67 32.3131 121.255 32.3501C131.463 32.3872 134.533 32.5353 141.321 33.2763C142.16 33.3672 143.008 33.4712 143.858 33.5865C143.929 33.1773 144.004 32.7207 144.086 32.2244C144.897 27.3045 146.352 18.4833 150.507 13.3175C156.178 6.26595 161.584 2.10393 172.524 2.24068C183.464 2.37743 196.691 10.6677 198.285 21.2321C201.439 42.1338 186.164 54.3007 164.522 59.0561C164.74 64.7703 164.771 70.6094 164.512 73.1932C164.456 73.7674 164.475 74.286 164.567 74.3416C164.641 74.3786 165.714 74.1934 166.934 73.897C168.155 73.6192 169.413 73.3784 169.727 73.3784L170.3 73.3599L170.411 70.0628C170.541 65.5617 171.096 63.6909 172.853 61.7275C174.092 60.3568 175.183 59.9307 177.476 59.9307C179.122 59.9307 179.436 59.9863 180.38 60.4494C181.785 61.1347 183.209 62.4499 183.819 63.6168C184.282 64.5059 184.3 64.7097 184.319 67.0621C184.319 68.4328 184.263 70.0257 184.189 70.5999L184.041 71.6187L186.224 71.5446C189.386 71.4335 191.494 72.0447 193.029 73.5266C194.213 74.6935 194.638 76.1939 194.601 79.2872C194.601 80.4541 194.49 81.8248 194.379 82.325C194.157 83.2141 194.176 83.2511 194.712 83.7142C195.489 84.381 196.062 85.2701 196.358 86.2518C196.562 86.9742 196.562 87.3076 196.321 88.5857C195.896 90.864 195.397 92.0124 194.398 93.0127L193.529 93.8833L193.436 96.0134C193.362 97.7916 193.27 98.2917 192.844 99.2179C192.197 100.626 191.42 101.441 190.089 102.07C188.702 102.737 187.241 102.904 185.169 102.626L183.505 102.385L182.636 103.163C181.748 103.941 179.418 105.219 178.882 105.219C178.308 105.219 175.516 106.331 174.277 107.035C172.242 108.239 170.929 108.831 168.599 109.665C166.306 110.498 165.732 110.869 164.863 112.128C164.364 112.851 164.345 112.999 164.234 115.851C163.957 122.705 163.698 128.058 163.513 130.225C163.421 131.503 163.254 133.67 163.143 135.041C163.032 136.412 162.958 138.709 162.958 140.135C163.032 146.951 162.995 147.377 162.496 147.97C161.294 149.415 156.412 151.175 151.122 152.082C146.277 152.916 136.198 153.379 131.057 153.008C126.008 152.656 121.625 151.026 119.073 148.6C117.778 147.377 117.667 146.822 117.981 143.932C118.055 143.21 118.018 142.006 117.87 140.876C117.741 139.857 117.667 138.32 117.685 137.449L117.741 135.875H107.939C102.558 135.875 96.9724 135.819 95.5298 135.727L92.9222 135.597L92.4229 136.708C91.942 137.764 91.9236 138.023 91.7756 141.95C91.6461 145.71 91.6092 146.155 91.2208 146.951C90.5365 148.359 89.094 149.304 87.633 149.304C87.3556 149.304 86.7453 149.471 86.2274 149.656C85.0254 150.137 82.1403 150.693 78.719 151.082C76.5737 151.341 74.3914 151.415 69.0097 151.415C61.0389 151.434 60.4286 151.415 56.8038 150.934C50.7933 150.156 47.6678 148.785 46.9281 146.581C46.6876 145.877 46.5952 143.877 46.4287 135.06C46.3178 129.188 46.2068 124.372 46.1883 124.335C46.1513 124.316 45.689 124.39 45.1342 124.483C44.5794 124.594 43.4327 124.687 42.5635 124.705C41.269 124.724 40.8436 124.65 40.1593 124.298C39.0312 123.742 37.7736 122.372 37.0339 120.908C36.4236 119.704 35.7208 118.926 33.9269 117.463C33.4091 117.037 32.7248 116.315 32.4104 115.851C31.3193 114.184 30.1726 109.906 30.1726 107.442C30.1726 105.979 30.2281 105.738 30.9864 104.071C31.7446 102.367 33.0762 99.8291 36.6825 93.1794C37.5332 91.6049 39.3086 88.2893 40.5847 85.8258L42.9519 81.3432L42.8594 77.2126C42.8186 75.3729 42.7528 73.3652 42.6739 71.4367C40.6726 71.7542 38.9069 72.1232 37.2537 72.4687C34.4084 73.0632 31.8963 73.5882 29.0895 73.6613C15.1921 74.0232 3.73266 66.8186 3.17501 45.407C2.89685 34.7266 13.9355 25.7743 27.8328 25.4124C34.7797 25.2314 41.1246 27.2317 45.7695 30.6136C46.7694 31.3416 50.3442 35.5056 52.7876 38.4002C55.4755 37.8324 59.6021 37.1388 71.6913 35.11L80.0135 33.7208L89.0755 33.2577ZM77.5723 40.9448C78.0347 41.8153 78.5895 43.0378 78.7929 43.6676C79.1628 44.779 80.0505 46.4646 79.8471 45.6681C79.8229 45.535 79.7514 45.2596 79.6738 44.9608C79.6326 44.8021 79.5897 44.6368 79.5512 44.4826C79.4402 44.0566 79.3662 43.6676 79.4032 43.6306C79.4402 43.6121 80.0135 43.4639 80.7163 43.2972L81.9554 43.0193L82.4362 43.8529C82.991 44.779 83.2314 46.1867 82.8985 46.5757C82.7876 46.7054 82.3253 46.8721 81.8629 46.9277C80.7348 47.0944 79.9211 47.5389 79.9211 47.9835C79.9211 48.1872 80.2724 49.0578 80.6978 49.9098C81.1232 50.7804 81.4375 51.5213 81.4006 51.5399C81.3451 51.5769 80.6793 51.8177 79.9211 52.077C79.1628 52.3363 78.4046 52.6142 78.2381 52.6883C78.0162 52.7809 77.7573 52.5031 77.1285 51.4658C76.1483 49.7987 73.5777 44.742 72.9859 43.3157C72.7455 42.723 72.3571 41.982 72.1351 41.6671L71.7283 41.0744L72.1537 40.7595C72.542 40.4632 73.1153 40.2594 75.3901 39.6111C75.7969 39.5 76.2038 39.3333 76.3148 39.2407C76.5552 39.0369 76.6292 39.148 77.5723 40.9448ZM74.2435 47.2796C74.7243 48.2983 75.0942 49.1689 75.0572 49.206C75.0387 49.243 74.114 49.7617 73.0229 50.3729L71.044 51.4843L70.4707 50.3359C70.1563 49.7061 69.694 48.8911 69.4536 48.5021C69.0467 47.8538 69.0282 47.7982 69.3426 47.6315C69.509 47.5389 70.3227 47.1129 71.1365 46.7054C71.9502 46.2794 72.7455 45.8163 72.8934 45.6681C73.0414 45.5199 73.2078 45.3903 73.2633 45.3903C73.3188 45.3903 73.7441 46.2423 74.2435 47.2796ZM11.1667 54.7235C11.1667 54.7235 16.8842 44.9782 21.988 41.0719C29.0683 35.6529 39.5978 35.735 39.5978 35.735C39.5978 35.735 23.2963 29.168 16.5748 35.735C9.85326 42.302 11.1667 54.7235 11.1667 54.7235ZM190.289 30.6086C187.389 26.9842 181.469 22.212 175.833 19.1635C170.198 16.115 163.731 14.7001 159.904 15.4463C162.523 11.3684 174.79 7.61903 182.556 12.9092C190.323 18.1994 190.893 26.5009 190.289 30.6086Z" fill="#28F1A9"/>
<path d="M58.1211 86.8473C57.8069 86.516 57.1944 85.4591 57.2575 83.8814C57.3364 81.9092 60.8864 81.6922 61.9908 81.6133C63.0953 81.5345 102.315 79.4425 112.619 81.2323C113.457 80.9582 116.885 80.5744 123.89 81.2323C132.646 82.0547 152.304 82.4392 153.765 84.4622L148.662 84.5895C148.15 95.2164 135.32 110.048 108.011 108.871C87.4713 108.341 64.6713 101.784 60.3396 91.5674C59.8505 90.8359 58.7832 88.7672 59.1313 86.428C59.5869 83.3661 59.0488 83.1426 58.2747 84.4194C58.1205 84.8581 57.8739 85.958 58.1211 86.8473Z" fill="black"/>
<path d="M71.5741 83.3437C72.3694 84.0291 72.5173 84.0291 72.9057 83.3437C73.2016 82.8066 73.2756 82.788 74.4407 82.788C75.6428 82.788 75.6798 82.8066 76.9004 83.7883C77.5846 84.3254 78.3244 84.8626 78.5278 84.9737C78.8792 85.159 78.9162 85.3072 78.8422 86.0296C78.7128 87.0668 79.0641 87.1595 79.2306 86.1407C79.3231 85.548 79.545 85.2331 80.5067 84.381C81.8752 83.177 82.7074 82.788 83.8725 82.788C85.0007 82.788 85.611 83.1215 86.6096 84.3069C87.9782 85.9369 88.0891 86.2889 87.9967 88.456C87.9227 90.1416 87.8487 90.4565 87.4049 91.1234C87.1275 91.5494 86.924 91.9384 86.9795 91.9754C87.0165 92.0125 87.4973 91.9569 88.0337 91.8457C88.57 91.7346 89.7721 91.679 90.6968 91.7161C92.0653 91.7717 92.5831 91.8828 93.4708 92.3088L94.562 92.8275L95.986 92.068C96.7812 91.642 97.5765 91.3086 97.7614 91.3086C98.0573 91.3086 98.0388 91.2715 97.6689 90.9196C97.1511 90.438 96.7258 89.4748 96.7258 88.7709C96.7258 88.4931 96.9477 87.604 97.2251 86.826C97.632 85.622 97.9094 85.1775 98.871 84.1773L100.036 82.9733H102.311H104.586L104.919 83.8068C105.381 84.9367 106.343 85.7517 107.193 85.7517C107.711 85.7517 108.229 85.4924 109.634 84.4551C111.299 83.2326 111.465 83.1585 112.39 83.1585C113.222 83.1585 113.518 83.2696 114.35 83.8438C114.868 84.2143 115.386 84.6218 115.46 84.77C115.867 85.4553 116.847 86.3815 117.42 86.6223C117.994 86.8631 118.086 86.8631 118.53 86.5297C118.789 86.3444 119.436 85.6406 119.973 84.9923C120.786 83.9735 121.045 83.7883 121.655 83.6957C122.34 83.6031 122.451 83.6586 123.338 84.5107C123.856 84.9923 124.319 85.585 124.374 85.8073C124.448 86.0296 124.651 86.4185 124.855 86.6779L125.243 87.1409L125.151 86.3815C125.058 85.6406 125.095 85.585 125.78 85.196C126.186 84.9737 126.908 84.4922 127.37 84.1402C128.165 83.529 128.35 83.4734 129.275 83.5104C129.922 83.529 130.348 83.6401 130.44 83.8068C130.514 83.955 130.847 84.4366 131.198 84.8626C131.827 85.6961 132.234 86.9372 132.234 88.0115C132.234 88.4005 131.883 89.3081 131.328 90.401C130.625 91.7531 130.459 92.2162 130.588 92.4755C130.699 92.6608 130.847 92.7534 130.921 92.6978C131.161 92.5681 131.383 92.9386 131.864 94.2167C132.086 94.865 132.511 95.7541 132.807 96.2172C133.418 97.1803 133.455 97.736 133.048 99.3105C132.622 101.015 132.881 100.811 133.436 99.0141C134.028 97.1618 133.991 96.3839 133.27 94.6798C132.548 93.0127 132.678 92.5867 134.102 91.9754C134.712 91.7161 135.341 91.4938 135.489 91.4938C135.655 91.4938 136.229 91.9198 136.783 92.457C137.597 93.235 137.856 93.6239 138.152 94.6057C138.355 95.254 138.522 96.1431 138.522 96.5691C138.522 96.9766 138.596 97.4397 138.688 97.5879C139.021 98.125 136.913 99.8291 134.213 101.218C132.104 102.293 131.698 102.441 131.365 102.256C131.143 102.144 130.699 102.052 130.385 102.052C130.052 102.052 129.09 101.7 128.239 101.274C126.889 100.607 126.686 100.44 126.686 100.033C126.686 99.7736 126.575 99.2179 126.427 98.8289L126.168 98.088L126.075 98.6437C126.02 98.94 125.909 99.6439 125.835 100.2C125.687 101.459 125.41 101.885 124.3 102.589C123.32 103.219 122.71 103.311 122.118 102.885C121.766 102.645 121.655 102.663 120.842 103.108C119.621 103.756 118.567 103.756 117.161 103.108C116.551 102.83 116.015 102.515 115.959 102.422C115.811 102.182 115.035 102.422 115.035 102.719C115.035 103.386 112.723 104.46 111.262 104.46C110.596 104.46 110.245 104.312 109.32 103.626C108.691 103.163 108.062 102.793 107.915 102.793C107.767 102.793 107.637 102.663 107.637 102.515C107.637 102.07 107.138 102.182 106.158 102.867C105.64 103.219 104.974 103.552 104.678 103.626C103.901 103.793 102.348 103.571 102.07 103.237C101.96 103.089 101.627 102.978 101.349 102.978C101.053 102.978 100.794 102.885 100.757 102.774C100.72 102.663 100.388 102.719 99.8697 102.941C97.2251 104.071 95.4867 103.83 94.414 102.2C94.1551 101.811 93.9517 101.385 93.9517 101.237C93.9517 101.107 93.8222 100.885 93.6743 100.755C93.4524 100.57 93.3414 100.626 93.0825 101.126C92.5092 102.182 91.6769 103.034 90.8447 103.386C90.1235 103.7 89.92 103.719 89.0878 103.534C87.6083 103.182 86.2398 102.459 85.7034 101.756C85.426 101.404 85.1116 101.126 85.0007 101.126C84.8897 101.126 84.3534 101.422 83.7986 101.774C83.2622 102.126 82.7074 102.422 82.578 102.422C82.4485 102.422 81.6348 102.163 80.7656 101.848C79.4155 101.348 79.1566 101.2 78.9902 100.737C78.7497 100.033 78.3059 99.8847 77.6586 100.255C77.1408 100.533 77.0668 100.514 74.9585 99.5698C73.7564 99.0326 72.4064 98.3843 71.981 98.1621C71.2412 97.7731 70.7604 97.1433 70.9638 96.8099C71.1118 96.5691 70.7049 96.6802 70.4645 96.9581C70.2611 97.2174 70.1316 97.1803 69.3734 96.7543C68.911 96.4765 67.8014 95.7541 66.8952 95.1428C65.1568 93.9203 65.1753 93.9944 65.8041 92.6422C66.1554 91.8643 66.6178 91.5679 67.7459 91.4197C69.096 91.253 70.3905 90.3824 69.2994 90.3824C68.985 90.3824 68.8001 90.1972 68.5596 89.6786C68.3932 89.2896 67.9678 88.6413 67.635 88.2338C65.9705 86.2889 65.7671 85.622 66.3219 83.8994C66.6547 82.8624 66.6733 82.8621 69.2604 82.8251L69.2624 82.8251C70.8529 82.8066 70.9638 82.8251 71.5741 83.3437Z" fill="white"/>
<path d="M11.6391 28.7511C33.3604 15.3091 49.7391 29.2661 55.2132 37.9249C54.847 37.9926 54.455 38.0615 54.0719 38.1289L54.0698 38.1293C53.4304 38.2418 52.8161 38.3499 52.3886 38.4403C45.8841 27.3193 27.6257 20.801 12.5954 29.7809C-2.43487 38.7609 2.89214 57.2461 11.3335 67.602C18.007 75.7891 34.8239 73.3436 42.675 71.178C42.6852 71.4266 42.6951 71.7636 42.7048 72.0925L42.7048 72.0937C42.7127 72.3611 42.7204 72.6231 42.728 72.8277C10.0658 87.561 -15.5127 45.5535 11.6391 28.7511Z" fill="#070200"/>
<path fill-rule="evenodd" clip-rule="evenodd" d="M11.6391 55.0793C15.0125 50.8713 19.0185 44.3764 23.2728 41.2757C27.5272 38.1751 37.1143 36.0882 41.3799 36.309C37.5879 33.3401 27.0795 28.0363 17.2694 33.9535C10.3133 38.1492 8.9761 51.0799 11.0126 56.1834L11.6391 55.0793ZM18.5207 34.2848C12.0431 37.2291 10.9652 49.0544 11.236 54.5991C13.4468 50.88 17.7695 43.9439 21.9989 40.9096C29.1155 35.8038 34.9968 36.0759 39.5361 35.7201C38.4689 35.3889 26.6177 30.6043 18.5207 34.2848Z" fill="#070200"/>
<path d="M191.788 44.6208C201.262 33.6181 203.919 16.9677 185.811 5.9689C177.555 0.953476 163.216 1.66544 154.59 8.75728C147.09 14.924 144.753 26.7236 143.875 33.5888C143.305 33.5113 142.734 33.4388 142.167 33.372C142.339 27.0207 145.216 12.7595 155.347 6.52542C168.01 -1.26723 179.894 -0.0333862 188.011 4.70714C196.128 9.44766 209.099 25.1511 193.596 45.6185C184.915 57.0787 167.126 60.4494 164.58 60.4494C164.565 59.9771 164.549 59.505 164.531 59.0352C172.942 57.2667 184.462 53.1289 191.788 44.6208Z" fill="#070200"/>
<path fill-rule="evenodd" clip-rule="evenodd" d="M158.897 15.892C160.68 11.2264 169.545 5.62781 181.126 11.2264C192.708 16.8251 192.356 27.4643 190.732 32.0841C183.514 22.9726 170.833 17.0981 158.897 15.892ZM190.278 30.5405C179.684 17.5497 164.449 14.299 160.058 15.4742C161.882 13.3033 170.173 7.54788 180.521 11.9322C188.881 15.4743 190.784 26.041 190.278 30.5405Z" fill="#070200"/>
<path fill-rule="evenodd" clip-rule="evenodd" d="M89.0756 33.2577C96.9724 32.8502 102.798 32.5909 109.326 32.3501C110.288 32.3131 115.67 32.3131 121.255 32.3501C131.463 32.3872 134.533 32.5354 141.321 33.2763C141.602 33.3067 141.884 33.3387 142.167 33.372C142.734 33.4388 143.305 33.5113 143.875 33.5888C143.888 34.3607 143.608 35.9192 142.382 35.9783C141.971 35.938 141.552 35.8972 141.126 35.8558L141.117 35.8549C140.232 35.7688 139.316 35.6797 138.366 35.5848C126.941 34.4423 89.6865 35.3861 83.9244 35.5848C79.7079 35.7301 63.3389 39.0577 53.6963 41.1253C52.5785 41.239 52.3588 39.3827 52.3886 38.4403C52.8161 38.3499 53.4304 38.2418 54.0698 38.1293L54.0719 38.1289C54.455 38.0615 54.847 37.9926 55.2132 37.9249C58.077 37.3953 62.6644 36.6249 71.6913 35.11L80.0136 33.7208L89.0756 33.2577ZM161.542 59.7913C161.549 60.0665 161.556 60.3406 161.563 60.6135C161.739 67.6213 161.894 73.8106 162.458 75.3233C161.18 75.9848 158.662 77.4153 158.814 77.8455C158.879 78.0308 159.493 77.8256 160.438 77.5093C162.238 76.9074 165.24 75.9034 167.957 76.4219C167.282 76.6749 166.596 79.5223 167.198 81.7053C167.472 80.6402 168.299 78.2758 169.412 77.3393C170.804 76.1687 172.386 73.1948 172.418 71.3915C171.595 68.3016 171.532 62.242 177.859 62.7229C182.428 63.0701 181.97 68.7665 181.773 71.2266C181.743 71.5965 181.719 71.8931 181.719 72.0875C181.103 72.4568 179.892 73.3099 179.972 73.7684L180.079 73.7616C183.987 73.5156 192.966 72.9501 192.365 78.4516C192.479 80.4364 191.609 84.3992 187.213 84.371C188.348 84.6668 190.873 84.9496 191.896 83.7142C193.585 84.6134 195.92 87.7737 191.743 93.2212C190.755 93.2653 188.771 93.4595 188.741 93.8833C188.718 94.2052 189.611 94.1881 190.399 94.1729C190.908 94.1632 191.372 94.1542 191.52 94.2377C191.443 94.5806 191.405 95.021 191.362 95.51C191.139 98.0897 190.8 102.019 184.042 100.083C183.484 100.145 182.234 100.449 181.695 101.17C181.021 102.07 177.306 104.06 175.481 104.146C174.606 104.188 172.386 105.289 169.935 106.505C167.274 107.825 164.34 109.28 162.553 109.665C160.146 110.183 158.7 109.739 157.759 109.451C157.358 109.328 157.049 109.233 156.796 109.252C156.277 109.292 156.67 109.446 157.138 109.629C157.434 109.745 157.761 109.873 157.904 109.991C158.273 110.295 159.772 111.468 160.88 111.555C161.023 111.746 161.356 112.128 161.55 112.128C161.793 112.128 162.009 112.549 161.955 112.971C161.94 113.09 161.818 115.651 161.644 119.298L161.643 119.308L161.643 119.319L161.643 119.32C161.2 128.6 160.424 144.877 160.218 145.903C159.932 147.335 154.015 149.673 149.577 149.578C148.747 149.56 147.318 149.671 145.522 149.809C137.707 150.413 122.951 151.554 120.468 144.997C120.769 142.109 121.227 136.153 120.647 135.433C122.864 134.783 127.561 133.084 128.621 131.484C124.51 135.006 83.5281 133.302 78.2146 132.121C79.6777 133.021 83.8709 134.873 88.9393 135.082C89.0068 135.41 89.2286 136.106 89.5758 136.268C89.7204 139.206 89.6047 145.269 87.9847 146.017C79.1076 148.915 52.6978 151.132 49.4618 145.005C49.3476 142.274 49.0678 136.461 48.863 135.06C48.607 133.308 48.351 125.022 48.4022 122.965C48.426 122.01 48.3365 120.913 48.2338 119.655C48.1154 118.204 47.9793 116.537 47.9793 114.623C47.9793 112.385 47.4806 109.089 47.0441 106.204C46.7837 104.484 46.5455 102.909 46.4484 101.793C45.917 102.764 46.0584 106.491 46.2013 110.259C46.2676 112.006 46.3342 113.762 46.3342 115.255C46.3342 115.998 46.2792 117.124 46.2227 118.281C46.1256 120.269 46.024 122.352 46.1883 122.749C44.6049 122.886 41.0376 122.669 39.4352 120.705C39.0489 120.435 38.2806 119.564 38.2985 118.244C38.3137 117.118 37.6122 116.503 36.7825 115.774C36.3966 115.436 35.9831 115.073 35.601 114.623C34.3971 113.206 32.2569 108.457 32.6805 106.384C33.1041 104.311 43.2675 84.6527 44.3615 82.8436C44.5012 82.6127 44.5353 82.3989 44.567 82.2008C44.6192 81.8744 44.6645 81.5906 45.1639 81.3432C45.044 78.7241 44.8805 75.3472 44.6922 71.7268C44.2393 70.9273 43.1587 71.0278 42.675 71.178C42.6852 71.4266 42.6951 71.7636 42.7048 72.0925L42.7048 72.0937C42.7127 72.3611 42.7204 72.6231 42.728 72.8277C42.7828 74.314 42.8284 75.812 42.8594 77.2126L42.9519 81.3432L40.5847 85.8258C39.3086 88.2893 37.5332 91.6049 36.6825 93.1794C33.0762 99.8291 31.7446 102.367 30.9864 104.071C30.2281 105.738 30.1727 105.979 30.1727 107.442C30.1727 109.906 31.3193 114.184 32.4104 115.851C32.7248 116.315 33.4091 117.037 33.9269 117.463C35.7208 118.926 36.4236 119.704 37.0339 120.908C37.7736 122.372 39.0312 123.742 40.1593 124.298C40.8436 124.65 41.269 124.724 42.5635 124.705C43.4327 124.687 44.5794 124.594 45.1342 124.483C45.689 124.39 46.1513 124.316 46.1883 124.335C46.2068 124.372 46.3178 129.188 46.4287 135.06C46.5952 143.877 46.6877 145.877 46.9281 146.581C47.6678 148.785 50.7933 150.156 56.8038 150.934C60.4286 151.415 61.0389 151.434 69.0097 151.415C74.3914 151.415 76.5737 151.341 78.719 151.082C82.1404 150.693 85.0254 150.137 86.2275 149.656C86.7453 149.471 87.3556 149.304 87.633 149.304C89.094 149.304 90.5366 148.359 91.2208 146.951C91.6092 146.155 91.6462 145.71 91.7757 141.95C91.9236 138.023 91.9421 137.764 92.4229 136.708L92.9223 135.597L95.5299 135.727C96.9724 135.819 102.558 135.875 107.939 135.875H117.741L117.686 137.449C117.667 138.32 117.741 139.857 117.87 140.876C118.018 142.006 118.055 143.21 117.981 143.932C117.667 146.822 117.778 147.377 119.073 148.6C121.625 151.026 126.008 152.656 131.057 153.008C136.198 153.379 146.277 152.916 151.122 152.082C156.412 151.175 161.294 149.415 162.496 147.97C162.995 147.377 163.032 146.951 162.958 140.135C162.958 138.709 163.032 136.412 163.143 135.041C163.254 133.67 163.421 131.503 163.513 130.225C163.698 128.058 163.957 122.705 164.235 115.851C164.345 112.999 164.364 112.851 164.863 112.128C165.733 110.869 166.306 110.498 168.599 109.665C170.929 108.831 172.242 108.239 174.277 107.035C175.516 106.331 178.308 105.219 178.882 105.219C179.418 105.219 181.748 103.941 182.636 103.163L183.505 102.385L185.17 102.626C187.241 102.904 188.702 102.737 190.089 102.07C191.42 101.441 192.197 100.626 192.845 99.2179C193.27 98.2917 193.362 97.7916 193.436 96.0134L193.529 93.8833L194.398 93.0127C195.397 92.0124 195.896 90.864 196.321 88.5857C196.562 87.3076 196.562 86.9742 196.358 86.2518C196.062 85.2701 195.489 84.381 194.712 83.7142C194.176 83.2511 194.158 83.2141 194.379 82.325C194.49 81.8248 194.601 80.4541 194.601 79.2872C194.638 76.1939 194.213 74.6935 193.029 73.5266C191.494 72.0447 189.386 71.4335 186.224 71.5446L184.041 71.6187L184.189 70.5999C184.263 70.0257 184.319 68.4328 184.319 67.0621C184.3 64.7097 184.282 64.5059 183.819 63.6168C183.209 62.4499 181.785 61.1347 180.38 60.4494C179.436 59.9863 179.122 59.9307 177.476 59.9307C175.183 59.9307 174.092 60.3568 172.853 61.7275C171.096 63.6909 170.541 65.5617 170.411 70.0628L170.3 73.3599L169.727 73.3784C169.413 73.3784 168.155 73.6192 166.935 73.897C165.714 74.1934 164.641 74.3786 164.567 74.3416C164.475 74.286 164.456 73.7674 164.512 73.1932C164.746 70.8568 164.743 65.6455 164.58 60.4494C164.565 59.9771 164.549 59.505 164.531 59.0352C163.454 59.4474 162.09 59.711 161.542 59.7913ZM162.012 38.3405C162.007 38.3382 162.002 38.3358 161.997 38.3332C161.982 38.3254 161.965 38.3166 161.945 38.3067C161.971 38.3198 161.993 38.3312 162.012 38.3405ZM171.443 96.6452C171.559 96.455 171.982 96.0174 172.743 95.7891C173.193 95.6542 174.103 94.7464 174.965 93.8873C175.926 92.9296 176.826 92.0323 176.96 92.3331C177.214 92.9038 175.588 95.9794 174.277 96.1379C173.737 96.2032 173.215 96.3865 172.766 96.5444C172.124 96.7701 171.63 96.9438 171.443 96.6452ZM178.924 90.4742C178.505 90.6945 177.609 90.8223 177.377 89.5717C177.087 88.0084 177.103 86.9125 177.699 84.914C177.87 84.3434 177.68 84.0883 177.387 83.6948C176.987 83.158 176.395 82.3637 176.265 80.1597C176.27 78.5857 176.79 75.386 178.828 75.1797C178.785 75.2926 178.608 75.5891 178.247 75.8727C177.796 76.2273 175.105 82.0614 180.826 83.9793C180.88 84.1099 180.865 84.371 180.375 84.371C179.762 84.371 177.184 87.3799 178.924 90.4742Z" fill="#070200"/>
<path d="M163.481 20.0392C165.979 19.2243 175.891 22.0275 179.67 26.7295C176.35 25.1115 165.098 20.3472 163.481 20.0392Z" fill="#070200"/>
<path d="M16.962 67.602C18.1735 68.794 21.2962 71.178 24.095 71.178C27.5935 71.178 31.8995 71.3357 34.3215 70.2143C31.6901 70.2293 28.4906 69.6761 24.6781 69.1379C20.8656 68.5996 18.9509 67.7402 16.962 67.602Z" fill="#070200"/>
<path d="M59.3168 79.8377C58.1192 79.1615 55.8505 77.4611 56.3567 76.069C56.9895 74.3289 69.9953 67.8367 73.9951 69.2931C77.6561 70.6261 60.009 75.9017 59.1885 76.8423C59.2065 76.954 59.3354 77.1362 59.7071 76.972L59.7241 76.9644C60.3036 76.7082 66.3158 74.0498 70.1345 73.5138C73.2292 73.0794 75.7992 70.4964 75.4098 69.3882C75.2487 68.9299 78.0982 68.8927 78.9654 69.8342C79.9961 70.5514 81.314 72.8756 78.3406 76.4344C79.3882 75.9512 81.1194 74.449 81.3711 72.3727C81.5958 70.519 81.1237 69.199 78.9654 67.879C80.5099 62.7254 75.7254 53.3178 62.4333 56.6101C57.0872 58.4947 51.5488 67.879 56.7026 73.2252C55.5883 73.9855 53.6595 75.9604 54.8583 77.7779C56.3567 80.0497 59.1389 80.2517 59.3168 79.8377Z" fill="black"/>
<path d="M65.3594 77.2817C65.3753 77.2216 65.5694 77.0757 66.2187 76.972C67.0304 76.8423 70.3065 76.8611 71.915 76.3003C73.5235 75.7396 75.2486 74.9002 75.5009 74.3835C75.5313 74.5918 75.5739 75.0324 75.5009 75.1285C75.4098 75.2487 72.4369 77.9162 69.2768 77.6999C66.1167 77.4836 65.9959 77.2817 65.3594 77.2817Z" fill="black"/>
<path d="M71.5434 85.7332C70.8221 86.5297 70.6927 87.6225 71.155 89.0117L71.4694 89.9008L70.8776 90.3824C70.2118 90.9381 70.1748 91.1233 70.6557 91.7346C70.9886 92.1606 71.007 92.2718 70.7666 93.0312C70.6372 93.4943 70.5447 94.2352 70.5817 94.6797C70.6187 95.1243 70.6557 95.6059 70.6557 95.717C70.6927 96.2727 71.007 95.8837 71.303 94.8835C71.4879 94.3093 71.8948 93.3646 72.2276 92.8089C72.579 92.2532 72.9859 91.4753 73.1523 91.1048C73.5222 90.3454 73.4297 90.0305 72.5051 88.9747C71.8948 88.2708 71.6913 87.4002 71.8578 86.2333C72.0057 85.3071 71.9687 85.2516 71.5434 85.7332Z" fill="black"/>
<path d="M124.991 89.6786C124.917 89.9194 124.861 90.5862 124.861 91.1419C124.861 91.9569 124.787 92.2162 124.491 92.4014C124.288 92.5311 124.121 92.6978 124.121 92.7904C124.121 92.883 124.288 93.0312 124.491 93.0868C124.787 93.1794 124.861 93.3646 124.861 94.1241C124.861 94.9761 124.898 95.0317 125.323 95.0317C125.749 95.0317 125.786 94.9761 125.786 94.1426C125.786 93.3646 125.841 93.2164 126.248 93.0312C126.785 92.7904 126.692 92.3088 126.1 92.2162C125.749 92.1606 125.675 91.9939 125.564 91.0122C125.49 90.3824 125.36 89.7156 125.268 89.5489C125.12 89.2896 125.083 89.3081 124.991 89.6786Z" fill="black"/>
<path d="M78.9409 90.1601C78.8669 90.2157 78.8114 90.6603 78.8114 91.1419C78.8114 91.9198 78.7745 92.0124 78.4046 91.9939C78.1457 91.9754 77.9792 92.0865 77.9792 92.2532C77.9792 92.4014 78.1642 92.6052 78.4046 92.7163C78.719 92.8645 78.8114 93.0497 78.8114 93.5684C78.8114 94.2722 79.1998 94.7909 79.5512 94.5686C79.6991 94.476 79.6991 94.3648 79.5512 94.1981C79.3847 94.0129 79.4217 93.7721 79.6622 93.272C79.9026 92.7534 79.9211 92.5126 79.7731 92.1791C79.6622 91.9383 79.5142 91.3641 79.4587 90.8825C79.3293 90.0675 79.1998 89.8823 78.9409 90.1601Z" fill="black"/>
<path d="M128.449 102.552C129.004 102.811 129.522 103.089 129.577 103.163C129.614 103.256 128.319 103.793 126.655 104.367C124.214 105.238 123.012 105.534 120.145 105.997L116.631 106.59L107.847 106.571H99.0622L94.5497 105.516C92.0715 104.941 90.0002 104.478 89.9447 104.478C89.5749 104.478 90.3516 104.108 91.2208 103.849C91.7941 103.682 92.4599 103.404 92.7003 103.219C93.1072 102.867 93.1257 102.867 93.736 103.478C95.3819 105.127 97.3053 105.349 99.8389 104.182C100.597 103.83 100.653 103.849 101.688 104.404C102.872 105.034 104.536 104.978 105.997 104.256L106.996 103.756L107.643 104.33C107.995 104.645 108.734 105.108 109.289 105.367C110.122 105.738 110.491 105.812 111.361 105.719C112.581 105.608 113.931 105.071 114.911 104.293C115.355 103.923 115.633 103.812 115.725 103.941C116.021 104.423 117.39 104.849 118.721 104.849C120.071 104.849 120.848 104.608 121.588 103.96C121.828 103.737 121.958 103.719 122.124 103.886C122.734 104.497 125.268 103.682 126.359 102.515C126.877 101.959 127.154 101.959 128.449 102.552Z" fill="#EC8097"/>
<path d="M97.6567 82.9732C97.8971 83.1214 97.2683 84.0291 96.4731 84.6774C96.1402 84.9737 96.0847 84.9552 95.4559 84.4551C94.5682 83.7327 92.9037 83.3067 91.3872 83.4178C90.0927 83.5104 89.168 83.8438 89.168 84.2143C89.168 84.381 89.3529 84.381 90.0372 84.1772C90.8879 83.9179 90.8879 83.9179 90.555 84.2884C90.3701 84.4921 89.9077 84.7514 89.5194 84.8811C88.7056 85.1219 88.6317 85.0849 87.4666 83.6956L86.7268 82.788L92.0715 82.8065C95.012 82.8251 97.5272 82.8992 97.6567 82.9732Z" fill="#EC8097"/>
<path d="M109.511 83.14C109.511 83.214 109.141 83.6586 108.679 84.1031C107.921 84.8626 107.828 84.8996 107.403 84.6774C107.163 84.5292 106.645 84.1031 106.256 83.7142L105.554 82.9918H107.532C108.624 82.9918 109.511 83.0659 109.511 83.14Z" fill="#EC8097"/>
<path d="M119.701 83.6771C119.331 84.0661 118.814 84.6588 118.555 85.0108C118.111 85.6035 118.074 85.622 117.612 85.3812C117.131 85.1219 115.799 83.603 115.799 83.2881C115.799 83.1955 116.391 83.177 117.094 83.214C117.815 83.2696 118.444 83.2326 118.499 83.1585C118.555 83.0659 118.999 82.9918 119.479 82.9918H120.386L119.701 83.6771Z" fill="#EC8097"/>
<path d="M125.767 83.4919C125.823 83.5289 125.638 83.7883 125.36 84.0661L124.861 84.5662L124.158 83.8623L123.474 83.1585L124.584 83.2881C125.194 83.3437 125.73 83.4363 125.767 83.4919Z" fill="#EC8097"/>
<path d="M139.212 84.418C139.638 84.8811 139.675 85.0293 139.564 85.9369C139.379 87.4002 139.194 87.7707 138.214 88.6227C137.733 89.0488 137.178 89.5489 136.956 89.7526C136.438 90.2713 135.514 90.5121 134.348 90.438L133.368 90.3824L133.387 88.9562V88.9527C133.387 88.176 133.387 87.4371 133.368 87.3447C133.35 87.2335 133.331 86.8631 133.35 86.4926C133.368 85.9554 133.553 85.6591 134.33 84.8626L135.31 83.9179H137.03C138.657 83.9179 138.768 83.9364 139.212 84.418Z" fill="#EC8097"/>
<path d="M80.1985 83.7512C79.3848 84.5662 79.2553 84.6403 79.0888 84.3625C78.9964 84.1958 78.6635 83.7697 78.3676 83.4178L77.8498 82.8065H79.4772H81.1047L80.1985 83.7512Z" fill="#EC8097"/>
<path d="M132.666 84.1031C132.444 84.3069 132.24 84.4736 132.185 84.4736C132.129 84.4736 132 84.3069 131.889 84.1031C131.704 83.7697 131.741 83.7327 132.388 83.7327H133.072L132.666 84.1031Z" fill="#EC8097"/>
<path d="M86.5049 103.478C86.5049 103.497 86.024 103.423 85.4507 103.311L84.4336 103.108L84.9884 102.608L85.5432 102.126L86.0425 102.793C86.3015 103.163 86.5234 103.478 86.5049 103.478Z" fill="#EC8097"/>
<path fill-rule="evenodd" clip-rule="evenodd" d="M79.8292 45.7484C79.9029 46.0369 79.8334 45.9997 79.6972 45.7821C79.6954 45.7792 79.6936 45.7763 79.6918 45.7734C79.5739 45.5833 79.408 45.2629 79.2419 44.9027C79.2063 44.8255 79.1707 44.7465 79.1355 44.6666C79.1349 44.6653 79.1344 44.664 79.1338 44.6627C78.9983 44.3543 78.8697 44.0323 78.7751 43.7479C78.7052 43.5317 78.594 43.2456 78.4593 42.9279C78.2016 42.3202 77.8581 41.5967 77.5545 41.0251C76.6113 39.2283 76.5373 39.1172 76.2969 39.321C76.186 39.4136 75.7791 39.5803 75.3722 39.6914C73.9609 40.0936 73.2045 40.3247 72.7409 40.513C72.6353 40.5559 72.5449 40.5966 72.4654 40.6365C72.3313 40.7039 72.2283 40.7692 72.1358 40.8398L71.7104 41.1547L72.1173 41.7474C72.3392 42.0623 72.7276 42.8033 72.968 43.396C73.0571 43.6107 73.191 43.9077 73.3576 44.263C73.7136 45.0221 74.2187 46.0475 74.7541 47.1055C74.7548 47.1068 74.7554 47.1082 74.7561 47.1095C75.2217 48.0294 75.7101 48.9738 76.1433 49.7891C76.5272 50.5117 76.8678 51.133 77.1106 51.5461C77.7394 52.5834 77.9983 52.8612 78.2203 52.7686C78.3867 52.6945 79.145 52.4167 79.9032 52.1573C80.6615 51.898 81.3272 51.6572 81.3827 51.6202C81.4197 51.6016 81.1053 50.8607 80.68 49.9902C80.2546 49.1381 79.9032 48.2675 79.9032 48.0638C79.9032 47.6192 80.7169 47.1747 81.8451 47.008C82.3074 46.9524 82.7698 46.7857 82.8807 46.656C83.2136 46.267 82.9732 44.8593 82.4184 43.9332L81.9375 43.0996L80.6984 43.3775C80.4377 43.4393 80.1948 43.4986 79.9905 43.5497C79.6441 43.6363 79.4087 43.6992 79.3854 43.7109C79.3484 43.7479 79.4224 44.1369 79.5333 44.5629C79.5502 44.6304 79.5679 44.7 79.5859 44.7702C79.609 44.8605 79.6328 44.9518 79.6559 45.041C79.7336 45.3399 79.8051 45.6153 79.8292 45.7484ZM83.4642 43.3192L82.988 42.4936C82.7229 42.0341 82.1899 41.8002 81.6722 41.9163L80.4331 42.1941L80.4185 42.1975C80.0917 42.275 79.7912 42.3489 79.5561 42.4085C79.2811 41.764 78.9306 41.031 78.627 40.4589C78.6265 40.4581 78.626 40.4572 78.6255 40.4563L78.6202 40.446C78.1804 39.6082 77.8739 39.0244 77.64 38.7055C77.5723 38.6133 77.4742 38.4909 77.3436 38.3783C77.211 38.264 76.9876 38.1101 76.674 38.0545C76.1434 37.9604 75.7476 38.2102 75.588 38.3333C75.565 38.344 75.5329 38.358 75.4919 38.3746C75.3694 38.424 75.2108 38.4784 75.0527 38.5216L75.0398 38.5251C73.9078 38.8478 73.1592 39.0708 72.641 39.2547C72.1171 39.4407 71.7443 39.6149 71.408 39.8697L70.9889 40.18C70.4641 40.5685 70.3411 41.3027 70.7106 41.841L71.1175 42.4338L71.126 42.4461C71.2766 42.6597 71.6244 43.3098 71.8442 43.8518L71.8479 43.8608C71.9362 44.0735 72.0649 44.3601 72.2235 44.7001C72.1665 44.749 72.1108 44.8002 72.058 44.8515C72.0454 44.8604 72.0229 44.8761 71.9878 44.8991C71.9025 44.9551 71.7824 45.0291 71.6322 45.1174C71.3358 45.2916 70.9551 45.5022 70.5657 45.7063C69.7699 46.105 68.9606 46.5278 68.7482 46.6449C68.7477 46.6451 68.7472 46.6454 68.7467 46.6457C68.6733 46.6842 68.45 46.8016 68.2648 47.0005C67.9762 47.3104 67.8508 47.7199 67.9087 48.1344C67.9496 48.4268 68.0772 48.6658 68.1381 48.7774C68.2124 48.9136 68.3096 49.0695 68.4062 49.2234C68.629 49.5843 69.0715 50.3642 69.3678 50.9578L69.9411 52.1063C70.0894 52.4032 70.3528 52.6264 70.6701 52.7238C70.9873 52.8213 71.3306 52.7845 71.62 52.622L73.5977 51.5112C73.5979 51.5111 73.5981 51.511 73.5983 51.5109C74.1424 51.2061 74.6503 50.9214 75.0247 50.7082C75.0878 50.6722 75.1479 50.6378 75.2043 50.6054C75.5436 51.2398 75.8435 51.7837 76.0652 52.1607L76.0736 52.1747C76.3833 52.6856 76.6606 53.1117 76.9221 53.3983C77.0515 53.5403 77.2578 53.7403 77.5462 53.8694C77.8958 54.0259 78.3023 54.0484 78.6873 53.8878C78.6961 53.8841 78.7048 53.8804 78.7135 53.8765C78.713 53.8767 78.7132 53.8766 78.7135 53.8765C78.716 53.8754 78.7296 53.8696 78.7581 53.8583C78.7888 53.8461 78.829 53.8304 78.8786 53.8115C78.9777 53.7738 79.1058 53.7262 79.2548 53.6719C79.5526 53.5635 79.9242 53.4318 80.2956 53.3048C80.6798 53.1734 81.043 53.0459 81.3199 52.9455C81.4575 52.8956 81.5792 52.8504 81.6734 52.8139C81.7196 52.796 81.7668 52.7771 81.8092 52.7591C81.8299 52.7503 81.8573 52.7383 81.8867 52.7243L81.8884 52.7235C81.8998 52.7181 81.9353 52.7013 81.981 52.6752C82.4051 52.4362 82.5299 52.0421 82.5639 51.9014C82.6047 51.7328 82.5995 51.5948 82.5964 51.5402C82.5896 51.419 82.566 51.3222 82.5576 51.2885C82.5364 51.2028 82.5083 51.1219 82.489 51.0684C82.4461 50.9496 82.3862 50.8027 82.3192 50.6466C82.1826 50.3282 81.989 49.907 81.7696 49.4578L81.765 49.4485C81.5768 49.0714 81.4058 48.6941 81.28 48.3874C81.4657 48.3198 81.7108 48.2546 82.0084 48.2097C82.3205 48.1708 82.629 48.0966 82.8914 48.0058C83.0252 47.9594 83.1668 47.902 83.3007 47.8317C83.4059 47.7765 83.6216 47.6554 83.8021 47.4445C84.1381 47.0519 84.214 46.5743 84.236 46.2905C84.2615 45.9619 84.2331 45.6165 84.178 45.2926C84.069 44.6524 83.8262 43.9267 83.4642 43.3192ZM74.6377 49.5323C74.2631 49.7482 73.6645 50.0838 73.005 50.4532L71.0262 51.5646L70.4529 50.4162C70.1385 49.7864 69.6761 48.9714 69.4357 48.5824C69.0288 47.9341 69.0103 47.8785 69.3247 47.7118C69.4912 47.6192 70.3049 47.1932 71.1186 46.7857C71.8101 46.4237 72.4883 46.0349 72.7672 45.8353C72.8165 45.8 72.8533 45.7707 72.8756 45.7484C73.0235 45.6002 73.19 45.4706 73.2454 45.4706C73.2849 45.4706 73.512 45.9025 73.8197 46.5258C73.8198 46.526 73.8199 46.5262 73.82 46.5265C73.9444 46.7784 74.0819 47.0615 74.2256 47.3599C74.7064 48.3787 75.0763 49.2492 75.0393 49.2863C75.032 49.3009 74.8829 49.391 74.6377 49.5323Z" fill="black"/>
<path d="M74.6377 49.5323C74.2631 49.7482 73.6645 50.0838 73.005 50.4532L71.0262 51.5646L70.4529 50.4162C70.1385 49.7864 69.6761 48.9714 69.4357 48.5824C69.0288 47.9341 69.0103 47.8785 69.3247 47.7118C69.4912 47.6192 70.3049 47.1932 71.1186 46.7857C71.8101 46.4237 72.4883 46.0349 72.7672 45.8353C72.8165 45.8 72.8533 45.7707 72.8756 45.7484C73.0235 45.6002 73.19 45.4706 73.2454 45.4706C73.2849 45.4706 73.512 45.9025 73.8197 46.5258C73.9441 46.7776 74.0819 47.0615 74.2256 47.3599C74.7064 48.3787 75.0763 49.2492 75.0393 49.2863C75.032 49.3009 74.8829 49.391 74.6377 49.5323Z" fill="white"/>
<path d="M79.6972 45.7821C79.8334 45.9997 79.9029 46.0369 79.8292 45.7484C79.8051 45.6153 79.7336 45.3399 79.6559 45.041C79.6328 44.9518 79.609 44.8605 79.5859 44.7702C79.5679 44.7 79.5502 44.6304 79.5333 44.5629C79.4224 44.1369 79.3484 43.7479 79.3854 43.7109C79.4087 43.6992 79.6441 43.6363 79.9905 43.5497C80.1948 43.4986 80.4377 43.4393 80.6984 43.3775L81.9375 43.0996L82.4184 43.9332C82.9732 44.8593 83.2136 46.267 82.8807 46.656C82.7698 46.7857 82.3074 46.9524 81.8451 47.008C80.7169 47.1747 79.9032 47.6192 79.9032 48.0638C79.9032 48.2675 80.2546 49.1381 80.68 49.9902C81.1053 50.8607 81.4197 51.6016 81.3827 51.6202C81.3272 51.6572 80.6615 51.898 79.9032 52.1573C79.145 52.4167 78.3867 52.6945 78.2203 52.7686C77.9983 52.8612 77.7394 52.5834 77.1106 51.5461C76.8678 51.133 76.5272 50.5117 76.1433 49.7891C75.7101 48.9738 75.2217 48.0294 74.7561 47.1095L74.7541 47.1055C74.2187 46.0475 73.7136 45.0221 73.3576 44.263C73.191 43.9077 73.0571 43.6107 72.968 43.396C72.7276 42.8033 72.3392 42.0623 72.1173 41.7474L71.7104 41.1547L72.1358 40.8398C72.2283 40.7692 72.3313 40.7039 72.4654 40.6365C72.5449 40.5966 72.6353 40.5559 72.7409 40.513C73.2045 40.3247 73.9609 40.0936 75.3722 39.6914C75.7791 39.5803 76.186 39.4136 76.2969 39.321C76.5373 39.1172 76.6113 39.2283 77.5545 41.0251C77.8581 41.5967 78.2016 42.3202 78.4593 42.9279C78.594 43.2456 78.7052 43.5317 78.7751 43.7479C78.8697 44.0323 78.9983 44.3543 79.1338 44.6627L79.1355 44.6666C79.1707 44.7465 79.2063 44.8255 79.2419 44.9027C79.408 45.2629 79.5739 45.5833 79.6918 45.7734L79.6972 45.7821Z" fill="white"/>
<path d="M122.911 76.131C123.482 75.579 124.953 74.2676 126.41 74.2676C122.373 69.6917 120.589 52.9561 136.898 52.9561C154.289 52.9561 150.513 67.7386 147.333 74.929C147.807 75.2453 148.954 75.9026 149.748 76.0018C149.748 76.0018 142.244 75.5744 135.979 75.4466C129.715 75.3188 122.911 76.131 122.911 76.131Z" fill="black"/>
<path d="M128.743 62.8279C127.898 60.1996 132.17 57.1016 134.634 57.6411C139.837 58.7801 133.249 64.1424 128.743 62.8279Z" fill="white"/>
<path d="M59.0932 64.3376C58.2483 61.7093 62.5198 58.6113 64.9841 59.1508C70.1868 60.2897 63.5994 65.6521 59.0932 64.3376Z" fill="white"/>
<path d="M142.601 70.8118C142.816 70.0275 143.535 68.5266 144.696 68.7974C146.146 69.1358 145.211 71.0696 144.454 71.0696C143.697 71.0696 142.955 70.8118 142.601 70.8118Z" fill="#D9D9D9"/>
</svg>
