<svg width="277" height="387" viewBox="0 0 277 387" fill="none" xmlns="http://www.w3.org/2000/svg">
<g clip-path="url(#clip0_569_17781)">
<g opacity="0.5">
<g clip-path="url(#clip1_569_17781)">
<rect x="28" y="2" width="220" height="369.722" rx="19" fill="white"/>
<rect x="28" y="2" width="220" height="369.722" rx="19" fill="url(#paint0_linear_569_17781)"/>
<circle opacity="0.1" cx="137.389" cy="124.222" r="65.0833" stroke="#C5D3CE" stroke-width="0.611111"/>
<circle opacity="0.05" cx="137.389" cy="124.222" r="93.8056" stroke="#C5D3CE" stroke-width="0.611111"/>
<circle opacity="0.02" cx="137.389" cy="124.222" r="118.25" stroke="#C5D3CE" stroke-width="0.611111"/>
<path opacity="0.1" fill-rule="evenodd" clip-rule="evenodd" d="M177.306 108.165C174.784 105.699 171.299 104.175 167.449 104.175C162.393 104.175 157.964 106.806 155.522 110.745C153.408 108.021 150.667 105.788 147.51 104.252C144.455 102.761 141.009 101.924 137.362 101.924C133.714 101.924 130.271 102.761 127.214 104.252C124.072 105.78 121.342 107.998 119.232 110.704C118.652 109.78 117.965 108.927 117.185 108.165C114.662 105.699 111.178 104.175 107.329 104.175C99.6296 104.175 93.3889 110.274 93.3889 117.798V124.539C93.3889 132.063 99.6296 138.162 107.329 138.162C109.79 138.162 112.101 137.54 114.106 136.445C113.614 134.576 113.354 132.616 113.354 130.598C113.354 128.813 113.558 127.076 113.945 125.408C114.126 124.624 114.346 123.858 114.606 123.106C114.585 123.464 114.577 123.827 114.577 124.191C114.577 127.829 115.47 131.263 117.054 134.296C117.558 135.265 118.136 136.195 118.777 137.075C122.906 142.755 129.69 146.46 137.362 146.46C145.033 146.46 151.816 142.755 155.945 137.075C156.594 136.183 157.176 135.244 157.686 134.261C159.257 131.238 160.144 127.815 160.144 124.191C160.144 123.842 160.136 123.494 160.12 123.147C160.37 123.882 160.585 124.634 160.763 125.4C161.154 127.07 161.357 128.809 161.357 130.598C161.357 132.605 161.097 134.554 160.612 136.414C162.631 137.526 164.964 138.162 167.449 138.162C175.148 138.162 181.389 132.063 181.389 124.539V117.798C181.389 114.036 179.829 110.631 177.306 108.165ZM109.576 112.128C104.798 112.128 100.54 114.294 97.7677 117.674C98.0276 115.458 99.0553 113.471 100.587 111.974C102.37 110.231 104.834 109.152 107.557 109.152C110.962 109.152 113.961 110.842 115.732 113.406C113.85 112.587 111.768 112.128 109.576 112.128ZM137.362 139.976C128.81 139.976 121.811 133.481 121.247 125.262V125.256C121.261 125.018 121.267 124.78 121.267 124.539V122.865C121.957 114.769 128.898 108.407 137.362 108.407C146.28 108.407 153.51 115.474 153.51 124.191C153.51 132.908 146.28 139.976 137.362 139.976ZM165.43 112.128C163.237 112.128 161.156 112.587 159.276 113.406C161.045 110.842 164.045 109.152 167.449 109.152C170.171 109.152 172.635 110.231 174.419 111.974C175.952 113.471 176.978 115.458 177.24 117.674C174.465 114.294 170.207 112.128 165.43 112.128ZM134.331 127.123C135.109 126.991 136.13 126.891 137.436 126.891C138.742 126.891 139.766 126.991 140.541 127.123C141.239 127.243 141.742 126.483 141.354 125.906L138.117 121.075C137.795 120.596 137.078 120.596 136.757 121.075L133.519 125.906C133.132 126.483 133.634 127.241 134.331 127.123ZM131.875 130.625C132.888 132.601 135.592 133.883 137.436 133.883C139.28 133.883 141.984 132.601 142.998 130.625C142.466 133.913 139.584 135.476 137.436 135.476C135.288 135.476 132.409 133.915 131.875 130.625Z" fill="#919B97"/>
<path d="M40.2222 259.278C40.2222 253.203 45.147 248.278 51.2222 248.278H224.778C230.853 248.278 235.778 253.203 235.778 259.278V294.111H40.2222V259.278Z" fill="#303238"/>
<path d="M117.733 253.255H119.237C119.623 253.255 119.968 253.309 120.271 253.417C120.574 253.519 120.83 253.673 121.041 253.879C121.251 254.084 121.412 254.341 121.525 254.649C121.637 254.957 121.693 255.311 121.693 255.712V255.859C121.693 256.269 121.635 256.634 121.517 256.951C121.405 257.264 121.239 257.528 121.019 257.743C120.804 257.954 120.54 258.115 120.227 258.227C119.914 258.335 119.559 258.389 119.163 258.389H117.733V253.255ZM119.09 257.787C119.378 257.787 119.638 257.751 119.867 257.677C120.102 257.604 120.3 257.492 120.461 257.34C120.623 257.184 120.745 256.983 120.828 256.739C120.916 256.494 120.96 256.201 120.96 255.859V255.712C120.96 255.384 120.918 255.103 120.835 254.869C120.752 254.634 120.632 254.443 120.476 254.297C120.32 254.145 120.129 254.035 119.904 253.967C119.684 253.893 119.437 253.857 119.163 253.857H118.423V257.787H119.09ZM124.335 258.462C124.085 258.462 123.848 258.423 123.623 258.345C123.399 258.266 123.201 258.147 123.029 257.985C122.858 257.819 122.721 257.611 122.619 257.362C122.516 257.113 122.465 256.819 122.465 256.482V256.335C122.465 256.013 122.514 255.734 122.611 255.499C122.709 255.26 122.839 255.062 123 254.905C123.166 254.744 123.357 254.624 123.572 254.546C123.792 254.468 124.022 254.429 124.261 254.429C124.833 254.429 125.276 254.585 125.589 254.898C125.902 255.211 126.058 255.653 126.058 256.225V256.636H123.11C123.11 256.866 123.147 257.059 123.22 257.215C123.293 257.372 123.389 257.499 123.506 257.597C123.623 257.694 123.753 257.765 123.895 257.809C124.041 257.853 124.188 257.875 124.335 257.875C124.628 257.875 124.853 257.826 125.009 257.729C125.171 257.631 125.286 257.496 125.354 257.325H125.985C125.946 257.511 125.875 257.675 125.772 257.817C125.674 257.958 125.552 258.078 125.405 258.176C125.264 258.269 125.1 258.34 124.914 258.389C124.733 258.438 124.54 258.462 124.335 258.462ZM124.298 255.015C124.147 255.015 124 255.037 123.858 255.081C123.716 255.12 123.589 255.186 123.477 255.279C123.369 255.367 123.281 255.48 123.213 255.617C123.144 255.754 123.11 255.917 123.11 256.108H125.449C125.445 255.908 125.41 255.739 125.347 255.602C125.288 255.46 125.207 255.348 125.105 255.265C125.002 255.177 124.88 255.113 124.738 255.074C124.601 255.035 124.455 255.015 124.298 255.015ZM128.405 258.425C127.99 258.425 127.689 258.332 127.503 258.147C127.322 257.956 127.232 257.67 127.232 257.289V255.074H126.645V254.502H127.232V253.622H127.877V254.502H128.919V255.074H127.877V257.215C127.877 257.435 127.924 257.594 128.017 257.692C128.11 257.79 128.288 257.839 128.552 257.839C128.699 257.839 128.845 257.831 128.992 257.817V258.389C128.899 258.398 128.806 258.406 128.713 258.411C128.62 258.42 128.518 258.425 128.405 258.425ZM131.019 258.462C130.804 258.462 130.613 258.433 130.447 258.374C130.286 258.31 130.149 258.225 130.036 258.117C129.924 258.01 129.838 257.883 129.78 257.736C129.721 257.589 129.692 257.428 129.692 257.252C129.692 256.866 129.804 256.587 130.029 256.416C130.259 256.245 130.586 256.159 131.012 256.159H132.273V255.895C132.273 255.563 132.197 255.333 132.046 255.206C131.899 255.079 131.676 255.015 131.378 255.015C131.1 255.015 130.897 255.069 130.77 255.177C130.642 255.279 130.572 255.397 130.557 255.529H129.912C129.921 255.372 129.963 255.228 130.036 255.096C130.114 254.959 130.217 254.842 130.344 254.744C130.476 254.646 130.633 254.57 130.814 254.517C130.994 254.458 131.195 254.429 131.415 254.429C131.874 254.429 132.239 254.539 132.508 254.759C132.781 254.974 132.918 255.328 132.918 255.822V257.399C132.918 257.604 132.918 257.785 132.918 257.941C132.923 258.093 132.935 258.242 132.955 258.389H132.39C132.376 258.276 132.366 258.171 132.361 258.073C132.356 257.971 132.354 257.856 132.354 257.729C132.251 257.934 132.085 258.108 131.855 258.249C131.625 258.391 131.346 258.462 131.019 258.462ZM131.158 257.875C131.31 257.875 131.452 257.856 131.584 257.817C131.72 257.773 131.84 257.712 131.943 257.633C132.046 257.55 132.126 257.45 132.185 257.333C132.244 257.215 132.273 257.078 132.273 256.922V256.658H131.122C130.882 256.658 130.694 256.707 130.557 256.805C130.42 256.898 130.352 257.047 130.352 257.252C130.352 257.433 130.415 257.582 130.542 257.699C130.674 257.817 130.88 257.875 131.158 257.875ZM134.131 254.502H134.777V258.389H134.131V254.502ZM134.454 253.989C134.327 253.989 134.222 253.947 134.139 253.864C134.056 253.781 134.014 253.676 134.014 253.549C134.014 253.422 134.056 253.316 134.139 253.233C134.222 253.15 134.327 253.109 134.454 253.109C134.581 253.109 134.686 253.15 134.769 253.233C134.852 253.316 134.894 253.422 134.894 253.549C134.894 253.676 134.852 253.781 134.769 253.864C134.686 253.947 134.581 253.989 134.454 253.989ZM137.194 258.425C136.788 258.425 136.497 258.328 136.321 258.132C136.145 257.936 136.057 257.619 136.057 257.179V253.255H136.702V257.179C136.702 257.433 136.744 257.606 136.827 257.699C136.91 257.792 137.057 257.839 137.267 257.839C137.321 257.839 137.367 257.839 137.406 257.839C137.445 257.834 137.484 257.829 137.524 257.824V258.396C137.484 258.406 137.428 258.413 137.355 258.418C137.286 258.423 137.233 258.425 137.194 258.425ZM139.911 258.462C139.662 258.462 139.424 258.423 139.2 258.345C138.975 258.266 138.777 258.147 138.606 257.985C138.434 257.819 138.298 257.611 138.195 257.362C138.092 257.113 138.041 256.819 138.041 256.482V256.335C138.041 256.013 138.09 255.734 138.188 255.499C138.285 255.26 138.415 255.062 138.576 254.905C138.742 254.744 138.933 254.624 139.148 254.546C139.368 254.468 139.598 254.429 139.838 254.429C140.41 254.429 140.852 254.585 141.165 254.898C141.478 255.211 141.634 255.653 141.634 256.225V256.636H138.686C138.686 256.866 138.723 257.059 138.796 257.215C138.87 257.372 138.965 257.499 139.082 257.597C139.2 257.694 139.329 257.765 139.471 257.809C139.618 257.853 139.764 257.875 139.911 257.875C140.204 257.875 140.429 257.826 140.586 257.729C140.747 257.631 140.862 257.496 140.93 257.325H141.561C141.522 257.511 141.451 257.675 141.348 257.817C141.25 257.958 141.128 258.078 140.982 258.176C140.84 258.269 140.676 258.34 140.49 258.389C140.309 258.438 140.116 258.462 139.911 258.462ZM139.874 255.015C139.723 255.015 139.576 255.037 139.434 255.081C139.292 255.12 139.165 255.186 139.053 255.279C138.945 255.367 138.857 255.48 138.789 255.617C138.72 255.754 138.686 255.917 138.686 256.108H141.026C141.021 255.908 140.986 255.739 140.923 255.602C140.864 255.46 140.784 255.348 140.681 255.265C140.578 255.177 140.456 255.113 140.314 255.074C140.177 255.035 140.031 255.015 139.874 255.015ZM143.908 258.462C143.669 258.462 143.449 258.42 143.248 258.337C143.053 258.254 142.884 258.132 142.742 257.971C142.6 257.804 142.49 257.599 142.412 257.355C142.334 257.105 142.295 256.814 142.295 256.482V256.335C142.295 256.027 142.334 255.756 142.412 255.521C142.495 255.282 142.608 255.081 142.75 254.92C142.891 254.759 143.06 254.636 143.256 254.553C143.456 254.47 143.674 254.429 143.908 254.429C144.221 254.429 144.492 254.497 144.722 254.634C144.957 254.771 145.13 254.959 145.243 255.199V253.255H145.888V258.389H145.287V257.655C145.189 257.895 145.018 258.09 144.774 258.242C144.529 258.389 144.241 258.462 143.908 258.462ZM144.055 257.89C144.231 257.89 144.392 257.861 144.539 257.802C144.686 257.743 144.81 257.663 144.913 257.56C145.016 257.457 145.096 257.333 145.155 257.186C145.214 257.039 145.243 256.878 145.243 256.702V256.115C145.243 255.959 145.214 255.812 145.155 255.675C145.096 255.538 145.016 255.421 144.913 255.323C144.81 255.221 144.686 255.142 144.539 255.089C144.392 255.03 144.231 255.001 144.055 255.001C143.898 255.001 143.752 255.03 143.615 255.089C143.478 255.147 143.358 255.235 143.256 255.353C143.158 255.465 143.08 255.604 143.021 255.771C142.967 255.937 142.94 256.125 142.94 256.335V256.482C142.94 256.712 142.967 256.915 143.021 257.091C143.08 257.267 143.158 257.413 143.256 257.531C143.358 257.648 143.478 257.738 143.615 257.802C143.752 257.861 143.898 257.89 144.055 257.89Z" fill="#BCC9DB"/>
<path d="M150.821 258.636L150.215 258.048L153.996 254.056L154.581 254.056L158.363 258.048L157.757 258.636L154.709 255.418L154.289 254.994L153.869 255.418L150.821 258.636Z" fill="#BCC9DB"/>
<rect x="39.9166" y="265.084" width="196.167" height="89.326" rx="14.9722" fill="#222429"/>
<mask id="mask0_569_17781" style="mask-type:alpha" maskUnits="userSpaceOnUse" x="52" y="278" width="24" height="24">
<circle cx="63.7732" cy="290.293" r="11.3289" fill="#C4C4C4"/>
</mask>
<g mask="url(#mask0_569_17781)">
<g clip-path="url(#clip2_569_17781)">
<path d="M90.1696 278.785H46.78V301.621H90.1696V278.785Z" fill="#B22234"/>
<path d="M46.78 281.42H90.1696ZM90.1696 284.933H46.78ZM46.78 288.447H90.1696ZM90.1696 291.96H46.78ZM46.78 295.473H90.1696ZM90.1696 298.987H46.78Z" fill="black"/>
<path d="M46.78 281.42H90.1696M90.1696 284.933H46.78M46.78 288.447H90.1696M90.1696 291.96H46.78M46.78 295.473H90.1696M90.1696 298.987H46.78" stroke="white" stroke-width="1.75666"/>
<path d="M64.1359 278.785H46.78V291.081H64.1359V278.785Z" fill="#3C3B6E"/>
<path d="M52.565 280.542L52.978 281.813L51.8967 281.027H53.2333L52.152 281.813L52.565 280.542Z" fill="white"/>
<path d="M52.565 283.001L52.978 284.272L51.8967 283.487H53.2333L52.152 284.272L52.565 283.001Z" fill="white"/>
<path d="M52.565 285.46L52.978 286.731L51.8967 285.945H53.2333L52.152 286.731L52.565 285.46Z" fill="white"/>
<path d="M52.565 287.919L52.978 289.191L51.8967 288.405H53.2333L52.152 289.191L52.565 287.919Z" fill="white"/>
<path d="M54.0115 279.312L54.4246 280.583L53.3433 279.797H54.6798L53.5985 280.583L54.0115 279.312Z" fill="white"/>
<path d="M54.0115 281.771L54.4246 283.042L53.3433 282.257H54.6798L53.5985 283.042L54.0115 281.771Z" fill="white"/>
<path d="M54.0115 284.23L54.4246 285.501L53.3433 284.716H54.6798L53.5985 285.501L54.0115 284.23Z" fill="white"/>
<path d="M54.0115 286.689L54.4246 287.961L53.3433 287.175H54.6798L53.5985 287.961L54.0115 286.689Z" fill="white"/>
<path d="M54.0115 289.149L54.4246 290.42L53.3433 289.634H54.6798L53.5985 290.42L54.0115 289.149Z" fill="white"/>
<path d="M55.4578 280.542L55.8708 281.813L54.7896 281.027H56.1261L55.0448 281.813L55.4578 280.542Z" fill="white"/>
<path d="M55.4578 283.001L55.8708 284.272L54.7896 283.487H56.1261L55.0448 284.272L55.4578 283.001Z" fill="white"/>
<path d="M55.4578 285.46L55.8708 286.731L54.7896 285.945H56.1261L55.0448 286.731L55.4578 285.46Z" fill="white"/>
<path d="M55.4578 287.919L55.8708 289.191L54.7896 288.405H56.1261L55.0448 289.191L55.4578 287.919Z" fill="white"/>
<path d="M56.9044 279.312L57.3174 280.583L56.2361 279.797H57.5726L56.4913 280.583L56.9044 279.312Z" fill="white"/>
<path d="M56.9044 281.771L57.3174 283.042L56.2361 282.257H57.5726L56.4913 283.042L56.9044 281.771Z" fill="white"/>
<path d="M56.9044 284.23L57.3174 285.502L56.2361 284.716H57.5726L56.4913 285.502L56.9044 284.23Z" fill="white"/>
<path d="M56.9044 286.69L57.3174 287.961L56.2361 287.175H57.5726L56.4913 287.961L56.9044 286.69Z" fill="white"/>
<path d="M56.9044 289.149L57.3174 290.42L56.2361 289.634H57.5726L56.4913 290.42L56.9044 289.149Z" fill="white"/>
<path d="M58.3504 280.542L58.7634 281.813L57.6821 281.027H59.0187L57.9374 281.813L58.3504 280.542Z" fill="white"/>
<path d="M58.3504 283.001L58.7634 284.272L57.6821 283.487H59.0187L57.9374 284.272L58.3504 283.001Z" fill="white"/>
<path d="M58.3504 285.46L58.7634 286.731L57.6821 285.945H59.0187L57.9374 286.731L58.3504 285.46Z" fill="white"/>
<path d="M58.3504 287.919L58.7634 289.191L57.6821 288.405H59.0187L57.9374 289.191L58.3504 287.919Z" fill="white"/>
<path d="M59.7969 279.312L60.21 280.583L59.1287 279.797H60.4652L59.3839 280.583L59.7969 279.312Z" fill="white"/>
<path d="M59.7969 281.771L60.21 283.042L59.1287 282.257H60.4652L59.3839 283.042L59.7969 281.771Z" fill="white"/>
<path d="M59.7969 284.23L60.21 285.502L59.1287 284.716H60.4652L59.3839 285.502L59.7969 284.23Z" fill="white"/>
<path d="M59.7969 286.69L60.21 287.961L59.1287 287.175H60.4652L59.3839 287.961L59.7969 286.69Z" fill="white"/>
<path d="M59.7969 289.149L60.21 290.42L59.1287 289.634H60.4652L59.3839 290.42L59.7969 289.149Z" fill="white"/>
<path d="M61.243 280.542L61.656 281.813L60.5747 281.027H61.9113L60.83 281.813L61.243 280.542Z" fill="white"/>
<path d="M61.2427 283.001L61.6558 284.272L60.5745 283.487H61.911L60.8297 284.272L61.2427 283.001Z" fill="white"/>
<path d="M61.2427 285.46L61.6558 286.731L60.5745 285.945H61.911L60.8297 286.731L61.2427 285.46Z" fill="white"/>
<path d="M61.2427 287.919L61.6558 289.191L60.5745 288.405H61.911L60.8297 289.191L61.2427 287.919Z" fill="white"/>
<path d="M62.6898 279.312L63.1028 280.583L62.0215 279.797H63.358L62.2767 280.583L62.6898 279.312Z" fill="white"/>
<path d="M62.6898 281.771L63.1028 283.042L62.0215 282.257H63.358L62.2767 283.042L62.6898 281.771Z" fill="white"/>
<path d="M62.6898 284.23L63.1028 285.502L62.0215 284.716H63.358L62.2767 285.502L62.6898 284.23Z" fill="white"/>
<path d="M62.6898 286.69L63.1028 287.961L62.0215 287.175H63.358L62.2767 287.961L62.6898 286.69Z" fill="white"/>
<path d="M62.6898 289.149L63.1028 290.42L62.0215 289.634H63.358L62.2767 290.42L62.6898 289.149Z" fill="white"/>
</g>
</g>
<path d="M86.905 288.634C86.4723 288.634 86.0617 288.561 85.673 288.414C85.2843 288.26 84.9397 288.026 84.639 287.71C84.3383 287.388 84.1 286.981 83.924 286.489C83.748 285.998 83.66 285.411 83.66 284.729V284.509C83.66 283.849 83.748 283.281 83.924 282.804C84.1 282.328 84.3383 281.935 84.639 281.627C84.9397 281.319 85.2843 281.092 85.673 280.945C86.0617 280.791 86.4723 280.714 86.905 280.714C87.323 280.714 87.7043 280.769 88.049 280.879C88.401 280.989 88.709 281.147 88.973 281.352C89.237 281.558 89.4497 281.811 89.611 282.111C89.7797 282.412 89.886 282.753 89.93 283.134H88.83C88.7273 282.636 88.511 282.262 88.181 282.012C87.851 281.763 87.4257 281.638 86.905 281.638C86.6337 281.638 86.3697 281.69 86.113 281.792C85.8563 281.895 85.6253 282.06 85.42 282.287C85.222 282.507 85.0607 282.801 84.936 283.167C84.8187 283.534 84.76 283.981 84.76 284.509V284.729C84.76 285.287 84.826 285.756 84.958 286.137C85.09 286.511 85.2587 286.816 85.464 287.05C85.6693 287.285 85.9003 287.454 86.157 287.556C86.4137 287.659 86.663 287.71 86.905 287.71C87.477 287.71 87.9243 287.571 88.247 287.292C88.5697 287.014 88.764 286.654 88.83 286.214H89.93C89.8713 286.64 89.754 287.006 89.578 287.314C89.402 287.615 89.1783 287.864 88.907 288.062C88.643 288.26 88.3387 288.407 87.994 288.502C87.6567 288.59 87.2937 288.634 86.905 288.634ZM91.5766 280.824H92.6106V287.622H95.2946V280.824H96.3286V287.622H99.0126V280.824H100.047V288.524H91.5766V280.824ZM106.435 286.61H103.179L102.442 288.524H101.364L104.312 280.824H105.346L108.294 288.524H107.172L106.435 286.61ZM103.52 285.708H106.094L104.807 282.144L103.52 285.708Z" fill="#BCC9DB"/>
<path opacity="0.5" d="M83.8556 295.202H84.6598V297.76H87.8424V295.202H88.6467V301.191H87.8424V298.462H84.6598V301.191H83.8556V295.202ZM90.1847 296.656H90.9376V298.368H92.0241C92.5945 298.368 93.0137 298.493 93.2818 298.744C93.5556 298.995 93.6924 299.343 93.6924 299.788C93.6924 300.221 93.5556 300.564 93.2818 300.814C93.0137 301.065 92.5945 301.191 92.0241 301.191H90.1847V296.656ZM91.9813 300.524C92.335 300.524 92.5831 300.461 92.7257 300.335C92.8683 300.21 92.9396 300.025 92.9396 299.779C92.9396 299.534 92.8683 299.349 92.7257 299.223C92.5831 299.098 92.335 299.035 91.9813 299.035H90.9376V300.524H91.9813ZM94.6797 296.656H95.4326V298.547H96.0742C96.097 298.222 96.1683 297.937 96.2881 297.692C96.4079 297.441 96.559 297.233 96.7416 297.067C96.9298 296.902 97.1437 296.779 97.3832 296.699C97.6228 296.614 97.8766 296.571 98.1447 296.571C98.4356 296.571 98.7065 296.619 98.9574 296.716C99.2141 296.808 99.4366 296.947 99.6248 297.136C99.813 297.318 99.9613 297.549 100.07 297.829C100.184 298.108 100.241 298.43 100.241 298.795V298.966C100.241 299.354 100.184 299.694 100.07 299.985C99.9613 300.275 99.813 300.518 99.6248 300.712C99.4366 300.9 99.2141 301.043 98.9574 301.14C98.7065 301.231 98.4356 301.276 98.1447 301.276C97.8766 301.276 97.6199 301.237 97.3747 301.157C97.1351 301.071 96.9212 300.943 96.733 300.772C96.5505 300.601 96.3993 300.387 96.2796 300.13C96.1655 299.868 96.097 299.563 96.0742 299.215H95.4326V301.191H94.6797V296.656ZM98.1447 300.592C98.3158 300.592 98.4812 300.564 98.6409 300.506C98.8006 300.444 98.9403 300.35 99.0601 300.224C99.1856 300.093 99.2854 299.925 99.3596 299.719C99.4337 299.514 99.4708 299.263 99.4708 298.966V298.795C99.4708 298.522 99.4337 298.288 99.3596 298.094C99.2854 297.9 99.1856 297.74 99.0601 297.615C98.9403 297.489 98.8006 297.398 98.6409 297.341C98.4812 297.284 98.3158 297.255 98.1447 297.255C97.9736 297.255 97.8082 297.284 97.6484 297.341C97.4887 297.398 97.3462 297.489 97.2207 297.615C97.1009 297.74 97.0039 297.9 96.9298 298.094C96.8556 298.288 96.8186 298.522 96.8186 298.795V298.966C96.8186 299.263 96.8556 299.514 96.9298 299.719C97.0039 299.925 97.1009 300.093 97.2207 300.224C97.3462 300.35 97.4887 300.444 97.6484 300.506C97.8082 300.564 97.9736 300.592 98.1447 300.592ZM103.624 295.202H104.428V299.908L107.61 295.202H108.415V301.191H107.61V296.485L104.428 301.191H103.624V295.202ZM106.019 294.774C105.534 294.774 105.169 294.666 104.924 294.449C104.684 294.232 104.565 293.913 104.565 293.491H105.318C105.318 293.753 105.377 293.942 105.497 294.056C105.617 294.17 105.791 294.227 106.019 294.227C106.253 294.227 106.43 294.17 106.55 294.056C106.675 293.942 106.738 293.753 106.738 293.491H107.474C107.474 293.913 107.351 294.232 107.106 294.449C106.866 294.666 106.504 294.774 106.019 294.774ZM111.835 301.276C111.544 301.276 111.267 301.231 111.005 301.14C110.743 301.043 110.512 300.9 110.312 300.712C110.112 300.518 109.953 300.275 109.833 299.985C109.713 299.694 109.653 299.354 109.653 298.966V298.795C109.653 298.43 109.713 298.108 109.833 297.829C109.953 297.549 110.112 297.318 110.312 297.136C110.512 296.947 110.743 296.808 111.005 296.716C111.267 296.619 111.544 296.571 111.835 296.571C112.126 296.571 112.402 296.619 112.665 296.716C112.927 296.808 113.158 296.947 113.358 297.136C113.557 297.318 113.717 297.549 113.837 297.829C113.957 298.108 114.017 298.43 114.017 298.795V298.966C114.017 299.354 113.957 299.694 113.837 299.985C113.717 300.275 113.557 300.518 113.358 300.712C113.158 300.9 112.927 301.043 112.665 301.14C112.402 301.231 112.126 301.276 111.835 301.276ZM111.835 300.592C112.006 300.592 112.177 300.564 112.348 300.506C112.519 300.444 112.67 300.35 112.802 300.224C112.933 300.093 113.038 299.925 113.118 299.719C113.204 299.514 113.247 299.263 113.247 298.966V298.795C113.247 298.522 113.204 298.288 113.118 298.094C113.038 297.9 112.933 297.74 112.802 297.615C112.67 297.489 112.519 297.398 112.348 297.341C112.177 297.284 112.006 297.255 111.835 297.255C111.664 297.255 111.493 297.284 111.322 297.341C111.15 297.398 110.999 297.489 110.868 297.615C110.737 297.74 110.629 297.9 110.543 298.094C110.463 298.288 110.423 298.522 110.423 298.795V298.966C110.423 299.263 110.463 299.514 110.543 299.719C110.629 299.925 110.737 300.093 110.868 300.224C110.999 300.35 111.15 300.444 111.322 300.506C111.493 300.564 111.664 300.592 111.835 300.592ZM115.083 296.656H115.784V297.512C115.938 297.21 116.152 296.979 116.426 296.819C116.705 296.654 117.028 296.571 117.393 296.571C117.963 296.571 118.419 296.759 118.762 297.136C119.104 297.506 119.275 298.06 119.275 298.795V298.966C119.275 299.354 119.229 299.694 119.138 299.985C119.047 300.27 118.918 300.509 118.753 300.703C118.588 300.891 118.388 301.034 118.154 301.131C117.926 301.228 117.672 301.276 117.393 301.276C117.005 301.276 116.68 301.191 116.417 301.02C116.161 300.849 115.967 300.635 115.836 300.378V302.902H115.083V296.656ZM117.222 300.609C117.404 300.609 117.575 300.575 117.735 300.506C117.895 300.432 118.031 300.327 118.146 300.19C118.265 300.053 118.357 299.882 118.419 299.677C118.488 299.471 118.522 299.235 118.522 298.966V298.795C118.522 298.55 118.488 298.331 118.419 298.137C118.357 297.943 118.265 297.78 118.146 297.649C118.031 297.512 117.895 297.409 117.735 297.341C117.575 297.272 117.404 297.238 117.222 297.238C117.016 297.238 116.828 297.272 116.657 297.341C116.486 297.404 116.34 297.495 116.221 297.615C116.101 297.729 116.007 297.866 115.938 298.025C115.87 298.185 115.836 298.356 115.836 298.539V299.223C115.836 299.428 115.87 299.617 115.938 299.788C116.007 299.959 116.101 300.104 116.221 300.224C116.34 300.344 116.486 300.438 116.657 300.506C116.828 300.575 117.016 300.609 117.222 300.609ZM120.346 296.656H121.099V298.556H121.698L123.392 296.656H124.282L122.314 298.83L124.367 301.191H123.409L121.698 299.206H121.099V301.191H120.346V296.656Z" fill="#BCC9DB"/>
<line x1="187.474" y1="277.611" x2="187.474" y2="303.104" stroke="#525760" stroke-width="0.670859"/>
<path opacity="0.5" d="M201.853 296.444H203.785C204.156 296.444 204.478 296.487 204.751 296.573C205.025 296.659 205.251 296.779 205.428 296.935C205.61 297.085 205.744 297.268 205.83 297.482C205.916 297.692 205.959 297.922 205.959 298.175C205.959 298.427 205.916 298.66 205.83 298.875C205.744 299.084 205.61 299.267 205.428 299.422C205.251 299.573 205.025 299.691 204.751 299.777C204.478 299.863 204.156 299.906 203.785 299.906H202.61V302.079H201.853V296.444ZM203.745 299.245C204.014 299.245 204.239 299.221 204.421 299.173C204.609 299.119 204.76 299.047 204.872 298.956C204.99 298.864 205.074 298.752 205.122 298.617C205.175 298.483 205.202 298.336 205.202 298.175C205.202 298.014 205.175 297.866 205.122 297.732C205.074 297.598 204.99 297.485 204.872 297.394C204.76 297.303 204.609 297.233 204.421 297.185C204.239 297.131 204.014 297.104 203.745 297.104H202.61V299.245H203.745ZM208.014 296.444H208.771V302.079H208.014V296.444ZM211.27 296.444H212.011L215.038 300.831V296.444H215.778V302.079H215.038L212.011 297.692V302.079H211.27V296.444ZM220.325 302.16C219.992 302.16 219.675 302.106 219.375 301.999C219.08 301.886 218.819 301.714 218.594 301.483C218.374 301.247 218.197 300.949 218.063 300.59C217.934 300.23 217.869 299.801 217.869 299.302V299.141C217.869 298.658 217.934 298.242 218.063 297.893C218.197 297.544 218.374 297.257 218.594 297.032C218.819 296.806 219.08 296.64 219.375 296.532C219.675 296.42 219.992 296.363 220.325 296.363C220.598 296.363 220.853 296.404 221.09 296.484C221.326 296.559 221.538 296.669 221.726 296.814C221.913 296.959 222.072 297.136 222.2 297.346C222.335 297.555 222.434 297.791 222.498 298.054H221.693C221.575 297.7 221.39 297.442 221.138 297.281C220.886 297.12 220.615 297.04 220.325 297.04C220.105 297.04 219.895 297.077 219.697 297.152C219.498 297.227 219.321 297.348 219.166 297.515C219.015 297.676 218.894 297.89 218.803 298.159C218.717 298.427 218.674 298.754 218.674 299.141V299.302C218.674 299.71 218.723 300.053 218.819 300.332C218.916 300.606 219.042 300.829 219.198 301C219.359 301.172 219.536 301.296 219.729 301.371C219.928 301.446 220.126 301.483 220.325 301.483C220.77 301.483 221.132 301.357 221.412 301.105C221.691 300.853 221.852 300.44 221.895 299.865H220.486V299.221H222.619V299.463C222.619 299.897 222.565 300.284 222.458 300.622C222.351 300.955 222.198 301.237 221.999 301.467C221.806 301.693 221.567 301.864 221.283 301.982C220.998 302.101 220.679 302.16 220.325 302.16Z" fill="#BCC9DB"/>
<path d="M207.04 290.799C206.43 290.799 205.884 290.706 205.401 290.519C204.919 290.332 204.506 290.041 204.162 289.648C203.827 289.254 203.571 288.757 203.394 288.157C203.217 287.547 203.129 286.824 203.129 285.988V285.692C203.129 284.689 203.232 283.838 203.438 283.139C203.645 282.431 203.93 281.855 204.294 281.412C204.659 280.97 205.087 280.65 205.579 280.453C206.07 280.246 206.607 280.143 207.187 280.143C208.063 280.143 208.786 280.34 209.357 280.733C209.927 281.117 210.287 281.737 210.434 282.593H208.663C208.555 282.278 208.378 282.052 208.132 281.914C207.886 281.776 207.571 281.708 207.187 281.708C206.853 281.708 206.543 281.762 206.257 281.87C205.972 281.968 205.721 282.145 205.505 282.401C205.288 282.657 205.116 283.006 204.988 283.449C204.86 283.882 204.791 284.433 204.782 285.102C204.909 284.886 205.067 284.704 205.254 284.556C205.451 284.399 205.662 284.276 205.888 284.187C206.125 284.089 206.366 284.02 206.612 283.98C206.858 283.931 207.099 283.907 207.335 283.907C208.378 283.907 209.19 284.192 209.77 284.763C210.36 285.333 210.656 286.145 210.656 287.198V287.345C210.656 287.857 210.562 288.324 210.375 288.748C210.198 289.171 209.947 289.535 209.622 289.84C209.298 290.145 208.914 290.381 208.471 290.548C208.028 290.715 207.551 290.799 207.04 290.799ZM206.922 289.235C207.512 289.235 207.984 289.062 208.338 288.718C208.702 288.364 208.885 287.906 208.885 287.345V287.198C208.885 286.647 208.702 286.199 208.338 285.855C207.984 285.501 207.512 285.324 206.922 285.324C206.331 285.324 205.854 285.501 205.49 285.855C205.136 286.199 204.959 286.647 204.959 287.198V287.345C204.959 287.906 205.136 288.364 205.49 288.718C205.854 289.062 206.331 289.235 206.922 289.235ZM215.677 290.799C214.772 290.799 214.029 290.607 213.448 290.223C212.868 289.83 212.504 289.205 212.356 288.349H214.127C214.236 288.664 214.418 288.89 214.673 289.028C214.929 289.166 215.264 289.235 215.677 289.235C215.992 289.235 216.287 289.185 216.563 289.087C216.838 288.979 217.079 288.797 217.286 288.541C217.502 288.285 217.674 287.941 217.802 287.508C217.93 287.065 217.999 286.509 218.009 285.84C217.881 286.057 217.719 286.243 217.522 286.401C217.335 286.549 217.123 286.671 216.887 286.77C216.661 286.858 216.425 286.927 216.179 286.977C215.933 287.016 215.692 287.036 215.456 287.036C214.413 287.036 213.596 286.75 213.006 286.18C212.425 285.599 212.135 284.787 212.135 283.744V283.597C212.135 283.085 212.223 282.618 212.401 282.195C212.588 281.772 212.843 281.407 213.168 281.102C213.493 280.797 213.876 280.561 214.319 280.394C214.762 280.227 215.239 280.143 215.751 280.143C216.371 280.143 216.922 280.237 217.404 280.424C217.886 280.611 218.294 280.901 218.629 281.294C218.963 281.678 219.219 282.175 219.396 282.785C219.573 283.395 219.662 284.118 219.662 284.955V285.25C219.662 286.253 219.559 287.109 219.352 287.818C219.145 288.516 218.86 289.087 218.496 289.53C218.142 289.973 217.724 290.297 217.241 290.504C216.759 290.701 216.238 290.799 215.677 290.799ZM215.869 285.619C216.459 285.619 216.932 285.447 217.286 285.102C217.65 284.748 217.832 284.295 217.832 283.744V283.597C217.832 283.331 217.783 283.085 217.684 282.859C217.586 282.623 217.448 282.421 217.271 282.254C217.104 282.077 216.897 281.944 216.651 281.855C216.415 281.757 216.154 281.708 215.869 281.708C215.279 281.708 214.801 281.885 214.437 282.239C214.083 282.583 213.906 283.036 213.906 283.597V283.744C213.906 284.295 214.083 284.748 214.437 285.102C214.801 285.447 215.279 285.619 215.869 285.619Z" fill="#28F1A9"/>
<rect x="52.4443" y="315.326" width="139.944" height="26.5556" rx="7.33333" fill="#28F1A9"/>
<path d="M95.5765 325.971H99.7565V331.104H98.8765V326.733H96.4565V331.104H95.5765V325.971ZM102.727 331.185C102.458 331.185 102.206 331.143 101.971 331.06C101.741 330.972 101.541 330.845 101.37 330.679C101.199 330.512 101.064 330.307 100.967 330.063C100.869 329.813 100.82 329.525 100.82 329.197V329.051C100.82 328.743 100.869 328.471 100.967 328.237C101.064 327.997 101.199 327.797 101.37 327.635C101.541 327.469 101.741 327.344 101.971 327.261C102.206 327.178 102.458 327.137 102.727 327.137C102.995 327.137 103.245 327.178 103.475 327.261C103.709 327.344 103.912 327.469 104.083 327.635C104.254 327.797 104.389 327.997 104.487 328.237C104.584 328.471 104.633 328.743 104.633 329.051V329.197C104.633 329.525 104.584 329.813 104.487 330.063C104.389 330.307 104.254 330.512 104.083 330.679C103.912 330.845 103.709 330.972 103.475 331.06C103.245 331.143 102.995 331.185 102.727 331.185ZM102.727 330.481C102.868 330.481 103.003 330.456 103.13 330.407C103.262 330.358 103.377 330.283 103.475 330.18C103.577 330.077 103.658 329.945 103.717 329.784C103.78 329.623 103.812 329.427 103.812 329.197V329.051C103.812 328.84 103.78 328.66 103.717 328.508C103.658 328.356 103.577 328.232 103.475 328.134C103.377 328.036 103.262 327.963 103.13 327.914C103.003 327.865 102.868 327.841 102.727 327.841C102.585 327.841 102.448 327.865 102.316 327.914C102.189 327.963 102.074 328.036 101.971 328.134C101.873 328.232 101.793 328.356 101.729 328.508C101.671 328.66 101.641 328.84 101.641 329.051V329.197C101.641 329.427 101.671 329.623 101.729 329.784C101.793 329.945 101.873 330.077 101.971 330.18C102.074 330.283 102.189 330.358 102.316 330.407C102.448 330.456 102.585 330.481 102.727 330.481ZM105.144 330.415H105.585C105.633 330.341 105.677 330.231 105.717 330.085C105.761 329.938 105.797 329.772 105.827 329.586C105.856 329.395 105.878 329.192 105.893 328.977C105.907 328.757 105.915 328.537 105.915 328.317V327.217H108.811V330.415H109.325V332.021H108.577V331.104H105.893V332.021H105.144V330.415ZM108.005 330.415V327.907H106.692V328.464C106.692 328.84 106.67 329.202 106.626 329.549C106.582 329.892 106.509 330.18 106.406 330.415H108.005ZM110.133 327.217H110.94V328.794H111.38L112.744 327.217H113.653L112.003 329.073L113.726 331.104H112.744L111.38 329.454H110.94V331.104H110.133V327.217ZM114.495 331.185C114.456 331.185 114.412 331.182 114.363 331.177C114.319 331.177 114.278 331.172 114.238 331.163V330.4C114.263 330.405 114.3 330.407 114.348 330.407C114.451 330.407 114.539 330.378 114.612 330.319C114.686 330.256 114.744 330.148 114.788 329.997C114.837 329.84 114.874 329.632 114.898 329.373C114.923 329.114 114.935 328.787 114.935 328.391V327.217H117.868V331.104H117.062V327.907H115.712V328.537C115.712 329.06 115.686 329.493 115.632 329.835C115.583 330.173 115.507 330.442 115.404 330.642C115.302 330.842 115.175 330.984 115.023 331.067C114.872 331.146 114.696 331.185 114.495 331.185ZM119.004 327.217H119.811V328.779H120.243C120.268 328.515 120.331 328.283 120.434 328.083C120.537 327.877 120.666 327.706 120.823 327.569C120.984 327.428 121.167 327.32 121.373 327.247C121.583 327.173 121.808 327.137 122.047 327.137C122.306 327.137 122.548 327.178 122.773 327.261C122.998 327.344 123.191 327.469 123.353 327.635C123.519 327.797 123.648 327.997 123.741 328.237C123.834 328.471 123.881 328.743 123.881 329.051V329.197C123.881 329.525 123.834 329.813 123.741 330.063C123.648 330.307 123.519 330.512 123.353 330.679C123.191 330.845 122.998 330.972 122.773 331.06C122.548 331.143 122.306 331.185 122.047 331.185C121.803 331.185 121.575 331.148 121.365 331.075C121.16 331.001 120.977 330.894 120.815 330.752C120.659 330.605 120.529 330.427 120.427 330.217C120.329 330.002 120.268 329.752 120.243 329.469H119.811V331.104H119.004V327.217ZM122.047 330.481C122.179 330.481 122.306 330.456 122.429 330.407C122.551 330.358 122.658 330.283 122.751 330.18C122.844 330.077 122.917 329.945 122.971 329.784C123.03 329.623 123.059 329.427 123.059 329.197V329.051C123.059 328.84 123.03 328.66 122.971 328.508C122.917 328.356 122.844 328.232 122.751 328.134C122.658 328.036 122.551 327.963 122.429 327.914C122.306 327.865 122.179 327.841 122.047 327.841C121.915 327.841 121.788 327.865 121.666 327.914C121.544 327.963 121.436 328.036 121.343 328.134C121.25 328.232 121.175 328.356 121.116 328.508C121.062 328.66 121.035 328.84 121.035 329.051V329.197C121.035 329.427 121.062 329.623 121.116 329.784C121.175 329.945 121.25 330.077 121.343 330.18C121.436 330.283 121.544 330.358 121.666 330.407C121.788 330.456 121.915 330.481 122.047 330.481ZM127.073 329.615C126.961 329.684 126.827 329.745 126.67 329.799C126.519 329.852 126.323 329.879 126.083 329.879C125.619 329.879 125.265 329.769 125.02 329.549C124.776 329.329 124.653 328.98 124.653 328.501V327.217H125.46V328.391C125.46 328.684 125.519 328.889 125.636 329.007C125.758 329.119 125.969 329.175 126.267 329.175C126.472 329.175 126.643 329.153 126.78 329.109C126.922 329.06 127.02 329.014 127.073 328.97V327.217H127.88V331.104H127.073V329.615ZM129.014 327.217H129.82V329.967L131.69 327.217H132.46V331.104H131.654V328.354L129.784 331.104H129.014V327.217ZM134.516 327.907H133.233V327.217H136.606V327.907H135.323V331.104H134.516V327.907ZM137.45 327.217H138.256V328.581H139.136C139.635 328.581 140.004 328.689 140.244 328.904C140.483 329.114 140.603 329.427 140.603 329.843C140.603 330.234 140.486 330.542 140.251 330.767C140.016 330.992 139.645 331.104 139.136 331.104H137.45V327.217ZM139.063 330.415C139.332 330.415 139.52 330.368 139.628 330.275C139.74 330.178 139.796 330.033 139.796 329.843C139.796 329.652 139.74 329.51 139.628 329.417C139.52 329.32 139.332 329.271 139.063 329.271H138.256V330.415H139.063ZM143.131 331.185C142.867 331.185 142.623 331.146 142.398 331.067C142.178 330.984 141.985 330.86 141.819 330.693C141.657 330.527 141.53 330.319 141.437 330.07C141.345 329.821 141.298 329.53 141.298 329.197V329.051C141.298 328.738 141.347 328.462 141.445 328.222C141.543 327.982 141.675 327.782 141.841 327.621C142.012 327.459 142.207 327.34 142.427 327.261C142.652 327.178 142.887 327.137 143.131 327.137C143.386 327.137 143.611 327.171 143.806 327.239C144.007 327.308 144.175 327.403 144.312 327.525C144.454 327.643 144.566 327.782 144.649 327.943C144.733 328.105 144.789 328.278 144.818 328.464H143.997C143.948 328.283 143.86 328.134 143.733 328.017C143.606 327.899 143.405 327.841 143.131 327.841C142.995 327.841 142.865 327.865 142.743 327.914C142.621 327.958 142.513 328.029 142.42 328.127C142.327 328.224 142.254 328.352 142.2 328.508C142.146 328.66 142.119 328.84 142.119 329.051V329.197C142.119 329.427 142.146 329.625 142.2 329.791C142.254 329.953 142.327 330.085 142.42 330.187C142.513 330.29 142.621 330.366 142.743 330.415C142.865 330.459 142.995 330.481 143.131 330.481C143.586 330.481 143.875 330.273 143.997 329.857H144.818C144.779 330.063 144.711 330.248 144.613 330.415C144.52 330.576 144.4 330.715 144.253 330.833C144.107 330.945 143.938 331.033 143.747 331.097C143.557 331.155 143.351 331.185 143.131 331.185ZM146.451 329.63C146.158 329.542 145.94 329.398 145.798 329.197C145.657 328.997 145.586 328.755 145.586 328.471C145.586 328.09 145.713 327.787 145.967 327.562C146.221 327.332 146.608 327.217 147.126 327.217H148.886V331.104H148.079V329.725H147.243L146.378 331.104H145.439L146.451 329.63ZM146.407 328.471C146.407 328.677 146.468 328.823 146.59 328.911C146.713 328.994 146.879 329.036 147.089 329.036H148.079V327.907H147.089C146.879 327.907 146.713 327.951 146.59 328.039C146.468 328.122 146.407 328.266 146.407 328.471Z" fill="#222429"/>
<rect x="197.278" y="315.326" width="26.8889" height="26.5556" rx="7.33333" fill="#28F1A9" fill-opacity="0.1"/>
<path fill-rule="evenodd" clip-rule="evenodd" d="M208.442 326.979C208.755 326.019 209.253 325.176 209.874 324.509L210.632 323.906L211.39 324.509C212.012 325.176 212.509 326.019 212.822 326.979L208.442 326.979ZM204.74 327.688C204.655 328.082 204.611 328.49 204.611 328.909C204.611 329.524 204.706 330.116 204.883 330.672H207.233C207.165 330.235 207.129 329.785 207.129 329.324C207.129 328.846 207.168 328.379 207.242 327.926H204.74L204.74 327.688ZM205.28 331.619C206.033 333.043 207.361 334.116 208.955 334.53C208.272 333.72 207.746 332.727 207.438 331.619H205.28ZM210.673 334.709C210.647 334.711 210.621 334.712 210.595 334.712L209.874 334.139C209.242 333.461 208.738 332.6 208.426 331.619H212.838C212.527 332.6 212.022 333.461 211.39 334.139L210.673 334.709ZM212.459 334.345C213.793 333.844 214.893 332.866 215.552 331.619H213.826C213.541 332.644 213.07 333.572 212.459 334.345ZM215.95 330.672C216.126 330.116 216.222 329.524 216.222 328.909C216.222 328.574 216.194 328.246 216.139 327.926H214.023C214.096 328.379 214.135 328.846 214.135 329.324C214.135 329.785 214.099 330.235 214.031 330.672H215.95ZM215.893 326.979C215.183 324.963 213.39 323.456 211.212 323.158L212.032 323.81C212.84 324.658 213.46 325.746 213.812 326.979H215.893ZM210.11 323.112L209.232 323.81C208.424 324.658 207.804 325.746 207.453 326.979H204.939C205.703 324.813 207.714 323.236 210.11 323.112ZM208.076 329.324C208.076 329.788 208.116 330.238 208.193 330.672L213.071 330.672C213.148 330.238 213.188 329.788 213.188 329.324C213.188 328.843 213.144 328.375 213.062 327.926L208.202 327.926C208.12 328.375 208.076 328.843 208.076 329.324Z" fill="#28F1A9"/>
<rect x="39.9166" y="265.084" width="196.167" height="89.326" rx="14.9722" stroke="url(#paint1_linear_569_17781)" stroke-width="0.611111"/>
<path d="M50.6112 31.2315C51.3395 31.2315 51.9353 30.6357 51.9353 29.9074H49.2872C49.2872 30.6357 49.883 31.2315 50.6112 31.2315ZM54.5835 27.2593V23.9491C54.5835 21.9166 53.5043 20.2152 51.6043 19.765V19.3148C51.6043 18.7653 51.1607 18.3218 50.6112 18.3218C50.0617 18.3218 49.6182 18.7653 49.6182 19.3148V19.765C47.7248 20.2152 46.639 21.91 46.639 23.9491V27.2593L45.3149 28.5834V29.2454H55.9075V28.5834L54.5835 27.2593ZM53.2594 27.9213H47.9631V23.9491C47.9631 22.3072 48.9628 20.9699 50.6112 20.9699C52.2597 20.9699 53.2594 22.3072 53.2594 23.9491V27.9213Z" fill="#BCC9DB"/>
<path d="M50.6112 31.3216C51.3395 31.3216 51.9353 30.7238 51.9353 29.9932H49.2872C49.2872 30.7238 49.883 31.3216 50.6112 31.3216ZM54.5835 27.3364V24.0154C54.5835 21.9763 53.5043 20.2693 51.6043 19.8176V19.3659C51.6043 18.8146 51.1607 18.3696 50.6112 18.3696C50.0617 18.3696 49.6182 18.8146 49.6182 19.3659V19.8176C47.7248 20.2693 46.639 21.9696 46.639 24.0154V27.3364L45.3149 28.6648V29.329H55.9075V28.6648L54.5835 27.3364ZM53.2594 28.0006H47.9631V24.0154C47.9631 22.3681 48.9628 21.0264 50.6112 21.0264C52.2597 21.0264 53.2594 22.3681 53.2594 24.0154V28.0006Z" fill="#BCC9DB"/>
<line x1="218.056" y1="19.1115" x2="233.333" y2="19.1115" stroke="#BCC9DB" stroke-width="1.22222"/>
<line x1="218.056" y1="24.0002" x2="233.333" y2="24.0002" stroke="#BCC9DB" stroke-width="1.22222"/>
<line x1="218.056" y1="28.8889" x2="233.333" y2="28.8889" stroke="#BCC9DB" stroke-width="1.22222"/>
</g>
<rect x="27" y="1" width="222" height="371.722" rx="20" stroke="#33363D" stroke-width="2"/>
</g>
<circle opacity="0.05" cx="138.924" cy="319.924" r="66.4173" fill="url(#paint2_radial_569_17781)" stroke="#33FFB6" stroke-width="1.014"/>
<circle opacity="0.05" cx="138.924" cy="319.924" r="52.2212" fill="url(#paint3_radial_569_17781)" stroke="#33FFB6" stroke-width="1.014"/>
<circle opacity="0.2" cx="138.924" cy="319.924" r="37.0112" fill="url(#paint4_radial_569_17781)" stroke="#33FFB6" stroke-width="1.014"/>
<rect y="294.618" width="277" height="52.2561" rx="10.5433" fill="#28F1A9"/>
<path d="M118.655 324.873C118.155 324.873 117.689 324.796 117.258 324.642C116.835 324.488 116.466 324.246 116.15 323.915C115.835 323.584 115.585 323.161 115.4 322.646C115.223 322.122 115.135 321.495 115.135 320.764V320.533C115.135 319.833 115.227 319.233 115.412 318.733C115.596 318.225 115.847 317.81 116.162 317.486C116.485 317.163 116.858 316.925 117.282 316.771C117.712 316.617 118.17 316.54 118.655 316.54C119.101 316.54 119.517 316.598 119.901 316.713C120.286 316.821 120.621 316.986 120.906 317.209C121.198 317.433 121.433 317.71 121.61 318.04C121.794 318.371 121.906 318.76 121.944 319.206H120.49C120.39 318.706 120.175 318.34 119.844 318.11C119.521 317.879 119.124 317.763 118.655 317.763C118.401 317.763 118.151 317.81 117.905 317.902C117.659 317.994 117.435 318.148 117.235 318.364C117.043 318.579 116.885 318.864 116.762 319.218C116.647 319.572 116.589 320.01 116.589 320.533V320.764C116.589 321.318 116.651 321.78 116.774 322.149C116.905 322.519 117.07 322.815 117.27 323.038C117.47 323.261 117.689 323.419 117.928 323.511C118.174 323.603 118.416 323.65 118.655 323.65C119.209 323.65 119.636 323.523 119.936 323.269C120.244 323.007 120.429 322.653 120.49 322.207H121.944C121.898 322.684 121.783 323.092 121.598 323.43C121.413 323.769 121.175 324.046 120.883 324.261C120.598 324.469 120.263 324.623 119.878 324.723C119.501 324.823 119.094 324.873 118.655 324.873ZM126.104 324.873C125.681 324.873 125.285 324.808 124.916 324.677C124.554 324.538 124.238 324.338 123.969 324.077C123.7 323.815 123.488 323.492 123.334 323.107C123.18 322.715 123.103 322.261 123.103 321.745V321.514C123.103 321.03 123.18 320.603 123.334 320.233C123.488 319.856 123.7 319.541 123.969 319.287C124.238 319.025 124.554 318.829 124.916 318.698C125.285 318.567 125.681 318.502 126.104 318.502C126.528 318.502 126.92 318.567 127.282 318.698C127.651 318.829 127.97 319.025 128.24 319.287C128.509 319.541 128.72 319.856 128.874 320.233C129.028 320.603 129.105 321.03 129.105 321.514V321.745C129.105 322.261 129.028 322.715 128.874 323.107C128.72 323.492 128.509 323.815 128.24 324.077C127.97 324.338 127.651 324.538 127.282 324.677C126.92 324.808 126.528 324.873 126.104 324.873ZM126.104 323.765C126.327 323.765 126.539 323.727 126.739 323.65C126.947 323.573 127.128 323.453 127.282 323.292C127.443 323.13 127.57 322.923 127.662 322.669C127.762 322.415 127.812 322.107 127.812 321.745V321.514C127.812 321.184 127.762 320.899 127.662 320.66C127.57 320.422 127.443 320.226 127.282 320.072C127.128 319.918 126.947 319.802 126.739 319.725C126.539 319.649 126.327 319.61 126.104 319.61C125.881 319.61 125.666 319.649 125.458 319.725C125.258 319.802 125.077 319.918 124.916 320.072C124.762 320.226 124.635 320.422 124.535 320.66C124.442 320.899 124.396 321.184 124.396 321.514V321.745C124.396 322.107 124.442 322.415 124.535 322.669C124.635 322.923 124.762 323.13 124.916 323.292C125.077 323.453 125.258 323.573 125.458 323.65C125.666 323.727 125.881 323.765 126.104 323.765ZM130.543 318.629H131.721V319.656C131.867 319.348 132.105 319.079 132.436 318.848C132.767 318.617 133.194 318.502 133.717 318.502C134.464 318.502 135.025 318.706 135.402 319.114C135.779 319.514 135.968 320.102 135.968 320.88V324.746H134.698V321.168C134.698 320.653 134.591 320.264 134.375 320.002C134.16 319.741 133.806 319.61 133.313 319.61C133.044 319.61 132.813 319.656 132.621 319.749C132.436 319.833 132.282 319.949 132.159 320.095C132.044 320.233 131.955 320.399 131.894 320.591C131.84 320.776 131.813 320.968 131.813 321.168V324.746H130.543V318.629ZM137.705 318.629H138.882V319.656C139.028 319.348 139.267 319.079 139.597 318.848C139.928 318.617 140.355 318.502 140.879 318.502C141.625 318.502 142.187 318.706 142.564 319.114C142.941 319.514 143.129 320.102 143.129 320.88V324.746H141.86V321.168C141.86 320.653 141.752 320.264 141.536 320.002C141.321 319.741 140.967 319.61 140.475 319.61C140.205 319.61 139.974 319.656 139.782 319.749C139.597 319.833 139.444 319.949 139.32 320.095C139.205 320.233 139.117 320.399 139.055 320.591C139.001 320.776 138.974 320.968 138.974 321.168V324.746H137.705V318.629ZM147.52 324.873C147.113 324.873 146.728 324.811 146.366 324.688C146.005 324.558 145.685 324.365 145.408 324.111C145.139 323.85 144.924 323.523 144.762 323.13C144.6 322.738 144.52 322.276 144.52 321.745V321.514C144.52 321.007 144.597 320.564 144.75 320.187C144.904 319.81 145.112 319.498 145.374 319.252C145.643 318.998 145.951 318.81 146.297 318.687C146.643 318.564 147.013 318.502 147.405 318.502C148.336 318.502 149.048 318.752 149.54 319.252C150.04 319.752 150.29 320.468 150.29 321.399V322.045H145.812C145.82 322.361 145.87 322.63 145.962 322.853C146.062 323.069 146.189 323.246 146.343 323.384C146.505 323.515 146.686 323.611 146.886 323.673C147.093 323.734 147.305 323.765 147.52 323.765C147.959 323.765 148.278 323.696 148.478 323.557C148.686 323.419 148.828 323.238 148.905 323.015H150.175C150.052 323.623 149.748 324.084 149.263 324.4C148.786 324.715 148.205 324.873 147.52 324.873ZM147.463 319.61C147.247 319.61 147.04 319.637 146.839 319.691C146.647 319.745 146.474 319.833 146.32 319.956C146.174 320.072 146.055 320.226 145.962 320.418C145.87 320.603 145.82 320.83 145.812 321.099H149.021C149.013 320.814 148.967 320.576 148.882 320.383C148.805 320.191 148.698 320.037 148.559 319.922C148.421 319.806 148.255 319.725 148.063 319.679C147.878 319.633 147.678 319.61 147.463 319.61ZM154.273 324.873C153.858 324.873 153.473 324.811 153.119 324.688C152.773 324.558 152.469 324.361 152.207 324.1C151.953 323.838 151.753 323.511 151.607 323.119C151.461 322.726 151.388 322.268 151.388 321.745V321.514C151.388 321.022 151.465 320.587 151.619 320.21C151.773 319.833 151.98 319.518 152.242 319.264C152.511 319.01 152.819 318.821 153.165 318.698C153.519 318.567 153.888 318.502 154.273 318.502C154.673 318.502 155.027 318.556 155.335 318.664C155.651 318.771 155.916 318.921 156.131 319.114C156.355 319.298 156.532 319.518 156.662 319.772C156.793 320.026 156.882 320.299 156.928 320.591H155.635C155.558 320.306 155.42 320.072 155.22 319.887C155.02 319.702 154.704 319.61 154.273 319.61C154.058 319.61 153.854 319.649 153.661 319.725C153.469 319.795 153.3 319.906 153.154 320.06C153.007 320.214 152.892 320.414 152.807 320.66C152.723 320.899 152.68 321.184 152.68 321.514V321.745C152.68 322.107 152.723 322.419 152.807 322.68C152.892 322.934 153.007 323.142 153.154 323.303C153.3 323.465 153.469 323.584 153.661 323.661C153.854 323.73 154.058 323.765 154.273 323.765C154.989 323.765 155.443 323.438 155.635 322.784H156.928C156.866 323.107 156.759 323.4 156.605 323.661C156.458 323.915 156.27 324.134 156.039 324.319C155.808 324.496 155.543 324.635 155.243 324.735C154.943 324.827 154.619 324.873 154.273 324.873ZM160.675 324.804C159.975 324.804 159.471 324.654 159.163 324.354C158.863 324.054 158.713 323.569 158.713 322.899V319.714H157.848V318.629H158.713V317.244H159.983V318.629H161.541V319.714H159.983V322.726C159.983 323.088 160.048 323.342 160.179 323.488C160.317 323.627 160.579 323.696 160.964 323.696C161.195 323.696 161.425 323.684 161.656 323.661V324.746C161.51 324.761 161.36 324.773 161.206 324.781C161.052 324.796 160.875 324.804 160.675 324.804Z" fill="#222429"/>
</g>
<defs>
<linearGradient id="paint0_linear_569_17781" x1="28" y1="2" x2="166.531" y2="322.746" gradientUnits="userSpaceOnUse">
<stop offset="0.166667" stop-color="#2F3136"/>
<stop offset="1" stop-color="#121416"/>
</linearGradient>
<linearGradient id="paint1_linear_569_17781" x1="138" y1="265.389" x2="138" y2="356.772" gradientUnits="userSpaceOnUse">
<stop stop-color="#333639"/>
<stop offset="1" stop-color="#2A2D2F" stop-opacity="0.86"/>
</linearGradient>
<radialGradient id="paint2_radial_569_17781" cx="0" cy="0" r="1" gradientUnits="userSpaceOnUse" gradientTransform="translate(138.924 319.924) rotate(90) scale(66.9243)">
<stop stop-color="#4CD0A1" stop-opacity="0.08"/>
<stop offset="1" stop-color="#4CD0A1"/>
</radialGradient>
<radialGradient id="paint3_radial_569_17781" cx="0" cy="0" r="1" gradientUnits="userSpaceOnUse" gradientTransform="translate(138.924 319.924) rotate(90) scale(52.7282)">
<stop stop-color="#4CD0A1" stop-opacity="0.08"/>
<stop offset="1" stop-color="#4CD0A1"/>
</radialGradient>
<radialGradient id="paint4_radial_569_17781" cx="0" cy="0" r="1" gradientUnits="userSpaceOnUse" gradientTransform="translate(138.924 319.924) rotate(90) scale(37.5182)">
<stop stop-color="#4CD0A1" stop-opacity="0.08"/>
<stop offset="1" stop-color="#4CD0A1"/>
</radialGradient>
<clipPath id="clip0_569_17781">
<rect width="277" height="387" fill="white"/>
</clipPath>
<clipPath id="clip1_569_17781">
<rect x="28" y="2" width="220" height="369.722" rx="19" fill="white"/>
</clipPath>
<clipPath id="clip2_569_17781">
<rect width="43.3896" height="22.8366" fill="white" transform="translate(46.78 278.785)"/>
</clipPath>
</defs>
</svg>
