<svg width="16" height="16" viewBox="0 0 16 16" fill="none" xmlns="http://www.w3.org/2000/svg">
<path d="M1.33333 0.5C0.873096 0.5 0.5 0.873096 0.5 1.33333V11.3333C0.5 11.7936 0.873096 12.1667 1.33333 12.1667H2.16667V2.16667H12.1667V1.33333C12.1667 0.873096 11.7936 0.5 11.3333 0.5H1.33333Z" fill="#BCC9DB"/>
<path fill-rule="evenodd" clip-rule="evenodd" d="M4.66667 3.83333C4.20643 3.83333 3.83333 4.20643 3.83333 4.66667V14.6667C3.83333 15.1269 4.20643 15.5 4.66667 15.5H14.6667C15.1269 15.5 15.5 15.1269 15.5 14.6667V4.66667C15.5 4.20643 15.1269 3.83333 14.6667 3.83333H4.66667ZM5.5 13.8333V5.5H13.8333V13.8333H5.5Z" fill="#BCC9DB"/>
</svg>
