<svg width="12" height="11" viewBox="0 0 12 11" fill="none" xmlns="http://www.w3.org/2000/svg">
<path d="M0.498047 10.999C0.361328 10.999 0.244141 10.9502 0.146484 10.8525C0.0488281 10.7471 0 10.6299 0 10.501C0 10.3643 0.0488281 10.2471 0.146484 10.1494L4.79297 5.50293L0.146484 0.856445C0.0488281 0.758789 0 0.639648 0 0.499023C0 0.393555 0.0292969 0.299805 0.0878906 0.217773L0.146484 0.147461C0.244141 0.0498047 0.361328 0.000976562 0.498047 0.000976562C0.603516 0.000976562 0.699219 0.0302734 0.785156 0.0888672L0.855469 0.147461L5.50195 4.79395L10.1484 0.147461C10.2422 0.0498047 10.3594 0.000976562 10.5 0.000976562C10.6406 0.000976562 10.7578 0.0498047 10.8516 0.147461C10.9531 0.241211 11.0039 0.358398 11.0039 0.499023C11.0039 0.635742 10.9531 0.754883 10.8516 0.856445L6.20508 5.50293L10.8516 10.1494C10.9492 10.2432 10.998 10.3604 10.998 10.501C10.998 10.6025 10.9688 10.6982 10.9102 10.7881L10.8516 10.8525C10.7578 10.9502 10.6406 10.999 10.5 10.999C10.3984 10.999 10.3027 10.9697 10.2129 10.9111L10.1484 10.8525L5.50195 6.20605L0.855469 10.8525C0.757812 10.9502 0.638672 10.999 0.498047 10.999Z" fill="#28F1A9"/>
</svg>
