<svg width="20" height="28" viewBox="0 0 20 28" fill="none" xmlns="http://www.w3.org/2000/svg">
<path fill-rule="evenodd" clip-rule="evenodd" d="M12.9009 24.6667V22.5746C12.9009 22.3828 12.9049 22.1912 12.9127 22H6.79086C6.79423 22.1274 6.79593 22.255 6.79593 22.3827V24.6667H12.9009ZM14.6431 15.8112C14.0294 16.9193 13.572 18.1051 13.2803 19.3333H11.4721V14.9701L12.9029 11.9103C13.2134 11.2464 12.9407 10.4499 12.294 10.1313C11.6473 9.81264 10.8713 10.0925 10.5609 10.7563L9.94891 12.065L8.88921 10.5543C8.47004 9.95665 7.65828 9.82101 7.0761 10.2513C6.49392 10.6815 6.36177 11.5148 6.78094 12.1124L8.87423 15.0967V19.3333H6.47045C6.2237 18.1913 5.83845 17.0813 5.3209 16.0302L3.99952 13.3464C1.73966 8.75658 4.98925 3.33332 9.99931 3.33332C15.1546 3.33332 18.3913 9.04434 15.8433 13.6445L14.6431 15.8112ZM9.99931 0.666656C3.05313 0.666656 -1.45223 8.18571 1.68094 14.5493L3.00231 17.233C3.78846 18.8297 4.19804 20.5937 4.19804 22.3827V24.7643C4.19804 26.1831 5.31859 27.3333 6.70084 27.3333H13.1657C14.4543 27.3333 15.4988 26.2611 15.4988 24.9385V22.5746C15.4988 20.6654 15.9822 18.7889 16.9015 17.1292L18.1016 14.9626C21.6344 8.58467 17.1468 0.666656 9.99931 0.666656Z" fill="#BCC9DB"/>
</svg>
