<svg width="20" height="20" viewBox="0 0 20 20" fill="none" xmlns="http://www.w3.org/2000/svg">
<g clip-path="url(#clip0_401_13917)">
<path d="M8.92 11.748C8.92 11.396 9.024 11.06 9.232 10.74C9.448 10.42 9.68 10.164 9.928 9.972C10.176 9.772 10.404 9.54 10.612 9.276C10.828 9.012 10.936 8.748 10.936 8.484C10.936 8.204 10.84 7.988 10.648 7.836C10.456 7.684 10.188 7.608 9.844 7.608C9.172 7.608 8.696 7.964 8.416 8.676L7 7.86C7.24 7.268 7.62 6.812 8.14 6.492C8.668 6.164 9.256 6 9.904 6C10.632 6 11.26 6.212 11.788 6.636C12.324 7.052 12.592 7.628 12.592 8.364C12.592 8.7 12.52 9.012 12.376 9.3C12.24 9.588 12.072 9.836 11.872 10.044C11.68 10.244 11.484 10.436 11.284 10.62C11.092 10.796 10.924 10.98 10.78 11.172C10.644 11.364 10.576 11.556 10.576 11.748H8.92Z" fill="#BCC9DB"/>
<path d="M8.87207 12.8516H10.6168V14.5963H8.87207V12.8516Z" fill="#BCC9DB"/>
<circle cx="10" cy="10" r="9.2" stroke="#BCC9DB" stroke-width="1.6"/>
</g>
<defs>
<clipPath id="clip0_401_13917">
<rect width="20" height="20" fill="white"/>
</clipPath>
</defs>
</svg>
