<svg width="100%" height="100%" viewBox="0 0 186 328" fill="none" xmlns="http://www.w3.org/2000/svg">
<rect x="2" y="2" width="182" height="324" rx="28" fill="#F1F1F1" fill-opacity="0.04"/>
<rect x="1.02703" y="1.02703" width="183.946" height="325.946" rx="28.973" stroke="url(#paint0_linear_1172_5005)" stroke-opacity="0.07" stroke-width="1.94595"/>
<circle cx="36" cy="36" r="14" fill="#F1F1F1" fill-opacity="0.1"/>
<rect x="76" y="33" width="53" height="9" rx="4.5" fill="#F1F1F1" fill-opacity="0.1"/>
<rect x="26" y="288" width="103" height="11" rx="5.5" fill="#5AD1A7"/>
<path fill-rule="evenodd" clip-rule="evenodd" d="M31.5 305C28.3244 305 25.4494 303.713 23.3683 301.632L21.9541 303.046C24.3949 305.487 27.7726 307 31.5 307V305ZM20 293.5C20 290.324 21.2872 287.449 23.3683 285.368L21.9541 283.954C19.5132 286.395 18 289.773 18 293.5H20ZM78.5 280H31.5V282H78.5V280ZM125.5 282V280C129.227 280 132.605 281.513 135.046 283.954L133.632 285.368C131.551 283.287 128.676 282 125.5 282ZM137 293.5H139C139 297.227 137.487 300.605 135.046 303.046L133.632 301.632C135.713 299.551 137 296.676 137 293.5ZM78.5 305V307H125.5V305H78.5Z" fill="#4CD0A1"/>
<rect opacity="0.1" x="26" y="99" width="103" height="11" rx="5.5" fill="#D9D9D9"/>
<rect opacity="0.1" x="26" y="69" width="103" height="11" rx="5.5" fill="#D9D9D9"/>
<rect opacity="0.1" x="64" y="251" width="65" height="11" rx="5.5" fill="#D9D9D9"/>
<rect opacity="0.1" x="64" y="213" width="65" height="11" rx="5.5" fill="#D9D9D9"/>
<rect opacity="0.1" x="26" y="245" width="24" height="24" rx="12" fill="#D9D9D9"/>
<rect opacity="0.1" x="26" y="208" width="24" height="24" rx="12" fill="#D9D9D9"/>
<path d="M154 2C170.569 2 184 15.4315 184 32V296C184 312.569 170.569 326 154 326V2Z" fill="#5AD1A7"/>
<defs>
<linearGradient id="paint0_linear_1172_5005" x1="93" y1="2" x2="93" y2="326" gradientUnits="userSpaceOnUse">
<stop stop-color="#F1F1F1"/>
<stop offset="1" stop-color="#F1F1F1" stop-opacity="0"/>
</linearGradient>
</defs>
</svg>
