<svg width="108" height="108" viewBox="0 0 108 108" fill="none" xmlns="http://www.w3.org/2000/svg">
<path fill-rule="evenodd" clip-rule="evenodd" d="M54.4998 33.8891C39.8805 33.8891 28.0291 45.7405 28.0291 60.3598C28.0291 66.1594 29.8909 71.519 33.0538 75.8804C34.2799 77.5711 34.2674 79.9519 32.7672 81.4049C31.2671 82.8579 28.8539 82.831 27.5754 81.1796C23.1208 75.426 20.4661 68.2001 20.4661 60.3598C20.4661 41.5635 35.7035 26.326 54.4998 26.326C73.2962 26.326 88.5336 41.5635 88.5336 60.3598C88.5336 68.2001 85.8789 75.426 81.4243 81.1796C80.1458 82.831 77.7326 82.8579 76.2325 81.4049C74.7323 79.9519 74.7198 77.5711 75.9459 75.8804C79.1088 71.519 80.9706 66.1594 80.9706 60.3598C80.9706 45.7405 69.1192 33.8891 54.4998 33.8891Z" fill="#F1F1F1" fill-opacity="0.1"/>
<path fill-rule="evenodd" clip-rule="evenodd" d="M54.5 31.0941C38.3369 31.0941 25.2342 44.1968 25.2342 60.3598C25.2342 68.2726 28.3732 75.4501 33.476 80.7186L32.0588 82.0912C26.6139 76.4696 23.2612 68.8052 23.2612 60.3598C23.2612 43.1072 37.2473 29.1211 54.5 29.1211C61.1252 29.1211 67.2714 31.1846 72.3271 34.704L71.1999 36.3233C66.4642 33.0267 60.7093 31.0941 54.5 31.0941Z" fill="#4CD0A1"/>
<path fill-rule="evenodd" clip-rule="evenodd" d="M57.474 52.3416L68.0576 42.2133C68.3324 41.9503 68.7599 42.2859 68.5698 42.6152L61.3101 55.1898C62.4018 56.6255 63.0498 58.417 63.0498 60.3598C63.0498 65.0816 59.222 68.9093 54.5002 68.9093C49.7784 68.9093 45.9507 65.0816 45.9507 60.3598C45.9507 55.638 49.7784 51.8102 54.5002 51.8102C55.546 51.8102 56.5478 51.998 57.474 52.3416Z" fill="#4CD0A1"/>
<path fill-rule="evenodd" clip-rule="evenodd" d="M54.4999 25.1752C54.3127 25.1752 54.1596 25.0251 54.1578 24.8379L54.1397 22.9099C54.1378 22.7091 54.299 22.5446 54.4999 22.5446C54.7007 22.5446 54.862 22.7091 54.8601 22.9099L54.8419 24.8379C54.8402 25.0251 54.687 25.1752 54.4999 25.1752ZM79.8571 35.484C79.7242 35.6143 79.5109 35.6122 79.3792 35.4805C79.2476 35.3489 79.2454 35.1356 79.3758 35.0027L80.7284 33.6241C80.8685 33.4813 81.0979 33.479 81.2393 33.6204C81.3808 33.7618 81.3785 33.9912 81.2357 34.1313L79.8571 35.484ZM29.624 35.0027C29.7544 35.1356 29.7522 35.3489 29.6206 35.4805C29.4889 35.6122 29.2756 35.6143 29.1427 35.484L27.7641 34.1313C27.6213 33.9912 27.619 33.7618 27.7604 33.6204C27.9018 33.479 28.1313 33.4813 28.2713 33.6241L29.624 35.0027ZM18.9779 60.0178C19.1651 60.0196 19.3152 60.1727 19.3152 60.3599C19.3152 60.5465 19.1655 60.6992 18.9789 60.7009L17.0488 60.719C16.8486 60.7209 16.6846 60.5601 16.6846 60.3599C16.6846 60.159 16.8491 59.9977 17.0499 59.9996L18.9779 60.0178ZM89.6846 60.3599C89.6846 60.1727 89.8347 60.0196 90.0218 60.0178L91.9498 59.9996C92.1507 59.9977 92.3152 60.159 92.3152 60.3599C92.3152 60.5601 92.1512 60.7209 91.9509 60.719L90.0208 60.7009C89.8342 60.6992 89.6846 60.5465 89.6846 60.3599ZM29.2595 85.1142C29.326 85.049 29.4327 85.0501 29.4982 85.1162C29.5636 85.1823 29.5637 85.289 29.4978 85.3548L27.8847 86.9676C27.8139 87.0382 27.6993 87.0383 27.6289 86.9672C27.5586 86.8962 27.5597 86.7815 27.6311 86.7115L29.2595 85.1142ZM79.5019 85.3548C79.4361 85.289 79.4361 85.1823 79.5016 85.1162C79.5671 85.0501 79.6738 85.049 79.7402 85.1142L81.3687 86.7115C81.4401 86.7815 81.4412 86.8962 81.3708 86.9672C81.3005 87.0383 81.1858 87.0382 81.1151 86.9675L79.5019 85.3548Z" fill="#F1F1F1" fill-opacity="0.1"/>
</svg>
