<svg width="100%" height="100%" viewBox="0 0 186 328" fill="none" xmlns="http://www.w3.org/2000/svg">
<rect x="2" y="2" width="182" height="324" rx="28" fill="#F1F1F1" fill-opacity="0.04"/>
<rect x="1.02703" y="1.02703" width="183.946" height="325.946" rx="28.973" stroke="url(#paint0_linear_1172_5004)" stroke-opacity="0.07" stroke-width="1.94595"/>
<path d="M128.379 156C128.379 175.539 112.539 191.379 93 191.379C73.4605 191.379 57.6207 175.539 57.6207 156C57.6207 136.461 73.4605 120.621 93 120.621C112.539 120.621 128.379 136.461 128.379 156Z" fill="#F1F1F1" fill-opacity="0.1"/>
<path fill-rule="evenodd" clip-rule="evenodd" d="M128.8 164.064C128.094 163.905 127.653 163.205 127.785 162.493C128.175 160.388 128.379 158.218 128.379 156C128.379 153.782 128.175 151.612 127.785 149.507C127.653 148.795 128.094 148.095 128.8 147.936C129.507 147.778 130.21 148.222 130.344 148.933C130.775 151.224 131 153.587 131 156C131 158.413 130.775 160.776 130.344 163.067C130.21 163.778 129.507 164.222 128.8 164.064ZM126.374 144.228C126.614 144.91 127.346 145.297 128.037 145.082C128.728 144.867 129.116 144.132 128.877 143.448C127.291 138.914 124.871 134.774 121.802 131.211C121.33 130.663 120.499 130.631 119.967 131.122C119.435 131.613 119.404 132.44 119.875 132.99C122.686 136.27 124.907 140.071 126.374 144.228ZM116.01 129.125C116.56 129.596 117.387 129.565 117.878 129.033C118.369 128.501 118.337 127.67 117.789 127.198C114.226 124.129 110.086 121.709 105.552 120.123C104.868 119.884 104.133 120.272 103.918 120.963C103.703 121.654 104.09 122.386 104.772 122.626C108.929 124.093 112.73 126.314 116.01 129.125ZM99.4933 121.215C100.205 121.347 100.905 120.906 101.064 120.2C101.222 119.493 100.778 118.79 100.067 118.656C97.7755 118.225 95.4129 118 93 118C90.5871 118 88.2245 118.225 85.9329 118.656C85.2217 118.79 84.778 119.493 84.9364 120.2C85.0947 120.906 85.7952 121.347 86.5067 121.215C88.6116 120.825 90.782 120.621 93 120.621C95.218 120.621 97.3884 120.825 99.4933 121.215ZM81.228 122.626C81.9104 122.386 82.2972 121.654 82.0822 120.963C81.8671 120.272 81.1316 119.884 80.4485 120.123C75.9139 121.709 71.7737 124.129 68.2111 127.198C67.6628 127.67 67.6311 128.501 68.1219 129.033C68.6128 129.565 69.4402 129.596 69.9897 129.125C73.27 126.314 77.0709 124.093 81.228 122.626ZM66.125 132.99C66.5959 132.44 66.5647 131.613 66.0329 131.122C65.5011 130.631 64.6702 130.663 64.1979 131.211C61.1292 134.774 58.7088 138.914 57.1225 143.448C56.8836 144.132 57.2715 144.867 57.9625 145.082C58.6535 145.297 59.3857 144.91 59.6264 144.228C61.0927 140.071 63.3138 136.27 66.125 132.99ZM57.1996 147.936C57.9057 148.095 58.3472 148.795 58.2152 149.507C57.8248 151.612 57.6207 153.782 57.6207 156C57.6207 158.218 57.8248 160.388 58.2152 162.493C58.3472 163.205 57.9057 163.905 57.1996 164.064C56.4934 164.222 55.7903 163.778 55.6564 163.067C55.2252 160.776 55 158.413 55 156C55 153.587 55.2252 151.224 55.6564 148.933C55.7903 148.222 56.4934 147.778 57.1996 147.936ZM59.6264 167.772C59.3857 167.09 58.6535 166.703 57.9625 166.918C57.2715 167.133 56.8836 167.868 57.1225 168.552C58.7088 173.086 61.1292 177.226 64.1979 180.789C64.6702 181.337 65.5011 181.369 66.0329 180.878C66.5647 180.387 66.5959 179.56 66.125 179.01C63.3138 175.73 61.0927 171.929 59.6264 167.772ZM69.9897 182.875C69.4402 182.404 68.6128 182.435 68.1219 182.967C67.6311 183.499 67.6628 184.33 68.2111 184.802C71.7737 187.871 75.9139 190.291 80.4485 191.877C81.1316 192.116 81.8671 191.728 82.0822 191.037C82.2972 190.346 81.9104 189.614 81.228 189.374C77.0709 187.907 73.27 185.686 69.9897 182.875ZM86.5067 190.785C85.7952 190.653 85.0947 191.094 84.9364 191.8C84.778 192.507 85.2217 193.21 85.9329 193.344C88.2245 193.775 90.5871 194 93 194C95.4129 194 97.7755 193.775 100.067 193.344C100.778 193.21 101.222 192.507 101.064 191.8C100.905 191.094 100.205 190.653 99.4933 190.785C97.3884 191.175 95.218 191.379 93 191.379C90.782 191.379 88.6116 191.175 86.5067 190.785ZM104.772 189.374C104.09 189.614 103.703 190.346 103.918 191.037C104.133 191.728 104.868 192.116 105.552 191.877C110.086 190.291 114.226 187.871 117.789 184.802C118.337 184.33 118.369 183.499 117.878 182.967C117.387 182.435 116.56 182.404 116.01 182.875C112.73 185.686 108.929 187.907 104.772 189.374ZM119.875 179.01C119.404 179.56 119.435 180.387 119.967 180.878C120.499 181.369 121.33 181.337 121.802 180.789C124.871 177.226 127.291 173.086 128.877 168.552C129.116 167.868 128.728 167.133 128.037 166.918C127.346 166.703 126.614 167.09 126.374 167.772C124.907 171.929 122.686 175.73 119.875 179.01Z" fill="#F1F1F1" fill-opacity="0.1"/>
<path fill-rule="evenodd" clip-rule="evenodd" d="M91.8607 154.911C91.8607 155.545 92.374 156.059 93.0072 156.059C93.6405 156.059 94.1538 155.545 94.1538 154.911V145.682C94.1538 145.048 93.6405 144.534 93.0072 144.534C92.374 144.534 91.8607 145.048 91.8607 145.682V154.911ZM98.6585 149.713C99.1043 149.263 99.8271 149.263 100.273 149.713C102.549 152.01 103.316 154.98 103.316 157.095C103.316 159.22 102.543 162.104 100.273 164.395C97.9966 166.692 95.0534 167.466 92.9579 167.466C90.8519 167.466 87.9936 166.686 85.7236 164.395C83.4474 162.098 82.681 159.128 82.681 157.013C82.681 154.888 83.4536 152.003 85.7236 149.713C86.1694 149.263 86.8922 149.263 87.3381 149.713C87.7839 150.163 87.7839 150.892 87.3381 151.342C85.5659 153.13 84.9642 155.392 84.9642 157.013C84.9642 158.645 85.5722 160.984 87.3381 162.766C89.1102 164.554 91.3512 165.161 92.9579 165.161C94.575 165.161 96.8926 164.548 98.6585 162.766C100.431 160.978 101.032 158.716 101.032 157.095C101.032 155.463 100.424 153.124 98.6585 151.342C98.2127 150.892 98.2127 150.163 98.6585 149.713Z" fill="#4CD0A1"/>
<path fill-rule="evenodd" clip-rule="evenodd" d="M120.517 156C120.517 140.803 108.197 128.483 93 128.483V124.552C110.368 124.552 124.448 138.632 124.448 156C124.448 173.368 110.368 187.448 93 187.448C82.7291 187.448 73.6081 182.522 67.8721 174.913C67.2187 174.046 67.3917 172.813 68.2586 172.16C69.1254 171.507 70.3578 171.68 71.0112 172.546C76.0365 179.213 84.0153 183.517 93 183.517C108.197 183.517 120.517 171.197 120.517 156Z" fill="#4CD0A1"/>
<circle cx="36" cy="36" r="14" fill="#F1F1F1" fill-opacity="0.1"/>
<rect x="75" y="29" width="36" height="15" rx="7.5" fill="#F1F1F1" fill-opacity="0.1"/>
<rect x="21" y="267" width="145" height="36" rx="15" fill="#5AD1A7"/>
<path fill-rule="evenodd" clip-rule="evenodd" d="M135.426 113.574L136.841 112.159C148.058 123.377 155 138.88 155 156H153C153 139.431 146.284 124.431 135.426 113.574ZM93 96V94C75.8797 94 60.377 100.942 49.1594 112.159L50.5736 113.574C61.4315 102.716 76.4315 96 93 96ZM33 156H31C31 173.12 37.9418 188.623 49.1594 199.841L50.5736 198.426C39.7157 187.569 33 172.569 33 156ZM93 216V218C110.12 218 125.623 211.058 136.841 199.841L135.426 198.426C124.569 209.284 109.569 216 93 216Z" fill="#4CD0A1"/>
<defs>
<linearGradient id="paint0_linear_1172_5004" x1="93" y1="2" x2="93" y2="326" gradientUnits="userSpaceOnUse">
<stop stop-color="#F1F1F1"/>
<stop offset="1" stop-color="#F1F1F1" stop-opacity="0"/>
</linearGradient>
</defs>
</svg>
