<svg width="18" height="20" viewBox="0 0 18 20" fill="none" xmlns="http://www.w3.org/2000/svg">
<path fill-rule="evenodd" clip-rule="evenodd" d="M6.8499 4.1199C6.8499 2.80766 7.82585 1.8499 8.90358 1.8499C9.46488 1.8499 9.98429 2.09949 10.3657 2.52692L10.9315 3.16117L12.2 2.0294L11.6342 1.39515C10.9585 0.637892 9.99027 0.149902 8.90358 0.149902C6.77399 0.149902 5.1499 1.98589 5.1499 4.1199V6.1499H3.28562C3.06703 6.1499 2.85684 6.23412 2.69872 6.38505L1.55586 7.47596C1.41244 7.61286 1.32139 7.79559 1.29847 7.99253L0.15561 17.8107C0.124772 18.0756 0.220074 18.3397 0.413005 18.5238L1.55586 19.6148C1.71398 19.7657 1.92417 19.8499 2.14277 19.8499H15.8571C16.0756 19.8499 16.2858 19.7657 16.444 19.6148L17.5868 18.5238C17.7797 18.3397 17.875 18.0756 17.8442 17.8107L16.7013 7.99253C16.6784 7.79559 16.5874 7.61286 16.444 7.47596L15.3011 6.38505C15.143 6.23412 14.9328 6.1499 14.7142 6.1499L6.8499 6.1499V4.1199ZM5.9999 7.8499L3.62618 7.8499L2.95159 8.49383L1.89318 17.5866L2.48333 18.1499H15.5165L16.1066 17.5866L15.0482 8.49383L14.3736 7.8499H5.9999ZM9.84991 14.9408V10.5135H8.14991V14.9408H9.84991Z" fill="#BCC9DB"/>
</svg>
