<svg width="89" height="46" viewBox="0 0 89 46" fill="none" xmlns="http://www.w3.org/2000/svg">
<path d="M41.2724 25.9908C42.0565 25.8547 43.0864 25.7511 44.4027 25.7511C45.719 25.7511 46.7509 25.8547 47.533 25.9908C48.2358 26.1147 48.7436 25.3306 48.3516 24.7354L45.0893 19.7526C44.7643 19.259 44.0411 19.259 43.7181 19.7526L40.4538 24.7354C40.0638 25.3306 40.5696 26.1127 41.2724 25.9908Z" fill="#BCC9DB"/>
<path d="M84.5945 6.43727C82.0513 3.89405 78.5391 2.3218 74.6573 2.3218C69.5607 2.3218 65.0958 5.03565 62.6339 9.0983C60.503 6.28898 57.7404 3.98546 54.5573 2.40103C51.4778 0.863313 48.0043 0 44.3276 0C40.6509 0 37.1793 0.863313 34.0978 2.40103C30.931 3.97733 28.1785 6.26461 26.0517 9.05565C25.4667 8.10296 24.774 7.22339 23.9879 6.43727C21.4447 3.89405 17.9325 2.3218 14.0527 2.3218C6.29101 2.3218 0 8.61282 0 16.3725V23.3257C0 31.0854 6.29101 37.3764 14.0527 37.3764C16.533 37.3764 18.8629 36.7345 20.8841 35.6051C20.3884 33.6773 20.1264 31.6562 20.1264 29.5741C20.1264 27.7337 20.3315 25.9421 20.7215 24.2215C20.9044 23.4131 21.1258 22.6229 21.3878 21.8469C21.3675 22.2166 21.3594 22.5904 21.3594 22.9662C21.3594 26.718 22.2593 30.2606 23.8559 33.3889C24.3637 34.3883 24.9467 35.3471 25.5927 36.2551C29.7548 42.1134 36.5943 45.9344 44.3276 45.9344C52.0608 45.9344 58.8983 42.1134 63.0605 36.2551C63.7145 35.3349 64.3016 34.366 64.8155 33.3523C66.3999 30.2342 67.2937 26.7038 67.2937 22.9662C67.2937 22.6066 67.2856 22.2471 67.2694 21.8896C67.5212 22.6472 67.7386 23.4232 67.9174 24.2134C68.3114 25.936 68.5166 27.7296 68.5166 29.5741C68.5166 31.644 68.2546 33.655 67.765 35.5726C69.8004 36.7203 72.1527 37.3764 74.6573 37.3764C82.419 37.3764 88.71 31.0854 88.71 23.3257V16.3725C88.71 12.4926 87.1377 8.98049 84.5945 6.43727ZM16.3176 10.5243C11.5014 10.5243 7.20917 12.7588 4.41407 16.2445C4.67611 13.9593 5.71209 11.9097 7.25589 10.3659C9.05362 8.56813 11.5379 7.45496 14.2822 7.45496C17.7152 7.45496 20.7378 9.19784 22.5233 11.8426C20.6261 10.9976 18.5277 10.5243 16.3176 10.5243ZM44.3276 39.2472C35.7066 39.2472 28.6518 32.5479 28.0831 24.0712V24.0651C28.0973 23.8193 28.1034 23.5735 28.1034 23.3257V21.5991C28.7981 13.2483 35.796 6.68712 44.3276 6.68712C53.3182 6.68712 60.6066 13.9755 60.6066 22.9662C60.6066 31.9568 53.3182 39.2472 44.3276 39.2472ZM72.6219 10.5243C70.4118 10.5243 68.3135 10.9976 66.4182 11.8426C68.2017 9.19784 71.2264 7.45496 74.6573 7.45496C77.4016 7.45496 79.8859 8.56813 81.6836 10.3659C83.2295 11.9097 84.2634 13.9593 84.5275 16.2445C81.7304 12.7588 77.4382 10.5243 72.6219 10.5243Z" fill="#BCC9DB"/>
<path d="M44.4027 32.9623C42.5441 32.9623 39.818 31.6399 38.7963 29.6025C39.3346 32.9948 42.2373 34.6056 44.4027 34.6056C46.5681 34.6056 49.4729 32.9928 50.0092 29.6025C48.9874 31.6399 46.2614 32.9623 44.4027 32.9623Z" fill="#BCC9DB"/>
</svg>
