<svg width="206" height="107" viewBox="0 0 206 107" fill="none" xmlns="http://www.w3.org/2000/svg">
<path d="M196.029 14.917C190.136 9.02361 181.997 5.38028 173.002 5.38028C161.192 5.38028 150.845 11.669 145.14 21.0833C140.203 14.5733 133.801 9.23543 126.425 5.56385C119.289 2.00054 111.239 0 102.719 0C94.1995 0 86.155 2.00054 79.0143 5.56385C71.6758 9.2166 65.2976 14.5169 60.3692 20.9845C59.0136 18.7768 57.4084 16.7386 55.5868 14.917C49.6934 9.02361 41.5547 5.38028 32.5641 5.38028C14.5781 5.38028 0 19.9583 0 37.9396L0 54.0522C0 72.0336 14.5781 86.6116 32.5641 86.6116C38.3115 86.6116 43.7106 85.1241 48.3942 82.507C47.2457 78.0399 46.6385 73.3563 46.6385 68.5314C46.6385 64.2668 47.1139 60.115 48.0177 56.1281C48.4413 54.2546 48.9544 52.4236 49.5616 50.6254C49.5145 51.4821 49.4957 52.3482 49.4957 53.2191C49.4957 61.9132 51.581 70.1225 55.2808 77.3715C56.4576 79.6874 57.8085 81.9092 59.3054 84.0133C68.9504 97.5887 84.7994 106.443 102.719 106.443C120.64 106.443 136.484 97.5887 146.129 84.0133C147.645 81.8809 149.005 79.6356 150.196 77.2867C153.867 70.0613 155.939 61.8802 155.939 53.2191C155.939 52.3859 155.92 51.5527 155.882 50.7243C156.466 52.48 156.969 54.2782 157.384 56.1093C158.297 60.1009 158.772 64.2573 158.772 68.5314C158.772 73.328 158.165 77.9881 157.031 82.4317C161.747 85.0912 167.198 86.6116 173.002 86.6116C190.988 86.6116 205.566 72.0336 205.566 54.0522V37.9396C205.566 28.949 201.923 20.8103 196.029 14.917ZM37.8126 24.3878C26.6519 24.3878 16.7057 29.5656 10.2286 37.6431C10.8359 32.3476 13.2365 27.598 16.8139 24.0206C20.9798 19.8548 26.7366 17.2752 33.096 17.2752C41.0511 17.2752 48.0553 21.314 52.1929 27.4427C47.7964 25.4845 42.9339 24.3878 37.8126 24.3878ZM102.719 90.9469C82.7423 90.9469 66.3944 75.4227 65.0764 55.7798V55.7656C65.1093 55.1961 65.1235 54.6265 65.1235 54.0522V50.0512C66.7333 30.7001 82.9494 15.4959 102.719 15.4959C123.553 15.4959 140.443 32.3852 140.443 53.2191C140.443 74.0529 123.553 90.9469 102.719 90.9469ZM168.285 24.3878C163.164 24.3878 158.302 25.4845 153.91 27.4427C158.043 21.314 165.052 17.2752 173.002 17.2752C179.361 17.2752 185.118 19.8548 189.284 24.0206C192.866 27.598 195.262 32.3476 195.874 37.6431C189.392 29.5656 179.446 24.3878 168.285 24.3878Z" fill="#28F1A9"/>
<rect x="126.147" y="39.3745" width="6.1114" height="21.8135" transform="rotate(45 126.147 39.3745)" fill="#28F1A9"/>
<rect x="110.602" y="43.8154" width="6.45217" height="21.8135" transform="rotate(-45 110.602 43.8154)" fill="#28F1A9"/>
<rect x="94.28" y="39.3745" width="6.1114" height="21.8135" transform="rotate(45 94.28 39.3745)" fill="#28F1A9"/>
<rect x="78.7349" y="43.8159" width="6.45217" height="21.8135" transform="rotate(-45 78.7349 43.8159)" fill="#28F1A9"/>
</svg>
