<svg width="35" height="16" viewBox="0 0 35 16" fill="none" xmlns="http://www.w3.org/2000/svg">
<line x1="0.744006" y1="12.5416" x2="34.744" y2="1.20826" stroke="#28EBB3" stroke-width="1.61905"/>
<path fill-rule="evenodd" clip-rule="evenodd" d="M8.2552 12.8476H13.0553L14.0554 15.6397H18.0143L16.0506 10.2491L8.2552 12.8476ZM8.16929 12.8763L4.15664 14.2138L3.63721 15.6397H7.1794L8.16929 12.8763ZM5.16983 11.4325L8.9505 1.0542H12.7011L15.2569 8.07015L11.759 9.23609L10.6174 5.63822L9.24221 9.97219H9.55075L5.16983 11.4325ZM19.6804 9.03921V15.6397H24.9937C26.1189 15.6397 27.126 15.4869 28.015 15.1813C28.904 14.8618 29.6542 14.4034 30.2654 13.8061C30.8904 13.1949 31.3627 12.4448 31.6822 11.5558C32.0156 10.6529 32.1823 9.61797 32.1823 8.45113V8.03441C32.1823 6.90252 32.0246 5.90093 31.7091 5.02966L28.0397 6.2528C28.2177 6.7371 28.3067 7.33097 28.3067 8.03441V8.45113C28.3067 9.20125 28.2095 9.84023 28.015 10.3681C27.8344 10.8959 27.5775 11.3196 27.2441 11.6391C26.9246 11.9586 26.5495 12.1947 26.1189 12.3475C25.7022 12.4865 25.2577 12.5559 24.7854 12.5559H23.431V7.78902L19.6804 9.03921ZM23.431 5.34544L19.6804 6.59563V1.0542H25.2021C26.2995 1.0542 27.2788 1.207 28.14 1.5126C29.0013 1.80431 29.7306 2.24188 30.3279 2.8253C30.3835 2.87962 30.4379 2.93522 30.4911 2.99207L26.3541 4.37106C26.3315 4.36253 26.3086 4.3543 26.2856 4.34636C25.8828 4.20745 25.4521 4.13799 24.9937 4.13799H23.431V5.34544Z" fill="#28EBB3"/>
<path fill-rule="evenodd" clip-rule="evenodd" d="M8.2552 12.8476H13.0553L14.0554 15.6397H18.0143L16.0506 10.2491L8.2552 12.8476ZM8.16929 12.8763L4.15664 14.2138L3.63721 15.6397H7.1794L8.16929 12.8763ZM5.16983 11.4325L8.9505 1.0542H12.7011L15.2569 8.07015L11.759 9.23609L10.6174 5.63822L9.24221 9.97219H9.55075L5.16983 11.4325ZM19.6804 9.03921V15.6397H24.9937C26.1189 15.6397 27.126 15.4869 28.015 15.1813C28.904 14.8618 29.6542 14.4034 30.2654 13.8061C30.8904 13.1949 31.3627 12.4448 31.6822 11.5558C32.0156 10.6529 32.1823 9.61797 32.1823 8.45113V8.03441C32.1823 6.90252 32.0246 5.90093 31.7091 5.02966L28.0397 6.2528C28.2177 6.7371 28.3067 7.33097 28.3067 8.03441V8.45113C28.3067 9.20125 28.2095 9.84023 28.015 10.3681C27.8344 10.8959 27.5775 11.3196 27.2441 11.6391C26.9246 11.9586 26.5495 12.1947 26.1189 12.3475C25.7022 12.4865 25.2577 12.5559 24.7854 12.5559H23.431V7.78902L19.6804 9.03921ZM23.431 5.34544L19.6804 6.59563V1.0542H25.2021C26.2995 1.0542 27.2788 1.207 28.14 1.5126C29.0013 1.80431 29.7306 2.24188 30.3279 2.8253C30.3835 2.87962 30.4379 2.93522 30.4911 2.99207L26.3541 4.37106C26.3315 4.36253 26.3086 4.3543 26.2856 4.34636C25.8828 4.20745 25.4521 4.13799 24.9937 4.13799H23.431V5.34544Z" fill="url(#paint0_linear_403_14763)"/>
<defs>
<linearGradient id="paint0_linear_403_14763" x1="17.9098" y1="1.0542" x2="17.9098" y2="15.6397" gradientUnits="userSpaceOnUse">
<stop stop-color="#28EBB3"/>
<stop offset="1" stop-color="#28C2EF"/>
</linearGradient>
</defs>
</svg>
