<svg width="18" height="20" viewBox="0 0 18 20" fill="none" xmlns="http://www.w3.org/2000/svg">
<path fill-rule="evenodd" clip-rule="evenodd" d="M8.99999 0.000183105C7.89542 0.000183105 6.99999 0.895613 6.99999 2.00018V2.34159C4.66961 3.16527 2.99999 5.38775 2.99999 8.00018L2.99999 9.50018L2.99999 11.5998L1.38252 13.8238C0.940069 14.4322 0.87641 15.2374 1.21776 15.9077C1.55912 16.5781 2.24774 17.0002 2.99999 17.0002H5.99999C5.99999 18.657 7.34314 20.0002 8.99999 20.0002C10.6568 20.0002 12 18.657 12 17.0002H15C15.7522 17.0002 16.4409 16.5781 16.7822 15.9077C17.1236 15.2374 17.0599 14.4322 16.6175 13.8238L15 11.5998L15 9.50018V8.00018C15 5.38774 13.3304 3.16527 11 2.34159V2.00018C11 0.895614 10.1046 0.000183105 8.99999 0.000183105ZM10.0012 15.0002H9.99999H7.99999L5.47299 15.0002H2.99999L4.45454 13.0002L4.61747 12.7762C4.86608 12.4343 4.99999 12.0225 4.99999 11.5998V9.50018V8.00018C4.99999 5.79104 6.79085 4.00018 8.99999 4.00018C11.2091 4.00018 13 5.79104 13 8.00018L13 9.50018V11.5998C13 12.0225 13.1339 12.4343 13.3825 12.7762L13.5454 13.0002L15 15.0002H12.527H10.0012ZM8.99999 18.0002C8.44771 18.0002 7.99999 17.5525 7.99999 17.0002H9.99999C9.99999 17.5525 9.55228 18.0002 8.99999 18.0002ZM14.0715 1.62879C14.2766 1.11601 14.8586 0.866593 15.3714 1.07171L15 2.00018C15.3714 1.07171 15.372 1.07196 15.3727 1.07222L15.374 1.07275L15.3768 1.07388L15.3829 1.0764L15.3975 1.08251C15.4082 1.08707 15.4209 1.0926 15.4353 1.09917C15.4643 1.11229 15.5006 1.12959 15.5433 1.15152C15.6285 1.19533 15.7394 1.25794 15.8672 1.34313C16.1227 1.51346 16.448 1.77575 16.7682 2.16C17.4219 2.94442 18 4.17245 18 6.00018C18 6.55247 17.5523 7.00018 17 7.00018C16.4477 7.00018 16 6.55247 16 6.00018C16 4.62792 15.5781 3.85595 15.2318 3.44037C15.052 3.22461 14.8773 3.08691 14.7578 3.00723C14.6981 2.96743 14.6528 2.94254 14.6286 2.9301C14.6203 2.92584 14.6146 2.92308 14.6117 2.92172C14.1104 2.71069 13.8687 2.13591 14.0715 1.62879ZM2.6286 1.07171C3.14139 0.866593 3.72336 1.11601 3.92847 1.62879C4.13132 2.13591 3.88962 2.71069 3.38829 2.92172C3.38541 2.92308 3.37969 2.92584 3.3714 2.9301C3.34721 2.94254 3.3019 2.96743 3.24219 3.00723C3.12268 3.08691 2.94801 3.22461 2.76821 3.44037C2.4219 3.85595 1.99999 4.62792 1.99999 6.00018C1.99999 6.55247 1.55228 7.00018 0.999992 7.00018C0.447708 7.00018 -7.62939e-06 6.55247 -7.62939e-06 6.00018C-7.62939e-06 4.17245 0.578088 2.94442 1.23177 2.16C1.55198 1.77575 1.87731 1.51346 2.13279 1.34313C2.26058 1.25794 2.37152 1.19533 2.45671 1.15152C2.49934 1.12959 2.53568 1.11229 2.56464 1.09917C2.57913 1.0926 2.59179 1.08707 2.60249 1.08251L2.61706 1.0764L2.62321 1.07388L2.626 1.07275L2.62733 1.07222C2.62797 1.07196 2.6286 1.07171 2.99999 2.00018L2.6286 1.07171Z" fill="#FFC52F"/>
</svg>
