<svg width="19" height="19" viewBox="0 0 19 19" fill="none" xmlns="http://www.w3.org/2000/svg">
<path fill-rule="evenodd" clip-rule="evenodd" d="M6.26937 6.34093C6.7812 4.7692 7.59539 3.38954 8.61266 2.29894L9.85283 1.31278L11.093 2.29894C12.1103 3.38954 12.9245 4.7692 13.4363 6.34093H6.26937ZM0.210632 7.50115C0.0726358 8.14559 0 8.81427 0 9.49992C0 10.5053 0.156161 11.4741 0.44555 12.3836H4.29147C4.17923 11.6685 4.12058 10.9314 4.12058 10.1782C4.12058 9.39599 4.18384 8.63109 4.3047 7.89019H0.210632L0.210632 7.50115ZM1.0955 13.9328C2.32744 16.2637 4.50061 18.0202 7.10895 18.6965C5.99043 17.3723 5.13086 15.7467 4.62671 13.9328H1.0955ZM9.91924 18.9908C9.877 18.9927 9.83468 18.9942 9.79229 18.9955L8.61266 18.0575C7.5776 16.9478 6.75278 15.5389 6.24278 13.9328L13.4629 13.9328C12.9529 15.5389 12.1281 16.9478 11.093 18.0575L9.91924 18.9908ZM12.8427 18.3952C15.0252 17.5746 16.8257 15.9739 17.9045 13.9328H15.0789C14.6124 15.6114 13.8415 17.1288 12.8427 18.3952ZM18.5544 12.3836C18.8438 11.4741 19 10.5053 19 9.49992C19 8.95123 18.9535 8.41341 18.8642 7.89019H15.401C15.5218 8.63109 15.5851 9.39599 15.5851 10.1782C15.5851 10.9314 15.5264 11.6685 15.4142 12.3836H18.5544ZM18.4621 6.34093C17.2991 3.0414 14.3656 0.57695 10.8023 0.0884478L12.144 1.15531C13.4659 2.54246 14.4811 4.32339 15.0557 6.34093H18.4621ZM8.99827 0.0129395L7.56166 1.15531C6.23978 2.54246 5.22454 4.32339 4.64997 6.34093H0.537858C1.7869 2.79733 5.07812 0.216919 8.99827 0.0129395ZM5.66983 10.1782C5.66983 10.9367 5.73635 11.6742 5.86204 12.3836H13.8436C13.9693 11.6742 14.0358 10.9367 14.0358 10.1782C14.0358 9.39019 13.964 8.62484 13.8287 7.89019L5.87698 7.89019C5.74163 8.62483 5.66983 9.39019 5.66983 10.1782Z" fill="#28F1A9"/>
</svg>
