<svg width="230" height="330" viewBox="0 0 230 330" fill="none" xmlns="http://www.w3.org/2000/svg">
<path d="M215 130H200V84.999C200 38.13 161.869 0 115 0C68.131 0 30 38.13 30 84.999V130H15C6.716 130 0 136.716 0 145V315C0 323.284 6.716 330 15 330H215C223.284 330 230 323.284 230 315V145C230 136.716 223.284 130 215 130ZM60 84.999C60 54.673 84.673 30 115 30C145.327 30 170 54.673 170 84.999V130H60V84.999ZM200 300H30V160H45H185H200V300Z" fill="#BCC9DB"/>
<path d="M146.856 198.144C140.999 192.286 131.501 192.286 125.643 198.144L115 208.787L104.356 198.144C98.499 192.286 89.001 192.286 83.143 198.144C77.285 204.002 77.285 213.499 83.143 219.357L93.787 230L83.144 240.644C77.286 246.502 77.286 255.999 83.144 261.857C86.073 264.786 89.912 266.251 93.75 266.251C97.588 266.251 101.428 264.787 104.356 261.857L115 251.213L125.644 261.857C128.573 264.786 132.412 266.251 136.25 266.251C140.088 266.251 143.928 264.787 146.856 261.857C152.714 255.999 152.714 246.502 146.856 240.644L136.213 230L146.856 219.356C152.715 213.499 152.715 204.001 146.856 198.144Z" fill="#BCC9DB"/>
</svg>
