<svg width="87" height="87" viewBox="0 0 87 87" fill="none" xmlns="http://www.w3.org/2000/svg">
<path d="M38.5559 0H35.1077V3.44828H38.5559V0Z" fill="#4CD0A1"/>
<path d="M45.4527 0H42.0044V3.44828H45.4527V0Z" fill="#4CD0A1"/>
<path d="M48.9009 0H45.4526V3.44828H48.9009V0Z" fill="#4CD0A1"/>
<path d="M52.3492 0H48.9009V3.44828H52.3492V0Z" fill="#4CD0A1"/>
<path d="M55.7975 0H52.3492V3.44828H55.7975V0Z" fill="#4CD0A1"/>
<path d="M31.6595 3.44827H28.2112V6.89655H31.6595V3.44827Z" fill="#4CD0A1"/>
<path d="M35.1078 3.44827H31.6595V6.89655H35.1078V3.44827Z" fill="#4CD0A1"/>
<path d="M55.7975 3.44827H52.3492V6.89655H55.7975V3.44827Z" fill="#4CD0A1"/>
<path d="M31.6595 6.89658H28.2112V10.3449H31.6595V6.89658Z" fill="#4CD0A1"/>
<path d="M42.0042 6.89658H38.5559V10.3449H42.0042V6.89658Z" fill="#4CD0A1"/>
<path d="M52.3492 6.89658H48.9009V10.3449H52.3492V6.89658Z" fill="#4CD0A1"/>
<path d="M59.2456 6.89658H55.7974V10.3449H59.2456V6.89658Z" fill="#4CD0A1"/>
<path d="M31.6595 10.3448H28.2112V13.7931H31.6595V10.3448Z" fill="#4CD0A1"/>
<path d="M35.1078 10.3448H31.6595V13.7931H35.1078V10.3448Z" fill="#4CD0A1"/>
<path d="M38.5559 10.3448H35.1077V13.7931H38.5559V10.3448Z" fill="#4CD0A1"/>
<path d="M52.3492 10.3448H48.9009V13.7931H52.3492V10.3448Z" fill="#4CD0A1"/>
<path d="M55.7975 10.3448H52.3492V13.7931H55.7975V10.3448Z" fill="#4CD0A1"/>
<path d="M59.2456 10.3448H55.7974V13.7931H59.2456V10.3448Z" fill="#4CD0A1"/>
<path d="M38.5559 13.7931H35.1077V17.2414H38.5559V13.7931Z" fill="#4CD0A1"/>
<path d="M42.0042 13.7931H38.5559V17.2414H42.0042V13.7931Z" fill="#4CD0A1"/>
<path d="M45.4527 13.7931H42.0044V17.2414H45.4527V13.7931Z" fill="#4CD0A1"/>
<path d="M48.9009 13.7931H45.4526V17.2414H48.9009V13.7931Z" fill="#4CD0A1"/>
<path d="M52.3492 13.7931H48.9009V17.2414H52.3492V13.7931Z" fill="#4CD0A1"/>
<path d="M55.7975 13.7931H52.3492V17.2414H55.7975V13.7931Z" fill="#4CD0A1"/>
<path d="M42.0042 17.2414H38.5559V20.6897H42.0042V17.2414Z" fill="#4CD0A1"/>
<path d="M48.9009 17.2414H45.4526V20.6897H48.9009V17.2414Z" fill="#4CD0A1"/>
<path d="M52.3492 17.2414H48.9009V20.6897H52.3492V17.2414Z" fill="#4CD0A1"/>
<path d="M59.2456 17.2414H55.7974V20.6896H59.2456V17.2414Z" fill="#4CD0A1"/>
<path d="M31.6595 20.6897H28.2112V24.138H31.6595V20.6897Z" fill="#4CD0A1"/>
<path d="M38.5559 20.6897H35.1077V24.138H38.5559V20.6897Z" fill="#4CD0A1"/>
<path d="M45.4527 20.6897H42.0044V24.138H45.4527V20.6897Z" fill="#4CD0A1"/>
<path d="M52.3492 20.6897H48.9009V24.138H52.3492V20.6897Z" fill="#4CD0A1"/>
<path d="M59.2456 20.6896H55.7974V24.1379H59.2456V20.6896Z" fill="#4CD0A1"/>
<path d="M31.6595 24.1379H28.2112V27.5862H31.6595V24.1379Z" fill="#4CD0A1"/>
<path d="M45.4527 24.1379H42.0044V27.5862H45.4527V24.1379Z" fill="#4CD0A1"/>
<path d="M48.9009 24.1379H45.4526V27.5862H48.9009V24.1379Z" fill="#4CD0A1"/>
<path d="M59.2456 24.1379H55.7974V27.5862H59.2456V24.1379Z" fill="#4CD0A1"/>
<path d="M4.07328 27.5862H0.625V31.0345H4.07328V27.5862Z" fill="#4CD0A1"/>
<path d="M24.7631 27.5862H21.3148V31.0345H24.7631V27.5862Z" fill="#4CD0A1"/>
<path d="M31.6595 27.5862H28.2112V31.0345H31.6595V27.5862Z" fill="#4CD0A1"/>
<path d="M35.1078 27.5862H31.6595V31.0345H35.1078V27.5862Z" fill="#4CD0A1"/>
<path d="M38.5559 27.5862H35.1077V31.0345H38.5559V27.5862Z" fill="#4CD0A1"/>
<path d="M42.0042 27.5862H38.5559V31.0345H42.0042V27.5862Z" fill="#4CD0A1"/>
<path d="M45.4527 27.5862H42.0044V31.0345H45.4527V27.5862Z" fill="#4CD0A1"/>
<path d="M52.3492 27.5862H48.9009V31.0345H52.3492V27.5862Z" fill="#4CD0A1"/>
<path d="M55.7975 27.5862H52.3492V31.0345H55.7975V27.5862Z" fill="#4CD0A1"/>
<path d="M59.2456 27.5862H55.7974V31.0345H59.2456V27.5862Z" fill="#4CD0A1"/>
<path d="M62.694 27.5862H59.2457V31.0345H62.694V27.5862Z" fill="#4CD0A1"/>
<path d="M66.1422 27.5862H62.694V31.0345H66.1422V27.5862Z" fill="#4CD0A1"/>
<path d="M76.4871 27.5862H73.0388V31.0345H76.4871V27.5862Z" fill="#4CD0A1"/>
<path d="M79.9356 27.5862H76.4873V31.0345H79.9356V27.5862Z" fill="#4CD0A1"/>
<path d="M83.3836 27.5862H79.9353V31.0345H83.3836V27.5862Z" fill="#4CD0A1"/>
<path d="M10.9698 31.0345H7.52148V34.4828H10.9698V31.0345Z" fill="#4CD0A1"/>
<path d="M14.4179 31.0345H10.9696V34.4828H14.4179V31.0345Z" fill="#4CD0A1"/>
<path d="M17.8664 31.0345H14.4181V34.4828H17.8664V31.0345Z" fill="#4CD0A1"/>
<path d="M31.6595 31.0345H28.2112V34.4828H31.6595V31.0345Z" fill="#4CD0A1"/>
<path d="M35.1078 31.0345H31.6595V34.4828H35.1078V31.0345Z" fill="#4CD0A1"/>
<path d="M38.5559 31.0345H35.1077V34.4828H38.5559V31.0345Z" fill="#4CD0A1"/>
<path d="M42.0042 31.0345H38.5559V34.4828H42.0042V31.0345Z" fill="#4CD0A1"/>
<path d="M45.4527 31.0345H42.0044V34.4828H45.4527V31.0345Z" fill="#4CD0A1"/>
<path d="M52.3492 31.0345H48.9009V34.4828H52.3492V31.0345Z" fill="#4CD0A1"/>
<path d="M55.7975 31.0345H52.3492V34.4828H55.7975V31.0345Z" fill="#4CD0A1"/>
<path d="M62.694 31.0345H59.2457V34.4828H62.694V31.0345Z" fill="#4CD0A1"/>
<path d="M69.5904 31.0345H66.1421V34.4828H69.5904V31.0345Z" fill="#4CD0A1"/>
<path d="M73.0389 31.0345H69.5906V34.4828H73.0389V31.0345Z" fill="#4CD0A1"/>
<path d="M76.4871 31.0345H73.0388V34.4828H76.4871V31.0345Z" fill="#4CD0A1"/>
<path d="M79.9356 31.0345H76.4873V34.4828H79.9356V31.0345Z" fill="#4CD0A1"/>
<path d="M83.3836 31.0345H79.9353V34.4828H83.3836V31.0345Z" fill="#4CD0A1"/>
<path d="M7.52152 34.4828H4.07324V37.9311H7.52152V34.4828Z" fill="#4CD0A1"/>
<path d="M24.7631 34.4828H21.3148V37.9311H24.7631V34.4828Z" fill="#4CD0A1"/>
<path d="M28.2112 34.4828H24.7629V37.9311H28.2112V34.4828Z" fill="#4CD0A1"/>
<path d="M31.6595 34.4828H28.2112V37.9311H31.6595V34.4828Z" fill="#4CD0A1"/>
<path d="M42.0042 34.4828H38.5559V37.9311H42.0042V34.4828Z" fill="#4CD0A1"/>
<path d="M45.4527 34.4828H42.0044V37.9311H45.4527V34.4828Z" fill="#4CD0A1"/>
<path d="M55.7975 34.4828H52.3492V37.9311H55.7975V34.4828Z" fill="#4CD0A1"/>
<path d="M66.1422 34.4828H62.694V37.9311H66.1422V34.4828Z" fill="#4CD0A1"/>
<path d="M76.4871 34.4828H73.0388V37.9311H76.4871V34.4828Z" fill="#4CD0A1"/>
<path d="M83.3836 34.4828H79.9353V37.9311H83.3836V34.4828Z" fill="#4CD0A1"/>
<path d="M86.8318 34.4828H83.3835V37.9311H86.8318V34.4828Z" fill="#4CD0A1"/>
<path d="M10.9698 37.931H7.52148V41.3793H10.9698V37.931Z" fill="#4CD0A1"/>
<path d="M14.4179 37.9311H10.9696V41.3794H14.4179V37.9311Z" fill="#4CD0A1"/>
<path d="M21.3146 37.931H17.8663V41.3793H21.3146V37.931Z" fill="#4CD0A1"/>
<path d="M31.6595 37.931H28.2112V41.3793H31.6595V37.931Z" fill="#4CD0A1"/>
<path d="M35.1078 37.9311H31.6595V41.3794H35.1078V37.9311Z" fill="#4CD0A1"/>
<path d="M38.5559 37.931H35.1077V41.3793H38.5559V37.931Z" fill="#4CD0A1"/>
<path d="M42.0042 37.931H38.5559V41.3793H42.0042V37.931Z" fill="#4CD0A1"/>
<path d="M45.4527 37.931H42.0044V41.3793H45.4527V37.931Z" fill="#4CD0A1"/>
<path d="M52.3492 37.931H48.9009V41.3793H52.3492V37.931Z" fill="#4CD0A1"/>
<path d="M55.7975 37.931H52.3492V41.3793H55.7975V37.931Z" fill="#4CD0A1"/>
<path d="M62.694 37.931H59.2457V41.3793H62.694V37.931Z" fill="#4CD0A1"/>
<path d="M69.5904 37.9311H66.1421V41.3794H69.5904V37.9311Z" fill="#4CD0A1"/>
<path d="M76.4871 37.931H73.0388V41.3793H76.4871V37.931Z" fill="#4CD0A1"/>
<path d="M86.8318 37.931H83.3835V41.3793H86.8318V37.931Z" fill="#4CD0A1"/>
<path d="M10.9698 41.3793H7.52148V44.8276H10.9698V41.3793Z" fill="#4CD0A1"/>
<path d="M24.7631 41.3793H21.3148V44.8276H24.7631V41.3793Z" fill="#4CD0A1"/>
<path d="M31.6595 41.3793H28.2112V44.8276H31.6595V41.3793Z" fill="#4CD0A1"/>
<path d="M38.5559 41.3793H35.1077V44.8276H38.5559V41.3793Z" fill="#4CD0A1"/>
<path d="M42.0042 41.3793H38.5559V44.8276H42.0042V41.3793Z" fill="#4CD0A1"/>
<path d="M48.9009 41.3793H45.4526V44.8276H48.9009V41.3793Z" fill="#4CD0A1"/>
<path d="M52.3492 41.3793H48.9009V44.8276H52.3492V41.3793Z" fill="#4CD0A1"/>
<path d="M55.7975 41.3793H52.3492V44.8276H55.7975V41.3793Z" fill="#4CD0A1"/>
<path d="M66.1422 41.3793H62.694V44.8276H66.1422V41.3793Z" fill="#4CD0A1"/>
<path d="M69.5904 41.3793H66.1421V44.8276H69.5904V41.3793Z" fill="#4CD0A1"/>
<path d="M86.8318 41.3793H83.3835V44.8276H86.8318V41.3793Z" fill="#4CD0A1"/>
<path d="M4.07328 44.8276H0.625V48.2759H4.07328V44.8276Z" fill="#4CD0A1"/>
<path d="M10.9698 44.8276H7.52148V48.2759H10.9698V44.8276Z" fill="#4CD0A1"/>
<path d="M14.4179 44.8276H10.9696V48.2759H14.4179V44.8276Z" fill="#4CD0A1"/>
<path d="M17.8664 44.8276H14.4181V48.2759H17.8664V44.8276Z" fill="#4CD0A1"/>
<path d="M21.3146 44.8276H17.8663V48.2759H21.3146V44.8276Z" fill="#4CD0A1"/>
<path d="M28.2112 44.8276H24.7629V48.2759H28.2112V44.8276Z" fill="#4CD0A1"/>
<path d="M31.6595 44.8276H28.2112V48.2759H31.6595V44.8276Z" fill="#4CD0A1"/>
<path d="M38.5559 44.8276H35.1077V48.2759H38.5559V44.8276Z" fill="#4CD0A1"/>
<path d="M45.4527 44.8276H42.0044V48.2759H45.4527V44.8276Z" fill="#4CD0A1"/>
<path d="M48.9009 44.8276H45.4526V48.2759H48.9009V44.8276Z" fill="#4CD0A1"/>
<path d="M52.3492 44.8276H48.9009V48.2759H52.3492V44.8276Z" fill="#4CD0A1"/>
<path d="M55.7975 44.8276H52.3492V48.2759H55.7975V44.8276Z" fill="#4CD0A1"/>
<path d="M59.2456 44.8276H55.7974V48.2759H59.2456V44.8276Z" fill="#4CD0A1"/>
<path d="M69.5904 44.8276H66.1421V48.2759H69.5904V44.8276Z" fill="#4CD0A1"/>
<path d="M83.3836 44.8276H79.9353V48.2759H83.3836V44.8276Z" fill="#4CD0A1"/>
<path d="M4.07328 48.2759H0.625V51.7242H4.07328V48.2759Z" fill="#4CD0A1"/>
<path d="M10.9698 48.2759H7.52148V51.7242H10.9698V48.2759Z" fill="#4CD0A1"/>
<path d="M21.3146 48.2759H17.8663V51.7242H21.3146V48.2759Z" fill="#4CD0A1"/>
<path d="M24.7631 48.2759H21.3148V51.7242H24.7631V48.2759Z" fill="#4CD0A1"/>
<path d="M28.2112 48.2759H24.7629V51.7242H28.2112V48.2759Z" fill="#4CD0A1"/>
<path d="M35.1078 48.2759H31.6595V51.7242H35.1078V48.2759Z" fill="#4CD0A1"/>
<path d="M38.5559 48.2759H35.1077V51.7242H38.5559V48.2759Z" fill="#4CD0A1"/>
<path d="M48.9009 48.2759H45.4526V51.7242H48.9009V48.2759Z" fill="#4CD0A1"/>
<path d="M52.3492 48.2759H48.9009V51.7242H52.3492V48.2759Z" fill="#4CD0A1"/>
<path d="M55.7975 48.2759H52.3492V51.7242H55.7975V48.2759Z" fill="#4CD0A1"/>
<path d="M69.5904 48.2759H66.1421V51.7242H69.5904V48.2759Z" fill="#4CD0A1"/>
<path d="M73.0389 48.2759H69.5906V51.7242H73.0389V48.2759Z" fill="#4CD0A1"/>
<path d="M76.4871 48.2759H73.0388V51.7242H76.4871V48.2759Z" fill="#4CD0A1"/>
<path d="M83.3836 48.2759H79.9353V51.7242H83.3836V48.2759Z" fill="#4CD0A1"/>
<path d="M86.8318 48.2759H83.3835V51.7242H86.8318V48.2759Z" fill="#4CD0A1"/>
<path d="M4.07328 51.7241H0.625V55.1724H4.07328V51.7241Z" fill="#4CD0A1"/>
<path d="M17.8664 51.7241H14.4181V55.1724H17.8664V51.7241Z" fill="#4CD0A1"/>
<path d="M21.3146 51.7241H17.8663V55.1724H21.3146V51.7241Z" fill="#4CD0A1"/>
<path d="M28.2112 51.7241H24.7629V55.1724H28.2112V51.7241Z" fill="#4CD0A1"/>
<path d="M35.1078 51.7242H31.6595V55.1725H35.1078V51.7242Z" fill="#4CD0A1"/>
<path d="M38.5559 51.7241H35.1077V55.1724H38.5559V51.7241Z" fill="#4CD0A1"/>
<path d="M45.4527 51.7241H42.0044V55.1724H45.4527V51.7241Z" fill="#4CD0A1"/>
<path d="M48.9009 51.7241H45.4526V55.1724H48.9009V51.7241Z" fill="#4CD0A1"/>
<path d="M52.3492 51.7241H48.9009V55.1724H52.3492V51.7241Z" fill="#4CD0A1"/>
<path d="M55.7975 51.7241H52.3492V55.1724H55.7975V51.7241Z" fill="#4CD0A1"/>
<path d="M66.1422 51.7241H62.694V55.1724H66.1422V51.7241Z" fill="#4CD0A1"/>
<path d="M69.5904 51.7242H66.1421V55.1725H69.5904V51.7242Z" fill="#4CD0A1"/>
<path d="M76.4871 51.7241H73.0388V55.1724H76.4871V51.7241Z" fill="#4CD0A1"/>
<path d="M79.9356 51.7242H76.4873V55.1725H79.9356V51.7242Z" fill="#4CD0A1"/>
<path d="M86.8318 51.7241H83.3835V55.1724H86.8318V51.7241Z" fill="#4CD0A1"/>
<path d="M4.07328 55.1724H0.625V58.6207H4.07328V55.1724Z" fill="#4CD0A1"/>
<path d="M10.9698 55.1724H7.52148V58.6207H10.9698V55.1724Z" fill="#4CD0A1"/>
<path d="M21.3146 55.1724H17.8663V58.6207H21.3146V55.1724Z" fill="#4CD0A1"/>
<path d="M24.7631 55.1725H21.3148V58.6208H24.7631V55.1725Z" fill="#4CD0A1"/>
<path d="M28.2112 55.1724H24.7629V58.6207H28.2112V55.1724Z" fill="#4CD0A1"/>
<path d="M35.1078 55.1725H31.6595V58.6208H35.1078V55.1725Z" fill="#4CD0A1"/>
<path d="M45.4527 55.1724H42.0044V58.6207H45.4527V55.1724Z" fill="#4CD0A1"/>
<path d="M52.3492 55.1724H48.9009V58.6207H52.3492V55.1724Z" fill="#4CD0A1"/>
<path d="M59.2456 55.1725H55.7974V58.6208H59.2456V55.1725Z" fill="#4CD0A1"/>
<path d="M62.694 55.1724H59.2457V58.6207H62.694V55.1724Z" fill="#4CD0A1"/>
<path d="M66.1422 55.1724H62.694V58.6207H66.1422V55.1724Z" fill="#4CD0A1"/>
<path d="M69.5904 55.1725H66.1421V58.6208H69.5904V55.1725Z" fill="#4CD0A1"/>
<path d="M73.0389 55.1724H69.5906V58.6207H73.0389V55.1724Z" fill="#4CD0A1"/>
<path d="M79.9356 55.1725H76.4873V58.6208H79.9356V55.1725Z" fill="#4CD0A1"/>
<path d="M31.6595 58.6207H28.2112V62.069H31.6595V58.6207Z" fill="#4CD0A1"/>
<path d="M59.2456 58.6207H55.7974V62.0689H59.2456V58.6207Z" fill="#4CD0A1"/>
<path d="M73.0389 58.6207H69.5906V62.069H73.0389V58.6207Z" fill="#4CD0A1"/>
<path d="M38.5559 62.069H35.1077V65.5172H38.5559V62.069Z" fill="#4CD0A1"/>
<path d="M45.4527 62.069H42.0044V65.5172H45.4527V62.069Z" fill="#4CD0A1"/>
<path d="M48.9009 62.069H45.4526V65.5172H48.9009V62.069Z" fill="#4CD0A1"/>
<path d="M52.3492 62.069H48.9009V65.5172H52.3492V62.069Z" fill="#4CD0A1"/>
<path d="M59.2456 62.069H55.7974V65.5173H59.2456V62.069Z" fill="#4CD0A1"/>
<path d="M66.1422 62.069H62.694V65.5172H66.1422V62.069Z" fill="#4CD0A1"/>
<path d="M73.0389 62.069H69.5906V65.5172H73.0389V62.069Z" fill="#4CD0A1"/>
<path d="M86.8318 62.069H83.3835V65.5172H86.8318V62.069Z" fill="#4CD0A1"/>
<path d="M35.1078 65.5173H31.6595V68.9655H35.1078V65.5173Z" fill="#4CD0A1"/>
<path d="M42.0042 65.5173H38.5559V68.9655H42.0042V65.5173Z" fill="#4CD0A1"/>
<path d="M52.3492 65.5173H48.9009V68.9655H52.3492V65.5173Z" fill="#4CD0A1"/>
<path d="M59.2456 65.5173H55.7974V68.9655H59.2456V65.5173Z" fill="#4CD0A1"/>
<path d="M73.0389 65.5173H69.5906V68.9655H73.0389V65.5173Z" fill="#4CD0A1"/>
<path d="M86.8318 65.5173H83.3835V68.9655H86.8318V65.5173Z" fill="#4CD0A1"/>
<path d="M35.1078 68.9655H31.6595V72.4137H35.1078V68.9655Z" fill="#4CD0A1"/>
<path d="M42.0042 68.9655H38.5559V72.4138H42.0042V68.9655Z" fill="#4CD0A1"/>
<path d="M55.7975 68.9655H52.3492V72.4138H55.7975V68.9655Z" fill="#4CD0A1"/>
<path d="M59.2456 68.9655H55.7974V72.4137H59.2456V68.9655Z" fill="#4CD0A1"/>
<path d="M62.694 68.9655H59.2457V72.4138H62.694V68.9655Z" fill="#4CD0A1"/>
<path d="M66.1422 68.9655H62.694V72.4138H66.1422V68.9655Z" fill="#4CD0A1"/>
<path d="M69.5904 68.9655H66.1421V72.4137H69.5904V68.9655Z" fill="#4CD0A1"/>
<path d="M73.0389 68.9655H69.5906V72.4138H73.0389V68.9655Z" fill="#4CD0A1"/>
<path d="M79.9356 68.9655H76.4873V72.4137H79.9356V68.9655Z" fill="#4CD0A1"/>
<path d="M86.8318 68.9655H83.3835V72.4138H86.8318V68.9655Z" fill="#4CD0A1"/>
<path d="M45.4527 72.4138H42.0044V75.8621H45.4527V72.4138Z" fill="#4CD0A1"/>
<path d="M48.9009 72.4138H45.4526V75.8621H48.9009V72.4138Z" fill="#4CD0A1"/>
<path d="M62.694 72.4138H59.2457V75.8621H62.694V72.4138Z" fill="#4CD0A1"/>
<path d="M66.1422 72.4138H62.694V75.8621H66.1422V72.4138Z" fill="#4CD0A1"/>
<path d="M83.3836 72.4138H79.9353V75.8621H83.3836V72.4138Z" fill="#4CD0A1"/>
<path d="M86.8318 72.4138H83.3835V75.8621H86.8318V72.4138Z" fill="#4CD0A1"/>
<path d="M35.1078 75.8621H31.6595V79.3103H35.1078V75.8621Z" fill="#4CD0A1"/>
<path d="M38.5559 75.8621H35.1077V79.3103H38.5559V75.8621Z" fill="#4CD0A1"/>
<path d="M48.9009 75.8621H45.4526V79.3103H48.9009V75.8621Z" fill="#4CD0A1"/>
<path d="M52.3492 75.8621H48.9009V79.3103H52.3492V75.8621Z" fill="#4CD0A1"/>
<path d="M55.7975 75.8621H52.3492V79.3103H55.7975V75.8621Z" fill="#4CD0A1"/>
<path d="M76.4871 75.8621H73.0388V79.3103H76.4871V75.8621Z" fill="#4CD0A1"/>
<path d="M79.9356 75.8621H76.4873V79.3103H79.9356V75.8621Z" fill="#4CD0A1"/>
<path d="M86.8318 75.8621H83.3835V79.3103H86.8318V75.8621Z" fill="#4CD0A1"/>
<path d="M35.1078 79.3103H31.6595V82.7586H35.1078V79.3103Z" fill="#4CD0A1"/>
<path d="M38.5559 79.3104H35.1077V82.7586H38.5559V79.3104Z" fill="#4CD0A1"/>
<path d="M45.4527 79.3104H42.0044V82.7586H45.4527V79.3104Z" fill="#4CD0A1"/>
<path d="M48.9009 79.3104H45.4526V82.7586H48.9009V79.3104Z" fill="#4CD0A1"/>
<path d="M55.7975 79.3104H52.3492V82.7586H55.7975V79.3104Z" fill="#4CD0A1"/>
<path d="M59.2456 79.3103H55.7974V82.7586H59.2456V79.3103Z" fill="#4CD0A1"/>
<path d="M62.694 79.3104H59.2457V82.7586H62.694V79.3104Z" fill="#4CD0A1"/>
<path d="M66.1422 79.3104H62.694V82.7586H66.1422V79.3104Z" fill="#4CD0A1"/>
<path d="M69.5904 79.3103H66.1421V82.7586H69.5904V79.3103Z" fill="#4CD0A1"/>
<path d="M73.0389 79.3104H69.5906V82.7586H73.0389V79.3104Z" fill="#4CD0A1"/>
<path d="M86.8318 79.3104H83.3835V82.7586H86.8318V79.3104Z" fill="#4CD0A1"/>
<path d="M31.6595 82.7587H28.2112V86.2069H31.6595V82.7587Z" fill="#4CD0A1"/>
<path d="M38.5559 82.7587H35.1077V86.2069H38.5559V82.7587Z" fill="#4CD0A1"/>
<path d="M42.0042 82.7587H38.5559V86.2069H42.0042V82.7587Z" fill="#4CD0A1"/>
<path d="M45.4527 82.7587H42.0044V86.2069H45.4527V82.7587Z" fill="#4CD0A1"/>
<path d="M48.9009 82.7587H45.4526V86.2069H48.9009V82.7587Z" fill="#4CD0A1"/>
<path d="M59.2456 82.7587H55.7974V86.2069H59.2456V82.7587Z" fill="#4CD0A1"/>
<path d="M66.1422 82.7587H62.694V86.2069H66.1422V82.7587Z" fill="#4CD0A1"/>
<path d="M76.4871 82.7587H73.0388V86.2069H76.4871V82.7587Z" fill="#4CD0A1"/>
<path d="M86.8318 82.7587H83.3835V86.2069H86.8318V82.7587Z" fill="#4CD0A1"/>
<path d="M21.1424 0H4.24581H0.625122V3.62069V20.5172V24.1379H4.24581H21.1424H24.7631V20.5172V3.62069V0H21.1424ZM21.1424 20.5172H4.24581V3.62069H21.1424V20.5172Z" fill="#4CD0A1"/>
<path d="M83.2112 0H66.3147H62.694V3.62069V20.5172V24.1379H66.3147H83.2112H86.8319V20.5172V3.62069V0H83.2112ZM83.2112 20.5172H66.3147V3.62069H83.2112V20.5172Z" fill="#4CD0A1"/>
<path d="M21.1422 62.069H4.24569H0.625V65.6897V82.5862V86.2069H4.24569H21.1422H24.7629V82.5862V65.6897V62.069H21.1422ZM21.1422 82.5862H4.24569V65.6897H21.1422V82.5862Z" fill="#4CD0A1"/>
<path d="M17.8663 6.89658H7.52148V17.2414H17.8663V6.89658Z" fill="#4CD0A1"/>
<path d="M79.9354 6.89658H69.5906V17.2414H79.9354V6.89658Z" fill="#4CD0A1"/>
<path d="M17.8663 68.9655H7.52148V79.3103H17.8663V68.9655Z" fill="#4CD0A1"/>
</svg>
