<svg width="32" height="33" viewBox="0 0 32 33" fill="none" xmlns="http://www.w3.org/2000/svg">
<path d="M0 14.7222V0.5H14.2222V14.7222H0ZM5.33333 5.83333V9.38889H8.88889V5.83333H5.33333Z" fill="#28F1A9"/>
<path d="M17.7778 14.7222V0.5H32V14.7222H17.7778ZM23.1111 5.83333V9.38889H26.6667V5.83333H23.1111Z" fill="#28F1A9"/>
<path d="M0 18.2778V32.5H14.2222V18.2778H0ZM8.88889 23.6111V27.1667H5.33333V23.6111H8.88889Z" fill="#28F1A9"/>
<path d="M23.1111 18.2778H17.7778V21.8333H23.1111V28.9444H21.3333V25.3889H17.7778V32.5H24.8889V28.9444H28.4444V32.5H32V27.1667H28.4444V25.3889H26.6667V23.6111H32V18.2778H26.6667V21.8333H23.1111V18.2778Z" fill="#28F1A9"/>
</svg>
