<svg width="18" height="18" viewBox="0 0 18 18" fill="none" xmlns="http://www.w3.org/2000/svg">
<path d="M0.333344 8.03696V0.333252H8.03705V8.03696H0.333344ZM3.22223 3.22214V5.14807H5.14816V3.22214H3.22223Z" fill="#BCC9DB"/>
<path d="M9.96298 8.03696V0.333252H17.6667V8.03696H9.96298ZM12.8519 3.22214V5.14807H14.7778V3.22214H12.8519Z" fill="#BCC9DB"/>
<path d="M0.333344 9.96288V17.6666H8.03705V9.96288H0.333344ZM5.14816 12.8518V14.7777H3.22223V12.8518H5.14816Z" fill="#BCC9DB"/>
<path d="M12.8519 9.96288H9.96298V11.8888H12.8519V15.7407H11.8889V13.8147H9.96298V17.6666H13.8148V15.7407H15.7408V17.6666H17.6667V14.7777H15.7408V13.8147H14.7778V12.8518H17.6667V9.96288H14.7778V11.8888H12.8519V9.96288Z" fill="#BCC9DB"/>
</svg>
