<svg width="25" height="25" viewBox="0 0 25 25" fill="none" xmlns="http://www.w3.org/2000/svg">
<path fill-rule="evenodd" clip-rule="evenodd" d="M8.60994 8.95998C9.26637 6.87993 10.3338 5.05415 11.677 3.61701L13.3653 2.27443L15.0537 3.61701C16.3969 5.05415 17.4643 6.87993 18.1208 8.95998L8.60994 8.95998ZM1.10092 10.3537C0.925317 11.1735 0.832886 12.0243 0.832886 12.8966C0.832886 14.2053 1.04095 15.4655 1.42581 16.6458H6.30456C6.15334 15.7108 6.07421 14.7458 6.07421 13.7592C6.07421 12.7355 6.15939 11.7352 6.32189 10.7675H1.10092L1.10092 10.3537ZM2.1835 18.4532C3.74268 21.4587 6.5272 23.7263 9.87544 24.5942C8.4359 22.8901 7.33356 20.7934 6.69551 18.4532H2.1835ZM13.7312 24.9531C13.5001 24.9684 13.2673 24.9773 13.0328 24.9795L11.677 23.9014C10.3112 22.4401 9.23055 20.5769 8.57717 18.4532L18.1535 18.4533C17.5001 20.5769 16.4195 22.4401 15.0537 23.9014L13.7312 24.9531ZM17.1682 24.2108C19.9732 23.1562 22.2823 21.0884 23.6493 18.4533H20.0352C19.4442 20.6208 18.4549 22.5795 17.1682 24.2108ZM24.407 16.6458C24.7919 15.4655 24.9999 14.2053 24.9999 12.8966C24.9999 12.1701 24.9358 11.4586 24.813 10.7675H20.4088C20.5713 11.7352 20.6565 12.7355 20.6565 13.7592C20.6565 14.7458 20.5774 15.7108 20.4261 16.6458H24.407ZM24.3442 8.95998C22.8848 4.72238 19.1347 1.55117 14.5733 0.925683L16.2796 2.2825C17.9788 4.06557 19.2796 6.36018 20.0062 8.95998H24.3442ZM12.2782 0.82959L10.4511 2.2825C8.75192 4.06557 7.45109 6.36018 6.72454 8.95998H1.48862C3.05538 4.41081 7.262 1.0906 12.2782 0.82959ZM7.8817 13.7592C7.8817 14.7523 7.97049 15.7178 8.13817 16.6458H18.5925C18.7602 15.7178 18.849 14.7523 18.849 13.7592C18.849 12.7285 18.7534 11.7276 18.5732 10.7675H8.15754C7.97733 11.7276 7.8817 12.7285 7.8817 13.7592Z" fill="url(#paint0_linear_403_14751)"/>
<defs>
<linearGradient id="paint0_linear_403_14751" x1="12.9164" y1="0.82959" x2="12.9164" y2="24.9795" gradientUnits="userSpaceOnUse">
<stop stop-color="#28EBB3"/>
<stop offset="1" stop-color="#28C2EF"/>
</linearGradient>
</defs>
</svg>
