<svg width="203" height="106" viewBox="0 0 203 106" fill="none" xmlns="http://www.w3.org/2000/svg">
<path d="M94.3109 59.988C96.1026 59.677 98.456 59.4403 101.464 59.4403C104.472 59.4403 106.83 59.677 108.617 59.988C110.223 60.2711 111.383 58.4794 110.487 57.1194L103.033 45.7332C102.29 44.6052 100.638 44.6052 99.8996 45.7332L92.4403 57.1194C91.5491 58.4794 92.7049 60.2665 94.3109 59.988Z" fill="#bcc9db99"/>
<path d="M193.306 15.3069C187.494 9.49541 179.469 5.90269 170.598 5.90269C158.952 5.90269 148.75 12.1041 143.124 21.3876C138.255 14.968 131.942 9.70429 124.668 6.08372C117.631 2.56991 109.694 0.597168 101.292 0.597168C92.8907 0.597168 84.958 2.56991 77.9164 6.08372C70.68 9.68572 64.3904 14.9123 59.5305 21.2901C58.1936 19.1131 56.6108 17.1032 54.8144 15.3069C49.003 9.49541 40.9774 5.90269 32.1116 5.90269C14.3755 5.90269 0 20.2782 0 38.0097V53.8984C0 71.6299 14.3755 86.0054 32.1116 86.0054C37.7792 86.0054 43.1033 84.5386 47.7218 81.9578C46.5893 77.5528 45.9905 72.9342 45.9905 68.1764C45.9905 63.971 46.4593 59.877 47.3505 55.9454C47.7683 54.098 48.2742 52.2924 48.873 50.5192C48.8266 51.364 48.808 52.2181 48.808 53.0768C48.808 61.6501 50.8643 69.7453 54.5127 76.8936C55.6732 79.1774 57.0054 81.3683 58.4814 83.4432C67.9924 96.83 83.6212 105.561 101.292 105.561C118.963 105.561 134.588 96.83 144.099 83.4432C145.593 81.3404 146.935 79.1263 148.109 76.8101C151.73 69.685 153.772 61.6176 153.772 53.0768C153.772 52.2552 153.753 51.4336 153.716 50.6167C154.292 52.3481 154.788 54.1212 155.197 55.9268C156.097 59.8631 156.566 63.9617 156.566 68.1764C156.566 72.9064 155.967 77.5017 154.849 81.8835C159.5 84.5061 164.875 86.0054 170.598 86.0054C188.334 86.0054 202.71 71.6299 202.71 53.8984V38.0097C202.71 29.1439 199.117 21.1184 193.306 15.3069ZM37.2872 24.6461C26.2816 24.6461 16.4736 29.752 10.0865 37.7173C10.6853 32.4953 13.0526 27.8118 16.5803 24.284C20.6883 20.1761 26.3651 17.6324 32.6362 17.6324C40.4807 17.6324 47.3876 21.615 51.4677 27.6586C47.1323 25.7276 42.3374 24.6461 37.2872 24.6461ZM101.292 90.2805C81.5927 90.2805 65.4719 74.972 64.1722 55.6019V55.588C64.2047 55.0264 64.2186 54.4647 64.2186 53.8984V49.9529C65.8061 30.8707 81.797 15.8778 101.292 15.8778C121.837 15.8778 138.491 32.5324 138.491 53.0768C138.491 73.6212 121.837 90.2805 101.292 90.2805ZM165.947 24.6461C160.897 24.6461 156.102 25.7276 151.771 27.6586C155.847 21.615 162.758 17.6324 170.598 17.6324C176.869 17.6324 182.546 20.1761 186.654 24.284C190.186 27.8118 192.549 32.4953 193.153 37.7173C186.761 29.752 176.953 24.6461 165.947 24.6461Z" fill="#bcc9db99"/>
<path d="M101.464 71.9969C97.2167 71.9969 90.9875 75.0186 88.6527 79.6743C89.8828 71.9226 96.5158 68.2417 101.464 68.2417C106.412 68.2417 113.05 71.9272 114.275 79.6743C111.94 75.0186 105.711 71.9969 101.464 71.9969Z" fill="#bcc9db99"/>
</svg>
