<svg width="16" height="16" viewBox="0 0 16 16" fill="none" xmlns="http://www.w3.org/2000/svg">
<path fill-rule="evenodd" clip-rule="evenodd" d="M16 6C16 9.31371 13.3137 12 10 12C8.61469 12 7.33903 11.5305 6.32346 10.742C6.28521 10.8229 6.23262 10.8988 6.16569 10.9657L1.36569 15.7657C1.05327 16.0781 0.546734 16.0781 0.234315 15.7657C-0.0781049 15.4533 -0.0781049 14.9467 0.234315 14.6343L5.03431 9.83431C5.10124 9.76738 5.17708 9.71479 5.25802 9.67654C4.46948 8.66097 4 7.38531 4 6C4 2.68629 6.68629 0 10 0C13.3137 0 16 2.68629 16 6ZM14.4 6C14.4 3.56995 12.4301 1.6 10 1.6C7.56995 1.6 5.6 3.56995 5.6 6C5.6 8.43005 7.56995 10.4 10 10.4C12.4301 10.4 14.4 8.43005 14.4 6Z" fill="#606670"/>
</svg>
