<svg width="28" height="28" viewBox="0 0 28 28" fill="none" xmlns="http://www.w3.org/2000/svg">
<path fill-rule="evenodd" clip-rule="evenodd" d="M11.0893 2.18318L10.2684 3.22474H7.56313C5.36459 3.22474 3.58232 5.03384 3.58232 7.26547V9.8645L2.4394 10.6379C0.0758656 12.2373 0.0758632 15.7627 2.4394 17.3621L3.58232 18.1355V20.7345C3.58232 22.9662 5.36459 24.7753 7.56313 24.7753H10.2684L11.0893 25.8168C12.6829 27.8388 15.7127 27.8388 17.3063 25.8168L18.1272 24.7753H20.8325C23.031 24.7753 24.8133 22.9662 24.8133 20.7345V17.9885L25.8394 17.1553C27.8314 15.5377 27.8314 12.4623 25.8394 10.8447L24.8133 10.0115V7.26547C24.8133 5.03384 23.031 3.22474 20.8325 3.22474H18.1272L17.3063 2.18317C15.7127 0.161169 12.6829 0.161173 11.0893 2.18318ZM10.9062 5.91856C11.3093 5.91856 11.6905 5.73257 11.9423 5.41306L13.1616 3.86599C13.6928 3.19199 14.7028 3.19199 15.234 3.86599L16.4533 5.41306C16.7051 5.73257 17.0863 5.91856 17.4894 5.91856H20.8325C21.5653 5.91856 22.1594 6.52159 22.1594 7.26547V10.6588C22.1594 11.068 22.3426 11.455 22.6574 11.7106L24.1815 12.9482C24.8455 13.4874 24.8455 14.5126 24.1815 15.0518L22.6574 16.2894C22.3426 16.545 22.1594 16.932 22.1594 17.3412V20.7345C22.1594 21.4784 21.5653 22.0815 20.8325 22.0815H17.4894C17.0863 22.0815 16.7051 22.2674 16.4533 22.587L15.234 24.134C14.7028 24.808 13.6928 24.808 13.1616 24.134L11.9423 22.587C11.6905 22.2674 11.3093 22.0815 10.9062 22.0815H7.56313C6.83028 22.0815 6.23619 21.4784 6.23619 20.7345V17.4147C6.23619 16.9643 6.01446 16.5438 5.64531 16.294L3.9115 15.1207C3.12366 14.5876 3.12366 13.4124 3.9115 12.8793L5.64531 11.706C6.01446 11.4562 6.23619 11.0357 6.23619 10.5853V7.26547C6.23619 6.52159 6.83028 5.91856 7.56313 5.91856H10.9062ZM14.0001 12.6667C14.7365 12.6667 15.3334 13.2636 15.3334 14C15.3334 14.7364 14.7365 15.3333 14.0001 15.3333C13.2637 15.3333 12.6667 14.7364 12.6667 14C12.6667 13.2636 13.2637 12.6667 14.0001 12.6667ZM10.0001 14C10.0001 16.2091 11.7909 18 14.0001 18C16.2092 18 18.0001 16.2091 18.0001 14C18.0001 11.7909 16.2092 10 14.0001 10C11.7909 10 10.0001 11.7909 10.0001 14Z" fill="#BCC9DB"/>
</svg>
