<svg width="22" height="28" viewBox="0 0 22 28" fill="none" xmlns="http://www.w3.org/2000/svg">
<path fill-rule="evenodd" clip-rule="evenodd" d="M16.3158 0.836072C16.9021 1.14315 17.1793 1.79285 16.9807 2.3943L14.324 10.4411L20.0813 9.81834C20.6769 9.75391 21.2516 10.0466 21.5182 10.55C21.7848 11.0535 21.686 11.6596 21.2712 12.0654L6.08389 26.9225C5.61735 27.3789 4.87308 27.4654 4.30175 27.1297C3.73042 26.794 3.48907 26.1283 3.72385 25.5357L6.86886 17.5976L1.93311 18.18C1.34728 18.2492 0.776823 17.9718 0.499677 17.483C0.222531 16.9942 0.296347 16.3957 0.685161 15.9791L14.5518 1.12205C14.994 0.648229 15.7295 0.528992 16.3158 0.836072ZM5.2887 15.0964L8.84135 14.6771C9.33472 14.6189 9.8247 14.8065 10.1336 15.1718C10.4424 15.5372 10.5253 16.0272 10.3522 16.4643L8.78102 20.4299L16.487 12.8915L12.4836 13.3246C12.0061 13.3762 11.5331 13.1983 11.2262 12.8516C10.9192 12.5048 10.8198 12.0362 10.9619 11.6058L12.284 7.60139L5.2887 15.0964Z" fill="#BCC9DB"/>
</svg>
