<svg width="30" height="22" viewBox="0 0 30 22" fill="none" xmlns="http://www.w3.org/2000/svg">
<path fill-rule="evenodd" clip-rule="evenodd" d="M25.6066 4.96469C28.4196 7.77773 30 11.593 30 15.5713H27C27 12.3887 25.7357 9.33644 23.4853 7.08601C21.2348 4.83557 18.1826 3.57129 15 3.57129C11.8174 3.57129 8.76516 4.83557 6.51472 7.08601C4.26428 9.33644 3 12.3887 3 15.5713H0C0 11.593 1.58035 7.77773 4.3934 4.96469C7.20645 2.15164 11.0218 0.571289 15 0.571289C18.9782 0.571289 22.7936 2.15164 25.6066 4.96469ZM20.9304 9.91395L16.1837 14.4565C15.7106 14.2546 15.1898 14.1429 14.6429 14.1429C12.4732 14.1429 10.7144 15.9017 10.7144 18.0714C10.7144 20.2411 12.4732 22 14.6429 22C16.8126 22 18.5715 20.2411 18.5715 18.0714C18.5715 17.2385 18.3123 16.4662 17.8702 15.8306L21.1751 10.106C21.266 9.94868 21.0617 9.78833 20.9304 9.91395Z" fill="url(#paint0_linear_403_14739)"/>
<defs>
<linearGradient id="paint0_linear_403_14739" x1="15" y1="0.571289" x2="15" y2="22" gradientUnits="userSpaceOnUse">
<stop stop-color="#28EBB3"/>
<stop offset="1" stop-color="#28C2EF"/>
</linearGradient>
</defs>
</svg>
