<svg width="74" height="70" viewBox="0 0 74 70" fill="none" xmlns="http://www.w3.org/2000/svg">
<path d="M35.2311 1.35268C35.9815 -0.0696132 38.0185 -0.069615 38.7689 1.35268L48.9199 20.5923C49.2092 21.1408 49.7367 21.524 50.3478 21.6298L71.7826 25.3385C73.3672 25.6127 73.9966 27.55 72.8758 28.7032L57.7146 44.3027C57.2824 44.7474 57.081 45.3675 57.1692 45.9813L60.2657 67.5131C60.4946 69.1048 58.8467 70.3021 57.4036 69.5925L37.8825 59.9939C37.326 59.7203 36.674 59.7203 36.1175 59.9939L16.5964 69.5925C15.1533 70.3021 13.5054 69.1048 13.7343 67.5131L16.8308 45.9813C16.919 45.3675 16.7176 44.7474 16.2854 44.3027L1.12418 28.7032C0.00338984 27.55 0.632846 25.6127 2.21742 25.3385L23.6522 21.6298C24.2633 21.524 24.7908 21.1408 25.0801 20.5923L35.2311 1.35268Z" fill="url(#paint0_linear_403_14880)"/>
<path d="M35.2311 1.35268C35.9815 -0.0696132 38.0185 -0.069615 38.7689 1.35268L48.9199 20.5923C49.2092 21.1408 49.7367 21.524 50.3478 21.6298L71.7826 25.3385C73.3672 25.6127 73.9966 27.55 72.8758 28.7032L57.7146 44.3027C57.2824 44.7474 57.081 45.3675 57.1692 45.9813L60.2657 67.5131C60.4946 69.1048 58.8467 70.3021 57.4036 69.5925L37.8825 59.9939C37.326 59.7203 36.674 59.7203 36.1175 59.9939L16.5964 69.5925C15.1533 70.3021 13.5054 69.1048 13.7343 67.5131L16.8308 45.9813C16.919 45.3675 16.7176 44.7474 16.2854 44.3027L1.12418 28.7032C0.00338984 27.55 0.632846 25.6127 2.21742 25.3385L23.6522 21.6298C24.2633 21.524 24.7908 21.1408 25.0801 20.5923L35.2311 1.35268Z" fill="url(#paint1_linear_403_14880)"/>
<defs>
<linearGradient id="paint0_linear_403_14880" x1="37" y1="-2" x2="37" y2="69.7429" gradientUnits="userSpaceOnUse">
<stop stop-color="#43C898"/>
<stop offset="0.829249" stop-color="#43C898" stop-opacity="0"/>
</linearGradient>
<linearGradient id="paint1_linear_403_14880" x1="-2.51219" y1="4.23076" x2="79.211" y2="6.15018" gradientUnits="userSpaceOnUse">
<stop stop-color="#28F1A9"/>
<stop offset="1" stop-color="#28C1F1"/>
</linearGradient>
</defs>
</svg>
