<svg width="12" height="11" viewBox="0 0 12 11" fill="none" xmlns="http://www.w3.org/2000/svg">
<path d="M5.54079 0.637799C5.71433 0.234817 6.2857 0.234816 6.45924 0.637798L7.62075 3.33494C7.69313 3.50303 7.85157 3.61814 8.0338 3.63504L10.9579 3.90624C11.3947 3.94676 11.5713 4.49016 11.2417 4.77974L9.03547 6.71786C8.89798 6.83865 8.83746 7.0249 8.8777 7.20343L9.52336 10.0682C9.61983 10.4962 9.15758 10.832 8.78031 10.608L6.25529 9.10872C6.09793 9.01528 5.90209 9.01528 5.74473 9.10872L3.21971 10.608C2.84245 10.832 2.3802 10.4962 2.47667 10.0682L3.12233 7.20343C3.16256 7.0249 3.10205 6.83865 2.96456 6.71786L0.758349 4.77974C0.428718 4.49016 0.605281 3.94676 1.04217 3.90624L3.96622 3.63504C4.14845 3.61814 4.30689 3.50303 4.37928 3.33494L5.54079 0.637799Z" fill="#222429"/>
</svg>
