<svg width="21" height="19" viewBox="0 0 21 19" fill="none" xmlns="http://www.w3.org/2000/svg">
<path d="M9.58663 1.04906C9.93899 0.258572 11.061 0.258571 11.4134 1.04906L13.4422 5.60046C13.5875 5.92649 13.8956 6.15034 14.2506 6.1878L19.2061 6.71083C20.0668 6.80167 20.4135 7.86877 19.7706 8.44816L16.0689 11.7841C15.8038 12.0231 15.6861 12.3853 15.7601 12.7345L16.7941 17.6091C16.9736 18.4557 16.0659 19.1152 15.3162 18.6828L10.9996 16.1932C10.6904 16.0148 10.3096 16.0148 10.0004 16.1932L5.68381 18.6828C4.93411 19.1152 4.02637 18.4557 4.20595 17.6091L5.23987 12.7345C5.31393 12.3853 5.19625 12.0231 4.93108 11.7841L1.22938 8.44816C0.586463 7.86878 0.933184 6.80167 1.79387 6.71083L6.74944 6.1878C7.10442 6.15034 7.41252 5.92649 7.55784 5.60046L9.58663 1.04906Z" fill="#D9D9D9"/>
<path d="M9.58663 1.04906C9.93899 0.258572 11.061 0.258571 11.4134 1.04906L13.4422 5.60046C13.5875 5.92649 13.8956 6.15034 14.2506 6.1878L19.2061 6.71083C20.0668 6.80167 20.4135 7.86877 19.7706 8.44816L16.0689 11.7841C15.8038 12.0231 15.6861 12.3853 15.7601 12.7345L16.7941 17.6091C16.9736 18.4557 16.0659 19.1152 15.3162 18.6828L10.9996 16.1932C10.6904 16.0148 10.3096 16.0148 10.0004 16.1932L5.68381 18.6828C4.93411 19.1152 4.02637 18.4557 4.20595 17.6091L5.23987 12.7345C5.31393 12.3853 5.19625 12.0231 4.93108 11.7841L1.22938 8.44816C0.586463 7.86878 0.933184 6.80167 1.79387 6.71083L6.74944 6.1878C7.10442 6.15034 7.41252 5.92649 7.55784 5.60046L9.58663 1.04906Z" fill="url(#paint0_linear_390_16058)"/>
<defs>
<linearGradient id="paint0_linear_390_16058" x1="-0.170389" y1="0.600281" x2="21.8979" y2="1.14527" gradientUnits="userSpaceOnUse">
<stop stop-color="#28F1A9"/>
<stop offset="1" stop-color="#28C1F1"/>
</linearGradient>
</defs>
</svg>
