<svg width="15" height="19" viewBox="0 0 15 19" fill="none" xmlns="http://www.w3.org/2000/svg">
<path d="M12.9545 14.4187L10.5537 12.8083C10.4524 12.7361 10.3337 12.6923 10.2098 12.6812C10.0859 12.6701 9.96126 12.6923 9.84877 12.7454L8.92703 13.2129C8.81139 13.2697 8.68168 13.2916 8.5538 13.2758C8.42591 13.26 8.30542 13.2072 8.2071 13.1239C6.48383 11.6979 5.33041 9.70013 4.9571 7.49475C4.93413 7.36795 4.94867 7.23722 4.99893 7.11857C5.04919 6.99992 5.13298 6.89851 5.24003 6.82679L6.07927 6.2164C6.1833 6.14787 6.26716 6.05283 6.3222 5.94108C6.37723 5.82933 6.40145 5.70492 6.39235 5.58068L6.19817 2.69635L6.15383 1.95754C6.14582 1.85121 6.1139 1.74806 6.06045 1.6558C5.97473 1.50606 5.83617 1.39374 5.67193 1.34087C5.21901 1.19012 4.73667 1.14962 4.26496 1.22273C3.79324 1.29585 3.34579 1.48048 2.95977 1.76127L2.77125 1.90475L2.6736 1.97961C2.62814 2.0124 2.58449 2.04762 2.54284 2.08512L2.42254 2.20076C0.834722 3.75258 1.13341 7.65392 3.17951 11.5279L3.80201 12.6061C6.13091 16.3098 9.36022 18.5192 11.5076 17.9526L11.6679 17.9062C11.7209 17.889 11.773 17.869 11.8238 17.8462L11.938 17.7999L12.1565 17.7084C12.5924 17.5143 12.9758 17.219 13.2748 16.847C13.5737 16.475 13.7796 16.037 13.8753 15.5695C13.9116 15.4008 13.8836 15.2246 13.7968 15.0755C13.7436 14.9831 13.6702 14.9039 13.5822 14.8438L12.9545 14.4187Z" stroke="#BCC9DB" stroke-width="1.7" stroke-miterlimit="10"/>
</svg>
