<svg width="24" height="21" viewBox="0 0 24 21" fill="none" xmlns="http://www.w3.org/2000/svg">
<path fill-rule="evenodd" clip-rule="evenodd" d="M20.2913 19.7326L24 1.03395C24 -0.21093 22.2883 0.541123 22.2883 0.541123L1.46305 8.71054C1.46305 8.71054 0.477565 9.04763 0.555268 9.67007C0.633134 10.2925 1.4371 10.5777 1.4371 10.5777L6.67584 12.3414L6.67589 12.3414C6.67588 12.3413 6.67587 12.3413 6.67587 12.3413L19.2539 4.35358C19.2539 4.35358 19.9802 3.91266 19.9543 4.35358C19.9543 4.35358 20.0839 4.43128 19.6949 4.79433C19.3059 5.15754 9.81386 13.6898 9.81386 13.6898L9.79498 13.8509L18.3463 20.4069C19.7727 21.0294 20.2913 19.7326 20.2913 19.7326Z" fill="url(#paint0_linear_96_2627)"/>
<path d="M13.0694 16.3613L9.68421 19.4477C9.68421 19.4477 9.41963 19.6485 9.13007 19.5226L9.7783 13.7896" fill="url(#paint1_linear_96_2627)"/>
<defs>
<linearGradient id="paint0_linear_96_2627" x1="0.550903" y1="10.446" x2="24" y2="10.446" gradientUnits="userSpaceOnUse">
<stop stop-color="#4CD0A1"/>
<stop offset="1" stop-color="#4CD0A1" stop-opacity="0.34"/>
</linearGradient>
<linearGradient id="paint1_linear_96_2627" x1="9.13007" y1="16.6769" x2="13.0694" y2="16.6769" gradientUnits="userSpaceOnUse">
<stop stop-color="#4CD0A1"/>
<stop offset="1" stop-color="#4CD0A1" stop-opacity="0.34"/>
</linearGradient>
</defs>
</svg>
