<svg width="108" height="108" viewBox="0 0 108 108" fill="none" xmlns="http://www.w3.org/2000/svg">
<path d="M85.0372 54.5C85.0372 71.3656 71.3649 85.0379 54.4993 85.0379C37.6337 85.0379 23.9614 71.3656 23.9614 54.5C23.9614 37.6344 37.6337 23.9621 54.4993 23.9621C71.3649 23.9621 85.0372 37.6344 85.0372 54.5Z" fill="#F1F1F1" fill-opacity="0.1"/>
<path fill-rule="evenodd" clip-rule="evenodd" d="M53.9232 53.2847C53.9232 53.6056 54.1833 53.8658 54.5041 53.8658C54.8249 53.8658 55.085 53.6056 55.085 53.2847V48.6085C55.085 48.2875 54.8249 48.0273 54.5041 48.0273C54.1833 48.0273 53.9232 48.2875 53.9232 48.6085V53.2847ZM57.3672 50.6508C57.5931 50.4229 57.9593 50.4229 58.1851 50.6508C59.3384 51.8146 59.7266 53.3194 59.7266 54.3908C59.7266 55.4675 59.3352 56.9288 58.1851 58.0894C57.0319 59.2532 55.5407 59.645 54.4791 59.645C53.4121 59.645 51.964 59.25 50.8139 58.0894C49.6607 56.9256 49.2725 55.4208 49.2725 54.3494C49.2725 53.2727 49.6639 51.8114 50.8139 50.6508C51.0398 50.4229 51.406 50.4229 51.6319 50.6508C51.8577 50.8787 51.8577 51.2483 51.6319 51.4762C50.734 52.3823 50.4292 53.528 50.4292 54.3494C50.4292 55.1762 50.7372 56.3612 51.6319 57.264C52.5297 58.1701 53.6651 58.4777 54.4791 58.4777C55.2984 58.4777 56.4726 58.1669 57.3672 57.264C58.265 56.358 58.5699 55.2122 58.5699 54.3908C58.5699 53.564 58.2619 52.379 57.3672 51.4762C57.1413 51.2483 57.1413 50.8787 57.3672 50.6508Z" fill="#4CD0A1"/>
<g filter="url(#filter0_d_1172_4956)">
<path fill-rule="evenodd" clip-rule="evenodd" d="M91.343 54.8547C91.3442 54.7366 91.3447 54.6184 91.3447 54.5001C91.3447 54.3818 91.3442 54.2636 91.343 54.1455L93.9984 54.1205C93.9996 54.2469 94.0002 54.3734 94.0002 54.5001C94.0002 54.6268 93.9996 54.7533 93.9984 54.8797L91.343 54.8547ZM80.8015 28.6977L82.697 26.838C82.5204 26.658 82.3422 26.4797 82.1622 26.3032L80.3024 28.1986C80.4704 28.3634 80.6368 28.5298 80.8015 28.6977ZM54.8547 17.6571L54.8797 15.0018C54.7533 15.0006 54.6268 15 54.5001 15C54.3734 15 54.2469 15.0006 54.1205 15.0018L54.1455 17.6571C54.2636 17.656 54.3818 17.6555 54.5001 17.6555C54.6184 17.6555 54.7366 17.656 54.8547 17.6571ZM28.6977 28.1986L26.838 26.3032C26.658 26.4797 26.4797 26.658 26.3032 26.838L28.1986 28.6978C28.3634 28.5298 28.5298 28.3634 28.6977 28.1986ZM17.6571 54.1455C17.656 54.2636 17.6555 54.3818 17.6555 54.5001C17.6555 54.6184 17.656 54.7366 17.6571 54.8547L15.0018 54.8797C15.0006 54.7533 15 54.6268 15 54.5001C15 54.3734 15.0006 54.2469 15.0018 54.1205L17.6571 54.1455ZM28.1986 80.3024L26.3032 82.1622C26.4797 82.3422 26.658 82.5205 26.838 82.697L28.6978 80.8015C28.5298 80.6368 28.3634 80.4704 28.1986 80.3024ZM54.1455 91.343L54.1205 93.9984C54.2469 93.9996 54.3734 94.0002 54.5001 94.0002C54.6268 94.0002 54.7533 93.9996 54.8797 93.9984L54.8547 91.343C54.7366 91.3442 54.6184 91.3447 54.5001 91.3447C54.3818 91.3447 54.2636 91.3442 54.1455 91.343ZM80.3024 80.8015L82.1622 82.697C82.3422 82.5204 82.5205 82.3422 82.697 82.1622L80.8015 80.3024C80.6368 80.4704 80.4704 80.6368 80.3024 80.8015Z" fill="#3B3D44"/>
</g>
<path fill-rule="evenodd" clip-rule="evenodd" d="M54.4996 75.08C65.8655 75.08 75.0794 65.8661 75.0794 54.5001C75.0794 43.1342 65.8655 33.9202 54.4996 33.9202C43.1336 33.9202 33.9197 43.1342 33.9197 54.5001C33.9197 65.8661 43.1336 75.08 54.4996 75.08ZM77.071 54.5001C77.071 66.966 66.9654 77.0716 54.4996 77.0716C42.0337 77.0716 31.9281 66.966 31.9281 54.5001C31.9281 42.0342 42.0337 31.9286 54.4996 31.9286C66.9654 31.9286 77.071 42.0342 77.071 54.5001Z" fill="#4CD0A1"/>
<defs>
<filter id="filter0_d_1172_4956" x="15" y="15" width="79.5318" height="79.5317" filterUnits="userSpaceOnUse" color-interpolation-filters="sRGB">
<feFlood flood-opacity="0" result="BackgroundImageFix"/>
<feColorMatrix in="SourceAlpha" type="matrix" values="0 0 0 0 0 0 0 0 0 0 0 0 0 0 0 0 0 0 127 0" result="hardAlpha"/>
<feOffset dx="0.531532" dy="0.531532"/>
<feComposite in2="hardAlpha" operator="out"/>
<feColorMatrix type="matrix" values="0 0 0 0 0 0 0 0 0 0 0 0 0 0 0 0 0 0 0.08 0"/>
<feBlend mode="normal" in2="BackgroundImageFix" result="effect1_dropShadow_1172_4956"/>
<feBlend mode="normal" in="SourceGraphic" in2="effect1_dropShadow_1172_4956" result="shape"/>
</filter>
</defs>
</svg>
