<svg width="100%" height="100%" viewBox="0 0 199 328" fill="none" xmlns="http://www.w3.org/2000/svg">
<rect x="8" y="2" width="182" height="324" rx="28" fill="#F1F1F1" fill-opacity="0.04"/>
<rect x="7.02703" y="1.02703" width="183.946" height="325.946" rx="28.973" stroke="url(#paint0_linear_1172_5003)" stroke-opacity="0.07" stroke-width="1.94595"/>
<circle cx="42" cy="36" r="14" fill="#F1F1F1" fill-opacity="0.1"/>
<rect x="67" y="33" width="53" height="9" rx="4.5" fill="#F1F1F1" fill-opacity="0.1"/>
<rect opacity="0.1" x="27" y="69" width="145" height="51" rx="14" fill="#D9D9D9"/>
<rect opacity="0.1" x="27" y="127" width="145" height="51" rx="14" fill="#D9D9D9"/>
<path fill-rule="evenodd" clip-rule="evenodd" d="M13.7791 192C10.5264 192 7.58164 190.682 5.45003 188.55L4.03582 189.964C6.52716 192.456 9.97469 194 13.7791 194V192ZM0 152.5V180.221H2V152.5H0ZM2 124.779C2 121.526 3.31843 118.582 5.45003 116.45L4.03582 115.036C1.54447 117.527 0 120.975 0 124.779H2ZM99.5 111H13.7791V113H99.5V111ZM185.221 113V111C189.025 111 192.473 112.544 194.964 115.036L193.55 116.45C191.418 114.318 188.474 113 185.221 113ZM197 180.221H199C199 184.025 197.456 187.473 194.964 189.964L193.55 188.55C195.682 186.418 197 183.474 197 180.221ZM99.5 192V194H185.221V192H99.5ZM197 152.5H199V124.779H197V152.5Z" fill="#4CD0A1"/>
<rect opacity="0.1" x="27" y="185" width="145" height="51" rx="14" fill="#D9D9D9"/>
<rect x="27" y="267" width="145" height="36" rx="15" fill="#5AD1A7"/>
<defs>
<linearGradient id="paint0_linear_1172_5003" x1="99" y1="2" x2="99" y2="326" gradientUnits="userSpaceOnUse">
<stop stop-color="#F1F1F1"/>
<stop offset="1" stop-color="#F1F1F1" stop-opacity="0"/>
</linearGradient>
</defs>
</svg>
