<svg width="23" height="20" viewBox="0 0 23 20" fill="none" xmlns="http://www.w3.org/2000/svg">
<path d="M7.23325 20C15.9129 20 20.6595 12.3062 20.6595 5.63442C20.6595 5.41591 20.6553 5.1984 20.6462 4.98179C21.5697 4.2668 22.3667 3.38147 23 2.36731C22.1545 2.76948 21.2446 3.04017 20.2902 3.16223C21.2644 2.5371 22.0123 1.54837 22.3652 0.369627C21.4388 0.957617 20.4255 1.37209 19.3687 1.59519C18.5077 0.613816 17.2818 0 15.9243 0C13.3184 0 11.2052 2.26112 11.2052 5.04827C11.2052 5.44449 11.2466 5.82989 11.3276 6.19951C7.40567 5.98836 3.92801 3.97927 1.60056 0.924316C1.18137 1.69477 0.960872 2.57049 0.961588 3.46199C0.961588 5.21368 1.79467 6.76006 3.06151 7.66473C2.31216 7.64027 1.57926 7.4237 0.924387 7.03324C0.923692 7.05446 0.923692 7.07511 0.923692 7.09773C0.923692 9.54292 2.55026 11.5845 4.70946 12.0471C4.30392 12.1653 3.88547 12.225 3.46516 12.2248C3.1675 12.2246 2.87054 12.1941 2.57828 12.1337C3.17905 14.1398 4.92108 15.5997 6.98643 15.6404C5.37135 16.9949 3.33681 17.8016 1.1256 17.8016C0.745175 17.8016 0.369384 17.7785 0 17.7318C2.08842 19.164 4.56822 19.9998 7.23348 19.9998" fill="url(#paint0_linear_96_2703)"/>
<defs>
<linearGradient id="paint0_linear_96_2703" x1="-4.28408e-08" y1="10" x2="23" y2="10" gradientUnits="userSpaceOnUse">
<stop stop-color="#4CD0A1"/>
<stop offset="1" stop-color="#4CD0A1" stop-opacity="0.34"/>
</linearGradient>
</defs>
</svg>
