<svg width="100%" height="100%" viewBox="0 0 447 47" fill="none" xmlns="http://www.w3.org/2000/svg">
<g opacity="0.4">
<path d="M391.586 36.1402H351.185C349.499 36.1402 348.128 34.7693 348.128 33.084V4.79097C348.128 3.10572 349.499 1.73474 351.185 1.73474H391.584C393.269 1.73474 394.64 3.10572 394.64 4.79097V33.084C394.64 34.7693 393.269 36.1402 391.584 36.1402H391.586ZM351.185 3.45712C350.45 3.45712 349.851 4.05599 349.851 4.79097V33.084C349.851 33.819 350.45 34.4179 351.185 34.4179H391.584C392.319 34.4179 392.918 33.819 392.918 33.084V4.79097C392.918 4.05599 392.319 3.45712 391.584 3.45712H351.185V3.45712Z" fill="#BCC9DB"/>
<path d="M393.779 29.4017H348.992C348.517 29.4017 348.131 29.0157 348.131 28.5405C348.131 28.0654 348.517 27.6793 348.992 27.6793H393.781C394.256 27.6793 394.643 28.0654 394.643 28.5405C394.643 29.0157 394.256 29.4017 393.781 29.4017H393.779Z" fill="#BCC9DB"/>
<path d="M379.619 44.7868H363.152C362.677 44.7868 362.291 44.4008 362.291 43.9256C362.291 43.4505 362.677 43.0645 363.152 43.0645H379.619C380.094 43.0645 380.48 43.4505 380.48 43.9256C380.48 44.4008 380.094 44.7868 379.619 44.7868Z" fill="#BCC9DB"/>
<path d="M377.904 44.6432C377.562 44.6432 377.24 44.4403 377.104 44.1037L373.672 35.6007C373.494 35.1602 373.707 34.6579 374.15 34.4797C374.59 34.3015 375.092 34.5143 375.271 34.9573L378.703 43.4603C378.881 43.9008 378.668 44.4032 378.225 44.5813C378.119 44.6234 378.01 44.6432 377.904 44.6432V44.6432Z" fill="#BCC9DB"/>
<path d="M364.867 44.6433C364.761 44.6433 364.652 44.6235 364.545 44.5814C364.105 44.4032 363.892 43.9009 364.068 43.4604L367.5 34.9573C367.678 34.5169 368.181 34.3016 368.621 34.4797C369.062 34.6579 369.275 35.1603 369.099 35.6008L365.666 44.1038C365.53 44.4403 365.209 44.6433 364.867 44.6433V44.6433Z" fill="#BCC9DB"/>
<path d="M328.687 46.5143H307.427C305.537 46.5143 304 44.9776 304 43.0869V3.43012C304 1.54194 305.537 0.00268555 307.427 0.00268555H328.687C330.578 0.00268555 332.115 1.53946 332.115 3.43012V43.0869C332.115 44.9776 330.578 46.5143 328.687 46.5143ZM307.427 1.72506C306.487 1.72506 305.722 2.48974 305.722 3.43012V43.0869C305.722 44.0273 306.487 44.792 307.427 44.792H328.687C329.628 44.792 330.392 44.0273 330.392 43.0869V3.43012C330.392 2.48974 329.628 1.72506 328.687 1.72506H307.427Z" fill="#BCC9DB"/>
<path d="M331.253 7.9487H304.861C304.386 7.9487 304 7.56265 304 7.08751C304 6.61237 304.386 6.22632 304.861 6.22632H331.253C331.729 6.22632 332.115 6.61237 332.115 7.08751C332.115 7.56265 331.729 7.9487 331.253 7.9487Z" fill="#BCC9DB"/>
<path d="M324.483 39.7113C322.674 39.7113 320.516 39.7088 318.031 39.6989C311.439 39.6791 304.856 39.6395 304.856 39.6395C304.381 39.637 303.997 39.2485 304 38.7734C304.002 38.2982 304.396 37.9246 304.866 37.9171C314.762 37.9765 329.727 38.0334 331.055 37.9394C331.335 37.8726 331.642 37.9518 331.862 38.1696C332.11 38.417 332.184 38.7907 332.048 39.1124C331.886 39.5001 330.238 39.6989 327.103 39.7088C326.334 39.7088 325.458 39.7113 324.48 39.7113H324.483Z" fill="#BCC9DB"/>
<path d="M320.444 42.7502H315.955C315.48 42.7502 315.094 42.3642 315.094 41.889C315.094 41.4139 315.48 41.0278 315.955 41.0278H320.444C320.919 41.0278 321.305 41.4139 321.305 41.889C321.305 42.3642 320.919 42.7502 320.444 42.7502Z" fill="#BCC9DB"/>
<path d="M443.292 46.5116H411.097C409.206 46.5116 407.669 44.9749 407.669 43.0842V3.42743C407.669 1.53678 409.206 0 411.097 0H443.292C445.183 0 446.72 1.53678 446.72 3.42743V43.0842C446.72 44.9749 445.183 46.5116 443.292 46.5116ZM411.097 1.72238C410.156 1.72238 409.392 2.48706 409.392 3.42743V43.0842C409.392 44.0246 410.156 44.7893 411.097 44.7893H443.292C444.233 44.7893 444.997 44.0246 444.997 43.0842V3.42743C444.997 2.48706 444.233 1.72238 443.292 1.72238H411.097Z" fill="#BCC9DB"/>
<path d="M441.501 42.3071H412.888C412.329 42.3071 411.874 41.8518 411.874 41.2925V5.21909C411.874 4.65981 412.329 4.20447 412.888 4.20447H441.501C442.06 4.20447 442.515 4.65981 442.515 5.21909V41.2925C442.515 41.8518 442.06 42.3071 441.501 42.3071ZM413.596 40.5848H440.793V5.92685H413.596V40.5848Z" fill="#BCC9DB"/>
<path d="M428.001 44.2027H425.796C425.321 44.2027 424.935 43.8167 424.935 43.3415C424.935 42.8664 425.321 42.4803 425.796 42.4803H428.001C428.476 42.4803 428.862 42.8664 428.862 43.3415C428.862 43.8167 428.476 44.2027 428.001 44.2027Z" fill="#BCC9DB"/>
<path d="M87.5863 36.1402H47.1846C45.4994 36.1402 44.1284 34.7693 44.1284 33.084V4.79097C44.1284 3.10572 45.4994 1.73474 47.1846 1.73474H87.5838C89.2691 1.73474 90.6401 3.10572 90.6401 4.79097V33.084C90.6401 34.7693 89.2691 36.1402 87.5838 36.1402H87.5863ZM47.1846 3.45712C46.4497 3.45712 45.8508 4.05599 45.8508 4.79097V33.084C45.8508 33.819 46.4497 34.4179 47.1846 34.4179H87.5838C88.3188 34.4179 88.9177 33.819 88.9177 33.084V4.79097C88.9177 4.05599 88.3188 3.45712 87.5838 3.45712H47.1846V3.45712Z" fill="#BCC9DB"/>
<path d="M89.7788 29.4017H44.992C44.5169 29.4017 44.1309 29.0157 44.1309 28.5405C44.1309 28.0654 44.5169 27.6793 44.992 27.6793H89.7813C90.2565 27.6793 90.6425 28.0654 90.6425 28.5405C90.6425 29.0157 90.2565 29.4017 89.7813 29.4017H89.7788Z" fill="#BCC9DB"/>
<path d="M75.6187 44.7868H59.1522C58.6771 44.7868 58.291 44.4008 58.291 43.9256C58.291 43.4505 58.6771 43.0645 59.1522 43.0645H75.6187C76.0939 43.0645 76.4799 43.4505 76.4799 43.9256C76.4799 44.4008 76.0939 44.7868 75.6187 44.7868Z" fill="#BCC9DB"/>
<path d="M73.9037 44.6432C73.5622 44.6432 73.2404 44.4403 73.1043 44.1037L69.672 35.6007C69.4938 35.1602 69.7066 34.6579 70.1496 34.4797C70.5901 34.3015 71.0924 34.5143 71.2706 34.9573L74.703 43.4603C74.8812 43.9008 74.6683 44.4032 74.2254 44.5813C74.119 44.6234 74.0101 44.6432 73.9037 44.6432V44.6432Z" fill="#BCC9DB"/>
<path d="M60.8671 44.6433C60.7607 44.6433 60.6518 44.6235 60.5454 44.5814C60.1049 44.4032 59.8921 43.9009 60.0678 43.4604L63.5002 34.9573C63.6784 34.5169 64.1807 34.3016 64.6212 34.4797C65.0617 34.6579 65.2746 35.1603 65.0989 35.6008L61.6665 44.1038C61.5304 44.4403 61.2087 44.6433 60.8671 44.6433V44.6433Z" fill="#BCC9DB"/>
<path d="M24.6873 46.5143H3.42731C1.53666 46.5143 -0.00012207 44.9776 -0.00012207 43.0869V3.43012C-0.00012207 1.54194 1.53666 0.00268555 3.42731 0.00268555H24.6873C26.578 0.00268555 28.1147 1.53946 28.1147 3.43012V43.0869C28.1147 44.9776 26.578 46.5143 24.6873 46.5143ZM3.42731 1.72506C2.48693 1.72506 1.72226 2.48974 1.72226 3.43012V43.0869C1.72226 44.0273 2.48693 44.792 3.42731 44.792H24.6873C25.6277 44.792 26.3924 44.0273 26.3924 43.0869V3.43012C26.3924 2.48974 25.6277 1.72506 24.6873 1.72506H3.42731Z" fill="#BCC9DB"/>
<path d="M27.2534 7.9487H0.860945C0.385806 7.9487 -0.000244141 7.56265 -0.000244141 7.08751C-0.000244141 6.61237 0.385806 6.22632 0.860945 6.22632H27.2534C27.7286 6.22632 28.1146 6.61237 28.1146 7.08751C28.1146 7.56265 27.7286 7.9487 27.2534 7.9487Z" fill="#BCC9DB"/>
<path d="M20.4827 39.7113C18.6737 39.7113 16.5158 39.7088 14.0312 39.6989C7.43866 39.6791 0.856008 39.6395 0.856008 39.6395C0.380869 39.637 -0.00270692 39.2485 -0.000232233 38.7734C0.00224245 38.2982 0.395717 37.9246 0.865906 37.9171C10.7622 37.9765 25.7266 38.0334 27.0555 37.9394C27.3351 37.8726 27.642 37.9518 27.8622 38.1696C28.1097 38.417 28.1839 38.7907 28.0478 39.1124C27.8861 39.5001 26.238 39.6989 23.1034 39.7088C22.3338 39.7088 21.4577 39.7113 20.4802 39.7113H20.4827Z" fill="#BCC9DB"/>
<path d="M16.4443 42.7502H11.9552C11.48 42.7502 11.094 42.3642 11.094 41.889C11.094 41.4139 11.48 41.0278 11.9552 41.0278H16.4443C16.9194 41.0278 17.3054 41.4139 17.3054 41.889C17.3054 42.3642 16.9194 42.7502 16.4443 42.7502Z" fill="#BCC9DB"/>
<path d="M139.292 46.5116H107.097C105.206 46.5116 103.669 44.9749 103.669 43.0842V3.42743C103.669 1.53678 105.206 0 107.097 0H139.292C141.183 0 142.72 1.53678 142.72 3.42743V43.0842C142.72 44.9749 141.183 46.5116 139.292 46.5116ZM107.097 1.72238C106.156 1.72238 105.392 2.48706 105.392 3.42743V43.0842C105.392 44.0246 106.156 44.7893 107.097 44.7893H139.292C140.233 44.7893 140.997 44.0246 140.997 43.0842V3.42743C140.997 2.48706 140.233 1.72238 139.292 1.72238H107.097Z" fill="#BCC9DB"/>
<path d="M137.501 42.3071H108.888C108.329 42.3071 107.874 41.8518 107.874 41.2925V5.21909C107.874 4.65981 108.329 4.20447 108.888 4.20447H137.501C138.06 4.20447 138.515 4.65981 138.515 5.21909V41.2925C138.515 41.8518 138.06 42.3071 137.501 42.3071ZM109.596 40.5848H136.793V5.92685H109.596V40.5848Z" fill="#BCC9DB"/>
<path d="M124.001 44.2027H121.796C121.321 44.2027 120.935 43.8167 120.935 43.3415C120.935 42.8664 121.321 42.4803 121.796 42.4803H124.001C124.476 42.4803 124.862 42.8664 124.862 43.3415C124.862 43.8167 124.476 44.2027 124.001 44.2027Z" fill="#BCC9DB"/>
</g>
</svg>
